<svg width="65" height="65" viewBox="0 0 65 65" fill="none" xmlns="http://www.w3.org/2000/svg">
<path d="M4.0625 24.6458C4.0625 17.441 4.0625 13.8386 5.46465 11.0867C6.69803 8.66606 8.66606 6.69803 11.0867 5.46465C13.8386 4.0625 17.441 4.0625 24.6458 4.0625H40.3542C47.5591 4.0625 51.1615 4.0625 53.9132 5.46465C56.3339 6.69803 58.302 8.66606 59.5353 11.0867C60.9375 13.8386 60.9375 17.441 60.9375 24.6458V40.3542C60.9375 47.5591 60.9375 51.1615 59.5353 53.9132C58.302 56.3339 56.3339 58.302 53.9132 59.5353C51.1615 60.9375 47.5591 60.9375 40.3542 60.9375H24.6458C17.441 60.9375 13.8386 60.9375 11.0867 59.5353C8.66606 58.302 6.69803 56.3339 5.46465 53.9132C4.0625 51.1615 4.0625 47.5591 4.0625 40.3542V24.6458Z" fill="#001E36"/>
<path d="M16.25 45.736V20.7257C16.25 20.5556 16.3211 20.4583 16.487 20.4583C18.9359 20.4583 21.3838 20.3125 23.8333 20.3125C27.8082 20.3125 32.112 21.6716 33.6206 25.8298C33.9761 26.8507 34.1656 27.8958 34.1656 28.9896C34.1656 31.08 33.6917 32.8055 32.7438 34.1666C30.0958 37.9687 25.5064 37.9096 21.3925 37.9096V45.7119C21.4246 45.9428 21.2278 46.0521 21.037 46.0521H16.5344C16.3448 46.0521 16.25 45.9548 16.25 45.736ZM21.4161 25.1493V33.316C23.0474 33.4354 24.7542 33.4484 26.3215 32.9272C28.052 32.4279 28.9995 30.9303 28.9995 29.1354C29.0475 27.6061 28.2143 26.1387 26.7956 25.5868C25.2472 24.9429 23.0876 24.9043 21.4161 25.1493Z" fill="#31A8FF"/>
<path d="M48.9466 31.7026C48.2296 31.3246 47.4659 31.0482 46.6763 30.8808C45.6619 30.6421 41.6607 29.806 41.6591 31.8982C41.6947 33.0662 43.5488 33.6384 44.368 33.9721C47.244 34.9595 50.4985 36.7245 50.4345 40.2725C50.5225 44.6892 46.243 46.455 42.5748 46.4554C40.6652 46.4751 38.6758 46.1793 36.9281 45.3595C36.7612 45.2712 36.6539 45.0825 36.661 44.8899V40.6637C36.6421 40.4943 36.8241 40.3462 36.9663 40.4681C38.6787 41.5036 40.7083 42.0066 42.6894 42.0334C43.5638 42.0334 45.2969 41.9487 45.2839 40.6637C45.2839 39.4307 43.2106 38.8638 42.3841 38.5506C41.186 38.123 40.0502 37.5305 39.0075 36.7897C37.5503 35.7503 36.6362 34.0839 36.661 32.2505C36.6525 28.0917 40.5917 26.225 44.1393 26.2241C45.7976 26.2103 47.5786 26.3332 49.1223 27.0068C49.3444 27.072 49.3903 27.306 49.3894 27.5154V31.4678C49.4035 31.7132 49.1311 31.7967 48.9466 31.7026Z" fill="#31A8FF"/>
</svg>
