<svg width="65" height="65" viewBox="0 0 65 65" fill="none" xmlns="http://www.w3.org/2000/svg">
<path d="M4.0625 24.6458C4.0625 17.441 4.0625 13.8386 5.46465 11.0867C6.69803 8.66606 8.66606 6.69803 11.0867 5.46465C13.8386 4.0625 17.441 4.0625 24.6458 4.0625H40.3542C47.5591 4.0625 51.1615 4.0625 53.9132 5.46465C56.3339 6.69803 58.302 8.66606 59.5353 11.0867C60.9375 13.8386 60.9375 17.441 60.9375 24.6458V40.3542C60.9375 47.5591 60.9375 51.1615 59.5353 53.9132C58.302 56.3339 56.3339 58.302 53.9132 59.5353C51.1615 60.9375 47.5591 60.9375 40.3542 60.9375H24.6458C17.441 60.9375 13.8386 60.9375 11.0867 59.5353C8.66606 58.302 6.69803 56.3339 5.46465 53.9132C4.0625 51.1615 4.0625 47.5591 4.0625 40.3542V24.6458Z" fill="#330000"/>
<path d="M31.6238 39.8049H22.8104L21.0172 45.5182C20.9674 45.7305 20.772 45.8808 20.5593 45.8702H16.0954C15.8408 45.8702 15.7518 45.7268 15.8283 45.4398L23.459 22.8999C23.5353 22.665 23.6117 22.3977 23.6879 22.0977C23.7878 21.5755 23.8388 21.0449 23.8406 20.5129C23.8187 20.3557 23.9568 20.2169 24.1075 20.2389H30.1741C30.3518 20.2389 30.4534 20.3041 30.4792 20.4345L39.1402 45.479C39.2164 45.74 39.1402 45.8704 38.9113 45.8702H33.9512C33.7773 45.8902 33.6111 45.7709 33.5697 45.5964L31.6238 39.8049ZM24.1839 34.8743H30.2122C29.2218 31.4898 28.104 28.1498 27.1981 24.7392C26.2206 28.1557 25.1542 31.5585 24.1839 34.8743Z" fill="#FF9A00"/>
<path d="M44.2905 24.3868C43.9013 24.4028 43.5134 24.3344 43.1516 24.1861C42.79 24.0378 42.463 23.8128 42.192 23.5259C41.9219 23.2265 41.7118 22.8755 41.5743 22.4926C41.4368 22.11 41.3745 21.7031 41.3907 21.2954C41.3769 20.8918 41.4462 20.4898 41.594 20.1156C41.7421 19.7413 41.9653 19.4033 42.2493 19.1236C42.5304 18.8467 42.8623 18.6298 43.2259 18.4854C43.5893 18.341 43.9771 18.272 44.3667 18.2822C45.2826 18.2822 46.001 18.5627 46.5225 19.1236C46.7857 19.4151 46.9903 19.7569 47.1245 20.1296C47.2586 20.5022 47.3199 20.8985 47.3045 21.2954C47.3205 21.7045 47.2561 22.113 47.1152 22.4961C46.9744 22.8792 46.7597 23.2294 46.4843 23.5259C46.1964 23.817 45.8528 24.0437 45.4754 24.192C45.0977 24.3401 44.6943 24.4065 44.2905 24.3868ZM41.6578 45.4789V26.7739C41.6578 26.5391 41.7592 26.4217 41.9631 26.4217H46.6561C46.8592 26.4217 46.961 26.5391 46.9612 26.7739V45.4789C46.9612 45.7401 46.8594 45.8705 46.6561 45.8703H42.0013C41.7724 45.8703 41.6578 45.7399 41.6578 45.4789Z" fill="#FF9A00"/>
</svg>
