<svg width="500" height="500" viewBox="0 0 500 500" fill="none" xmlns="http://www.w3.org/2000/svg">
<path d="M214.62 284.92C214.71 287.3 216.78 306.92 218.68 308.92C220.58 310.92 228.52 314.26 234.52 315.16C242.52 316.34 253.29 313.33 257.52 310.16C261.75 306.99 264.27 284.16 263.08 283.16C261.89 282.16 248.91 275.69 239.42 275.69C228.27 275.69 214.54 282.77 214.62 284.92Z" fill="#37474F"/>
<path d="M218.09 307.06C221.07 308.579 224.151 309.892 227.31 310.99C230.437 312.156 233.743 312.769 237.08 312.8C240.417 312.717 243.735 312.261 246.97 311.44C250.217 310.649 253.416 309.67 256.55 308.51C253.451 309.771 250.267 310.81 247.02 311.62C243.771 312.468 240.437 312.954 237.08 313.07C233.717 313.005 230.391 312.355 227.25 311.15C224.088 310.045 221.024 308.676 218.09 307.06Z" fill="#263238"/>
<path d="M217.65 304.46C220.751 306.048 223.959 307.418 227.25 308.56C230.516 309.776 233.966 310.419 237.45 310.46C240.93 310.368 244.388 309.888 247.76 309.03C251.149 308.225 254.488 307.223 257.76 306.03C254.525 307.341 251.2 308.421 247.81 309.26C244.421 310.121 240.946 310.601 237.45 310.69C233.943 310.629 230.474 309.952 227.2 308.69C223.905 307.548 220.711 306.133 217.65 304.46Z" fill="#263238"/>
<path d="M217.28 302.04C220.496 303.679 223.821 305.095 227.23 306.28C230.609 307.549 234.181 308.225 237.79 308.28C241.394 308.182 244.976 307.686 248.47 306.8C251.977 305.948 255.429 304.89 258.81 303.63C255.463 304.993 252.02 306.109 248.51 306.97C245.006 307.887 241.411 308.414 237.79 308.54C234.157 308.474 230.563 307.774 227.17 306.47C223.758 305.266 220.45 303.784 217.28 302.04Z" fill="#263238"/>
<path d="M217.61 299.81C220.823 301.457 224.148 302.873 227.56 304.05C230.933 305.329 234.504 306.006 238.11 306.05C241.717 305.955 245.302 305.462 248.8 304.58C252.307 303.729 255.759 302.67 259.14 301.41C255.789 302.745 252.347 303.841 248.84 304.69C245.336 305.607 241.741 306.134 238.12 306.26C234.502 306.196 230.923 305.506 227.54 304.22C224.113 303.029 220.792 301.554 217.61 299.81Z" fill="#263238"/>
<path d="M217.25 297.23C220.58 298.93 224.021 300.4 227.551 301.63C231.052 302.919 234.749 303.595 238.48 303.63C242.21 303.538 245.919 303.038 249.54 302.14C253.172 301.253 256.748 300.154 260.25 298.85C256.766 300.253 253.187 301.41 249.54 302.31C245.912 303.259 242.189 303.802 238.44 303.93C234.677 303.863 230.954 303.139 227.44 301.79C223.925 300.552 220.516 299.027 217.25 297.23Z" fill="#263238"/>
<path d="M216.66 294.41C220.079 296.158 223.614 297.669 227.24 298.93C230.835 300.27 234.634 300.977 238.47 301.02C242.3 300.922 246.107 300.396 249.82 299.45C253.55 298.544 257.223 297.419 260.82 296.08C257.255 297.512 253.597 298.698 249.87 299.63C246.143 300.602 242.32 301.159 238.47 301.29C234.608 301.218 230.787 300.473 227.18 299.09C223.55 297.823 220.032 296.258 216.66 294.41Z" fill="#263238"/>
<path d="M216.2 291.69C219.754 293.509 223.429 295.08 227.2 296.39C230.931 297.785 234.877 298.519 238.86 298.56C242.842 298.458 246.8 297.911 250.66 296.93C254.533 295.988 258.347 294.816 262.08 293.42C258.379 294.914 254.576 296.144 250.7 297.1C246.83 298.116 242.859 298.696 238.86 298.83C234.854 298.756 230.891 297.985 227.15 296.55C223.373 295.234 219.71 293.609 216.2 291.69Z" fill="#263238"/>
<path d="M215.54 289.14C219.18 291.015 222.95 292.625 226.82 293.96C230.659 295.401 234.72 296.159 238.82 296.2C242.91 296.097 246.976 295.533 250.94 294.52C254.917 293.551 258.834 292.349 262.67 290.92C258.869 292.447 254.966 293.707 250.99 294.69C247.018 295.729 242.943 296.323 238.84 296.46C234.735 296.376 230.676 295.585 226.84 294.12C222.943 292.774 219.163 291.108 215.54 289.14Z" fill="#263238"/>
<path d="M277.2 225.49C277.352 224.667 277.211 223.816 276.802 223.086C276.393 222.355 275.741 221.791 274.96 221.49C263.32 217.49 248.78 215.18 239.58 215.15H239.42C230.21 215.15 215.66 217.45 204.03 221.49C203.246 221.787 202.591 222.351 202.18 223.082C201.769 223.813 201.627 224.665 201.78 225.49C203.54 236.32 205.1 273.81 213.86 290.54C218.71 299.83 237.65 299.88 239.42 299.85H239.54C241.31 299.85 260.23 299.85 265.1 290.54C273.89 273.81 275.44 236.32 277.2 225.49Z" fill="#7A1CAC"/>
<path opacity="0.1" d="M221.521 217.43L222.04 227.48L222.48 237.53L223.26 257.63L223.861 277.74L224.111 287.79L224.271 297.85L223.75 287.81L223.301 277.76L222.53 257.65L221.921 237.55L221.681 227.49L221.521 217.43Z" fill="black"/>
<path opacity="0.1" d="M218.64 223.49C218.704 223.844 218.666 224.208 218.531 224.541C218.396 224.874 218.169 225.162 217.877 225.372C217.585 225.581 217.24 225.703 216.881 225.724C216.522 225.745 216.164 225.664 215.85 225.49C215.617 225.352 215.416 225.166 215.26 224.946C215.103 224.726 214.994 224.475 214.94 224.21C214.875 223.961 214.861 223.701 214.899 223.446C214.938 223.191 215.028 222.947 215.165 222.728C215.301 222.51 215.481 222.321 215.693 222.175C215.905 222.028 216.145 221.927 216.397 221.876C216.65 221.826 216.91 221.827 217.162 221.881C217.414 221.935 217.653 222.039 217.863 222.189C218.073 222.338 218.25 222.529 218.384 222.749C218.517 222.969 218.605 223.215 218.64 223.47V223.49ZM218.64 223.49C218.59 223.28 218.496 223.082 218.365 222.91C218.234 222.738 218.069 222.595 217.88 222.49C217.671 222.376 217.438 222.313 217.2 222.305C216.962 222.298 216.726 222.345 216.51 222.445C216.293 222.545 216.103 222.694 215.955 222.88C215.806 223.066 215.703 223.284 215.654 223.516C215.604 223.749 215.61 223.991 215.67 224.221C215.73 224.451 215.843 224.664 216 224.843C216.157 225.022 216.353 225.162 216.574 225.252C216.794 225.342 217.033 225.379 217.27 225.36C217.478 225.339 217.679 225.277 217.863 225.177C218.047 225.077 218.209 224.942 218.34 224.78C218.482 224.6 218.583 224.392 218.635 224.169C218.687 223.945 218.688 223.714 218.64 223.49Z" fill="black"/>
<path opacity="0.1" d="M219.33 235.53C219.423 235.991 219.342 236.471 219.102 236.875C218.861 237.28 218.48 237.581 218.03 237.72C217.53 237.859 216.996 237.798 216.54 237.55C216.308 237.414 216.107 237.231 215.95 237.012C215.794 236.793 215.685 236.544 215.63 236.28C215.583 236.015 215.589 235.742 215.649 235.479C215.709 235.216 215.822 234.968 215.98 234.75C216.139 234.547 216.336 234.377 216.561 234.252C216.786 234.127 217.034 234.048 217.29 234.02C217.757 233.976 218.223 234.106 218.599 234.385C218.976 234.663 219.236 235.071 219.33 235.53ZM219.33 235.53C219.281 235.319 219.188 235.121 219.057 234.949C218.926 234.777 218.76 234.634 218.57 234.53C218.387 234.43 218.185 234.368 217.978 234.347C217.77 234.327 217.56 234.348 217.36 234.41C217.135 234.486 216.931 234.613 216.764 234.782C216.596 234.95 216.47 235.155 216.396 235.381C216.322 235.607 216.301 235.846 216.335 236.081C216.37 236.316 216.458 236.54 216.594 236.735C216.73 236.93 216.909 237.09 217.118 237.204C217.326 237.317 217.559 237.381 217.796 237.389C218.033 237.397 218.269 237.35 218.485 237.251C218.701 237.153 218.891 237.005 219.04 236.82C219.177 236.638 219.274 236.429 219.324 236.206C219.374 235.984 219.376 235.753 219.33 235.53Z" fill="black"/>
<path opacity="0.1" d="M219.77 248.32C219.863 248.781 219.781 249.26 219.541 249.665C219.301 250.069 218.919 250.371 218.47 250.51C217.97 250.649 217.436 250.588 216.98 250.34C216.747 250.204 216.546 250.02 216.389 249.8C216.233 249.58 216.124 249.33 216.071 249.066C216.018 248.801 216.022 248.528 216.082 248.265C216.142 248.002 216.257 247.755 216.42 247.54C216.641 247.253 216.941 247.035 217.282 246.913C217.623 246.791 217.993 246.77 218.346 246.852C218.699 246.935 219.021 247.117 219.274 247.377C219.526 247.637 219.698 247.964 219.77 248.32ZM219.77 248.32C219.721 248.109 219.628 247.911 219.497 247.738C219.366 247.566 219.2 247.423 219.01 247.32C218.826 247.221 218.624 247.161 218.416 247.142C218.208 247.123 217.999 247.146 217.8 247.21C217.572 247.283 217.364 247.408 217.193 247.576C217.022 247.743 216.893 247.949 216.816 248.176C216.739 248.403 216.716 248.644 216.75 248.882C216.783 249.119 216.872 249.345 217.009 249.541C217.146 249.738 217.327 249.9 217.537 250.014C217.748 250.128 217.983 250.19 218.222 250.197C218.462 250.204 218.699 250.154 218.916 250.052C219.133 249.95 219.323 249.799 219.47 249.61C219.612 249.43 219.713 249.222 219.765 248.998C219.817 248.775 219.818 248.544 219.77 248.32Z" fill="black"/>
<path opacity="0.1" d="M220.21 261.11C220.279 261.464 220.244 261.831 220.11 262.167C219.976 262.502 219.749 262.792 219.456 263.003C219.162 263.213 218.814 263.335 218.454 263.354C218.093 263.373 217.734 263.288 217.42 263.11C217.145 262.953 216.913 262.73 216.746 262.46C216.58 262.19 216.484 261.883 216.467 261.566C216.45 261.249 216.514 260.933 216.651 260.648C216.788 260.362 216.996 260.115 217.253 259.931C217.511 259.746 217.811 259.629 218.126 259.591C218.441 259.552 218.76 259.594 219.054 259.711C219.349 259.829 219.609 260.018 219.811 260.263C220.013 260.507 220.15 260.798 220.21 261.11ZM220.21 261.11C220.158 260.9 220.063 260.704 219.933 260.532C219.802 260.36 219.638 260.217 219.45 260.11C219.267 260.01 219.065 259.948 218.858 259.927C218.65 259.906 218.44 259.928 218.24 259.99C217.888 260.111 217.592 260.357 217.408 260.681C217.224 261.005 217.164 261.385 217.24 261.75C217.297 262.034 217.434 262.296 217.634 262.505C217.835 262.715 218.091 262.862 218.373 262.93C218.655 262.999 218.95 262.985 219.224 262.891C219.498 262.797 219.74 262.627 219.92 262.4C220.059 262.218 220.157 262.009 220.207 261.787C220.257 261.564 220.258 261.333 220.21 261.11Z" fill="black"/>
<path opacity="0.1" d="M220.65 273.89C220.743 274.351 220.662 274.831 220.422 275.235C220.182 275.64 219.8 275.941 219.35 276.08C218.85 276.219 218.316 276.158 217.86 275.91C217.628 275.774 217.427 275.591 217.27 275.372C217.114 275.153 217.005 274.904 216.95 274.64C216.887 274.392 216.875 274.133 216.914 273.88C216.954 273.627 217.044 273.385 217.181 273.168C217.317 272.951 217.496 272.764 217.706 272.618C217.917 272.472 218.155 272.371 218.406 272.32C218.657 272.269 218.916 272.27 219.167 272.322C219.418 272.374 219.655 272.477 219.865 272.624C220.075 272.77 220.253 272.958 220.388 273.176C220.523 273.394 220.612 273.637 220.65 273.89ZM220.65 273.89C220.539 273.47 220.266 273.11 219.89 272.89C219.706 272.792 219.504 272.731 219.297 272.712C219.089 272.694 218.879 272.717 218.68 272.78C218.289 272.866 217.947 273.103 217.729 273.438C217.51 273.774 217.431 274.181 217.51 274.574C217.588 274.967 217.818 275.313 218.149 275.539C218.48 275.764 218.886 275.851 219.28 275.78C219.489 275.764 219.693 275.703 219.877 275.603C220.061 275.504 220.222 275.366 220.35 275.2C220.494 275.017 220.595 274.805 220.647 274.579C220.699 274.352 220.7 274.117 220.65 273.89Z" fill="black"/>
<path opacity="0.1" d="M221.081 286.69C221.174 287.149 221.093 287.625 220.855 288.028C220.616 288.431 220.237 288.731 219.791 288.87C219.544 288.945 219.285 288.97 219.029 288.942C218.773 288.915 218.525 288.836 218.301 288.71C218.071 288.57 217.873 288.386 217.716 288.168C217.56 287.949 217.449 287.702 217.391 287.44C217.336 287.175 217.339 286.902 217.397 286.639C217.456 286.375 217.569 286.127 217.731 285.91C217.889 285.708 218.087 285.539 218.312 285.413C218.537 285.288 218.785 285.209 219.041 285.18C219.508 285.131 219.976 285.259 220.354 285.539C220.731 285.818 220.991 286.229 221.081 286.69ZM221.081 286.69C221.032 286.48 220.94 286.283 220.811 286.111C220.682 285.939 220.518 285.796 220.331 285.69C220.147 285.589 219.945 285.528 219.737 285.509C219.529 285.49 219.319 285.514 219.12 285.58C218.729 285.666 218.388 285.903 218.169 286.238C217.95 286.573 217.871 286.981 217.95 287.374C218.028 287.767 218.258 288.113 218.589 288.339C218.92 288.564 219.326 288.651 219.72 288.58C220.14 288.535 220.524 288.327 220.791 288C220.935 287.818 221.035 287.605 221.086 287.378C221.136 287.151 221.134 286.916 221.081 286.69Z" fill="black"/>
<path d="M236.86 274.04C247 275.25 257.62 269.62 258.86 256.89C260.3 242.19 252.19 234.58 241 233.01C233.53 232.01 221.88 236.55 220.16 250.52C218.17 266.86 230.18 273.24 236.86 274.04Z" fill="#7A1CAC"/>
<g opacity="0.1">
<path d="M236.86 274.04C247 275.25 257.62 269.62 258.86 256.89C260.3 242.19 252.19 234.58 241 233.01C233.53 232.01 221.88 236.55 220.16 250.52C218.17 266.86 230.18 273.24 236.86 274.04Z" fill="black"/>
</g>
<path d="M237 272.06C246.47 273.19 256.37 267.94 257.54 256.06C258.88 242.35 251.31 235.24 240.87 233.78C233.87 232.78 223.03 237.08 221.43 250.12C219.54 265.37 230.76 271.31 237 272.06Z" fill="#7A1CAC"/>
<g opacity="0.1">
<path d="M238.74 270.14C250.74 269.2 255.57 257.98 252.48 247.27C250.64 239.82 243.58 235.88 236.21 237.33C229.04 239.02 224.63 246.2 224.6 253.33C224.13 262.06 229.35 270.21 238.74 270.13V270.14ZM238.74 270.14C229.37 270.37 223.88 262.05 224.09 253.34C223.81 244.73 230.02 235.95 239.2 236.07C242.443 235.986 245.613 237.04 248.159 239.049C250.706 241.059 252.468 243.897 253.14 247.07C255.97 257.89 250.8 269.36 238.74 270.12V270.14Z" fill="black"/>
</g>
<path d="M238.75 269.5C246.1 269.14 253.22 263.41 253.07 253.39C252.89 241.82 246.47 236.97 238.35 237.2C232.92 237.35 224.98 242.4 224.9 253.44C224.8 266.36 233.91 269.75 238.75 269.5Z" fill="#7A1CAC"/>
<g opacity="0.2">
<path d="M238.79 266.94C244.98 266.63 250.97 261.81 250.84 253.39C250.69 243.65 245.29 239.57 238.46 239.76C233.89 239.89 227.2 244.14 227.14 253.43C227.06 264.3 234.72 267.15 238.79 266.94Z" fill="white"/>
</g>
<path d="M222.17 202.96C222.23 204.65 223.7 218.59 225.06 219.96C226.42 221.33 232.06 223.75 236.32 224.39C241.97 225.23 249.66 223.09 252.65 220.81C255.64 218.53 257.45 202.35 256.65 201.61C255.85 200.87 246.59 196.38 239.84 196.38C231.87 196.43 222.12 201.43 222.17 202.96Z" fill="#37474F"/>
<path d="M224.64 218.69C226.758 219.764 228.946 220.693 231.19 221.47C233.43 222.309 235.799 222.749 238.19 222.77C240.553 222.695 242.901 222.359 245.19 221.77C247.498 221.209 249.772 220.514 252 219.69C249.795 220.583 247.529 221.318 245.22 221.89C242.911 222.482 240.543 222.818 238.16 222.89C235.765 222.843 233.396 222.379 231.16 221.52C228.912 220.76 226.731 219.813 224.64 218.69Z" fill="#263238"/>
<path d="M224.32 216.86C226.528 217.983 228.81 218.956 231.15 219.77C233.472 220.629 235.924 221.086 238.4 221.12C240.873 221.057 243.331 220.721 245.73 220.12C248.136 219.528 250.507 218.801 252.83 217.94C250.533 218.877 248.17 219.646 245.76 220.24C243.354 220.869 240.886 221.231 238.4 221.32C235.907 221.265 233.442 220.785 231.11 219.9C228.768 219.072 226.497 218.056 224.32 216.86Z" fill="#263238"/>
<path d="M224.06 215.13C226.347 216.293 228.713 217.296 231.14 218.13C233.542 219.021 236.078 219.495 238.64 219.53C241.204 219.459 243.753 219.107 246.24 218.48C248.729 217.865 251.183 217.114 253.59 216.23C251.208 217.189 248.762 217.981 246.27 218.6C243.776 219.252 241.217 219.628 238.64 219.72C236.061 219.664 233.511 219.167 231.1 218.25C228.673 217.401 226.319 216.358 224.06 215.13Z" fill="#263238"/>
<path d="M224.29 213.55C226.578 214.712 228.944 215.714 231.37 216.55C233.772 217.441 236.308 217.915 238.87 217.95C241.432 217.896 243.981 217.56 246.47 216.95C248.961 216.338 251.415 215.583 253.82 214.69C251.44 215.657 248.994 216.452 246.5 217.07C244.005 217.718 241.446 218.093 238.87 218.19C236.291 218.134 233.741 217.636 231.33 216.72C228.902 215.855 226.547 214.795 224.29 213.55Z" fill="#263238"/>
<path d="M224.04 211.69C226.406 212.895 228.852 213.938 231.36 214.81C233.847 215.738 236.476 216.229 239.13 216.26C241.783 216.192 244.419 215.826 246.99 215.17C249.574 214.544 252.118 213.766 254.61 212.84C252.141 213.836 249.604 214.658 247.02 215.3C244.441 215.973 241.794 216.359 239.13 216.45C236.458 216.402 233.815 215.888 231.32 214.93C228.81 214.048 226.375 212.964 224.04 211.69Z" fill="#263238"/>
<path d="M223.62 209.69C226.05 210.932 228.562 212.005 231.14 212.9C233.7 213.858 236.407 214.362 239.14 214.39C241.867 214.322 244.578 213.946 247.22 213.27C249.87 212.622 252.481 211.824 255.04 210.88C252.505 211.899 249.902 212.741 247.25 213.4C244.599 214.093 241.879 214.489 239.14 214.58C236.403 214.526 233.697 213.999 231.14 213.02C228.546 212.118 226.031 211.005 223.62 209.69Z" fill="#263238"/>
<path d="M223.29 207.8C225.814 209.089 228.424 210.205 231.1 211.14C233.754 212.128 236.559 212.649 239.39 212.68C242.221 212.609 245.036 212.22 247.78 211.52C250.531 210.855 253.24 210.024 255.89 209.03C253.262 210.093 250.562 210.968 247.81 211.65C245.057 212.365 242.233 212.774 239.39 212.87C236.54 212.819 233.721 212.271 231.06 211.25C228.379 210.317 225.78 209.163 223.29 207.8Z" fill="#263238"/>
<path d="M222.85 205.96C225.433 207.291 228.106 208.437 230.85 209.39C233.575 210.414 236.459 210.952 239.37 210.98C242.275 210.903 245.163 210.504 247.98 209.79C250.807 209.096 253.591 208.241 256.32 207.23C253.617 208.318 250.84 209.213 248.01 209.91C245.187 210.653 242.288 211.076 239.37 211.17C236.442 211.117 233.546 210.555 230.81 209.51C228.064 208.547 225.402 207.359 222.85 205.96Z" fill="#263238"/>
<path d="M307.54 205.53C307.54 205.32 311.83 204.53 315.9 203.9C318.034 203.545 320.002 202.528 321.524 200.991C323.046 199.454 324.046 197.477 324.38 195.34L329.9 159.8C330.254 157.502 329.818 155.151 328.663 153.133C327.508 151.114 325.701 149.548 323.54 148.69L312.22 144.13L307.54 205.53Z" fill="#7A1CAC"/>
<g opacity="0.2">
<path d="M307.54 205.53C307.54 205.32 311.83 204.53 315.9 203.9C318.034 203.545 320.002 202.528 321.524 200.991C323.046 199.454 324.046 197.477 324.38 195.34L329.9 159.8C330.254 157.502 329.818 155.151 328.663 153.133C327.508 151.114 325.701 149.548 323.54 148.69L312.22 144.13L307.54 205.53Z" fill="black"/>
</g>
<path d="M173.1 204.33C173.1 204.12 168.79 203.52 164.69 202.99C162.544 202.71 160.541 201.76 158.966 200.275C157.391 198.79 156.325 196.846 155.92 194.72L149.18 159.39C148.748 157.111 149.099 154.753 150.178 152.699C151.256 150.645 152.998 149.017 155.12 148.08L166.28 143.13L173.1 204.33Z" fill="#7A1CAC"/>
<g opacity="0.2">
<path d="M173.1 204.33C173.1 204.12 168.79 203.52 164.69 202.99C162.544 202.71 160.541 201.76 158.966 200.275C157.391 198.79 156.325 196.846 155.92 194.72L149.18 159.39C148.748 157.111 149.099 154.753 150.178 152.699C151.256 150.645 152.998 149.017 155.12 148.08L166.28 143.13L173.1 204.33Z" fill="black"/>
</g>
<path d="M307.84 214.26C307.84 214.26 316.03 169.39 317.23 99.12C317.23 99.12 232.45 85.9 163.23 98.32C163.23 98.32 166.34 187.2 172.13 212.09C172.15 212.09 242.91 215.8 307.84 214.26Z" fill="#7A1CAC"/>
<path opacity="0.1" d="M236.16 93.0601C236.16 103.1 236.203 113.14 236.29 123.18L236.6 153.29L236.94 152.92L202.8 155.41L185.73 156.69L168.66 158.09L185.75 157.09L202.84 155.99L236.99 153.69H237.34V153.35L236.84 123.23C236.64 113.15 236.413 103.093 236.16 93.0601Z" fill="black"/>
<path opacity="0.1" d="M240.9 97.5902C241.17 97.6074 241.434 97.6811 241.673 97.8067C241.913 97.9322 242.123 98.1067 242.291 98.3189C242.459 98.531 242.58 98.7761 242.647 99.0382C242.714 99.3003 242.726 99.5735 242.68 99.8402C242.634 100.112 242.532 100.372 242.38 100.602C242.229 100.833 242.031 101.03 241.8 101.18C241.575 101.317 241.324 101.408 241.063 101.447C240.802 101.487 240.536 101.474 240.28 101.41C239.824 101.277 239.432 100.981 239.179 100.579C238.925 100.177 238.828 99.6957 238.904 99.2265C238.98 98.7573 239.225 98.332 239.593 98.0307C239.96 97.7294 240.425 97.5727 240.9 97.5902ZM239.22 100.49C239.36 100.653 239.532 100.785 239.724 100.88C239.917 100.974 240.126 101.029 240.34 101.04C240.726 101.059 241.105 100.935 241.405 100.692C241.705 100.45 241.905 100.105 241.967 99.7236C242.029 99.3426 241.948 98.9522 241.74 98.6269C241.532 98.3016 241.212 98.0643 240.84 97.9602C240.633 97.9023 240.417 97.8866 240.204 97.9141C239.991 97.9415 239.786 98.0116 239.6 98.1202C239.41 98.2439 239.247 98.4053 239.121 98.5945C238.996 98.7837 238.91 98.9967 238.87 99.2202C238.836 99.4446 238.849 99.6738 238.909 99.8926C238.97 100.112 239.076 100.315 239.22 100.49Z" fill="black"/>
<path opacity="0.1" d="M240.67 109.96C240.933 109.976 241.19 110.047 241.424 110.167C241.658 110.288 241.864 110.455 242.03 110.66C242.205 110.872 242.334 111.119 242.406 111.385C242.478 111.65 242.493 111.928 242.45 112.2C242.409 112.467 242.312 112.723 242.165 112.95C242.019 113.177 241.826 113.371 241.6 113.519C241.373 113.667 241.118 113.766 240.852 113.809C240.585 113.852 240.312 113.839 240.05 113.77C239.586 113.645 239.185 113.353 238.924 112.949C238.663 112.545 238.562 112.059 238.639 111.585C238.716 111.111 238.967 110.682 239.342 110.382C239.717 110.081 240.191 109.931 240.67 109.96ZM238.98 112.86C239.139 113.046 239.34 113.191 239.565 113.286C239.791 113.38 240.035 113.421 240.279 113.404C240.523 113.387 240.759 113.314 240.97 113.189C241.18 113.065 241.359 112.893 241.491 112.688C241.624 112.482 241.706 112.249 241.733 112.006C241.759 111.763 241.728 111.517 241.642 111.288C241.557 111.059 241.419 110.853 241.24 110.687C241.06 110.52 240.845 110.398 240.61 110.33C240.285 110.236 239.939 110.248 239.622 110.367C239.305 110.485 239.035 110.703 238.852 110.987C238.669 111.272 238.582 111.607 238.605 111.945C238.628 112.282 238.76 112.603 238.98 112.86Z" fill="black"/>
<path opacity="0.1" d="M240.72 123.07C240.984 123.09 241.24 123.163 241.475 123.283C241.71 123.403 241.919 123.568 242.09 123.77C242.262 123.986 242.387 124.235 242.457 124.502C242.528 124.769 242.543 125.047 242.5 125.32C242.454 125.592 242.352 125.851 242.2 126.082C242.049 126.312 241.852 126.509 241.62 126.66C241.361 126.819 241.067 126.915 240.764 126.94C240.46 126.965 240.155 126.918 239.873 126.803C239.591 126.688 239.34 126.508 239.14 126.278C238.94 126.048 238.798 125.774 238.724 125.478C238.65 125.183 238.646 124.874 238.714 124.577C238.781 124.28 238.918 124.003 239.112 123.768C239.306 123.534 239.553 123.348 239.833 123.227C240.112 123.106 240.416 123.052 240.72 123.07ZM239.03 125.97C239.173 126.132 239.346 126.264 239.54 126.358C239.734 126.453 239.945 126.507 240.16 126.52C240.546 126.539 240.925 126.415 241.225 126.172C241.525 125.929 241.725 125.584 241.787 125.203C241.849 124.822 241.768 124.432 241.56 124.107C241.352 123.781 241.032 123.544 240.66 123.44C240.453 123.383 240.236 123.369 240.023 123.399C239.81 123.428 239.605 123.5 239.42 123.61C239.226 123.727 239.06 123.885 238.934 124.074C238.808 124.262 238.725 124.476 238.69 124.7C238.654 124.923 238.665 125.152 238.724 125.371C238.782 125.59 238.887 125.794 239.03 125.97Z" fill="black"/>
<path opacity="0.1" d="M240.77 136.19C241.041 136.206 241.305 136.279 241.546 136.404C241.787 136.529 241.999 136.703 242.169 136.915C242.338 137.127 242.461 137.372 242.53 137.634C242.599 137.896 242.612 138.17 242.569 138.438C242.525 138.706 242.426 138.962 242.277 139.189C242.129 139.416 241.934 139.609 241.706 139.756C241.478 139.903 241.222 140.001 240.954 140.043C240.686 140.085 240.412 140.07 240.15 140C239.686 139.875 239.285 139.583 239.024 139.179C238.763 138.775 238.662 138.289 238.739 137.815C238.816 137.341 239.067 136.912 239.442 136.612C239.817 136.311 240.291 136.161 240.77 136.19ZM239.09 139.09C239.23 139.252 239.402 139.385 239.594 139.479C239.787 139.574 239.996 139.629 240.21 139.64C240.596 139.659 240.975 139.535 241.275 139.292C241.575 139.049 241.775 138.704 241.837 138.323C241.899 137.942 241.818 137.552 241.61 137.227C241.402 136.901 241.082 136.664 240.71 136.56C240.503 136.502 240.287 136.486 240.074 136.514C239.861 136.541 239.656 136.611 239.47 136.72C239.279 136.842 239.115 137.003 238.989 137.193C238.863 137.382 238.779 137.596 238.74 137.82C238.706 138.044 238.719 138.274 238.779 138.492C238.84 138.711 238.946 138.915 239.09 139.09Z" fill="black"/>
<path opacity="0.1" d="M230.24 155.39C230.511 155.406 230.775 155.479 231.016 155.604C231.257 155.729 231.469 155.902 231.639 156.114C231.808 156.326 231.931 156.571 232 156.834C232.069 157.096 232.082 157.37 232.039 157.638C231.995 157.906 231.896 158.161 231.747 158.388C231.599 158.615 231.404 158.809 231.176 158.956C230.948 159.103 230.692 159.201 230.424 159.243C230.156 159.285 229.882 159.27 229.62 159.2C229.156 159.075 228.755 158.782 228.494 158.379C228.233 157.975 228.132 157.489 228.209 157.015C228.286 156.54 228.537 156.112 228.912 155.811C229.287 155.511 229.76 155.361 230.24 155.39ZM228.54 158.29C228.7 158.469 228.9 158.61 229.123 158.699C229.347 158.789 229.588 158.826 229.828 158.807C230.068 158.788 230.301 158.713 230.507 158.59C230.714 158.466 230.889 158.296 231.018 158.093C231.148 157.89 231.229 157.66 231.255 157.421C231.282 157.181 231.252 156.939 231.169 156.713C231.086 156.487 230.951 156.284 230.776 156.118C230.601 155.953 230.39 155.83 230.16 155.76C229.953 155.702 229.737 155.686 229.524 155.714C229.311 155.741 229.105 155.811 228.92 155.92C228.727 156.04 228.562 156.2 228.436 156.39C228.31 156.579 228.226 156.793 228.19 157.018C228.154 157.243 228.167 157.473 228.227 157.692C228.287 157.911 228.394 158.115 228.54 158.29Z" fill="black"/>
<path opacity="0.1" d="M217.71 156.37C218.103 156.387 218.482 156.523 218.795 156.76C219.109 156.997 219.343 157.324 219.467 157.698C219.591 158.071 219.598 158.473 219.488 158.851C219.378 159.228 219.156 159.563 218.851 159.812C218.546 160.06 218.173 160.21 217.781 160.242C217.389 160.273 216.997 160.185 216.656 159.989C216.316 159.792 216.043 159.497 215.874 159.141C215.705 158.786 215.648 158.388 215.71 158C215.798 157.536 216.046 157.118 216.412 156.819C216.778 156.521 217.238 156.362 217.71 156.37ZM216.02 159.27C216.162 159.433 216.335 159.565 216.529 159.66C216.723 159.754 216.935 159.809 217.15 159.82C217.536 159.839 217.915 159.715 218.215 159.472C218.515 159.229 218.715 158.884 218.777 158.503C218.839 158.122 218.758 157.732 218.55 157.407C218.342 157.081 218.022 156.844 217.65 156.74C217.325 156.645 216.979 156.658 216.662 156.777C216.345 156.895 216.075 157.113 215.892 157.397C215.709 157.681 215.622 158.017 215.645 158.355C215.668 158.692 215.8 159.013 216.02 159.27Z" fill="black"/>
<path opacity="0.1" d="M205.17 157.36C205.434 157.377 205.692 157.448 205.927 157.568C206.163 157.688 206.372 157.856 206.54 158.06C206.713 158.275 206.84 158.524 206.913 158.791C206.985 159.057 207.001 159.336 206.96 159.61C206.917 159.877 206.819 160.133 206.672 160.36C206.524 160.588 206.33 160.781 206.103 160.929C205.876 161.077 205.621 161.176 205.353 161.219C205.086 161.262 204.812 161.249 204.55 161.18C204.094 161.046 203.702 160.75 203.449 160.348C203.195 159.946 203.097 159.465 203.174 158.996C203.25 158.527 203.495 158.102 203.862 157.8C204.23 157.499 204.695 157.342 205.17 157.36ZM203.49 160.26C203.649 160.446 203.85 160.593 204.076 160.688C204.302 160.783 204.547 160.824 204.792 160.807C205.037 160.791 205.274 160.717 205.485 160.592C205.696 160.467 205.875 160.294 206.007 160.088C206.139 159.881 206.221 159.646 206.246 159.402C206.272 159.159 206.239 158.912 206.152 158.683C206.065 158.454 205.925 158.248 205.744 158.083C205.563 157.917 205.346 157.796 205.11 157.73C204.786 157.638 204.441 157.654 204.127 157.774C203.812 157.893 203.544 158.111 203.363 158.394C203.181 158.678 203.095 159.012 203.118 159.348C203.141 159.684 203.272 160.004 203.49 160.26Z" fill="black"/>
<path opacity="0.1" d="M192.64 158.35C192.911 158.366 193.175 158.439 193.416 158.564C193.657 158.689 193.869 158.863 194.039 159.075C194.208 159.287 194.331 159.532 194.4 159.794C194.469 160.057 194.482 160.33 194.439 160.598C194.395 160.866 194.296 161.122 194.147 161.349C193.999 161.576 193.804 161.769 193.576 161.916C193.348 162.064 193.092 162.161 192.824 162.203C192.556 162.245 192.282 162.231 192.02 162.16C191.556 162.035 191.155 161.743 190.894 161.339C190.634 160.935 190.532 160.449 190.609 159.975C190.686 159.501 190.937 159.072 191.312 158.772C191.687 158.472 192.161 158.321 192.64 158.35ZM190.96 161.25C191.1 161.413 191.272 161.545 191.464 161.64C191.657 161.734 191.866 161.789 192.08 161.8C192.493 161.861 192.912 161.756 193.247 161.507C193.582 161.259 193.804 160.888 193.865 160.475C193.926 160.063 193.821 159.643 193.572 159.308C193.324 158.974 192.953 158.751 192.54 158.69C192.333 158.632 192.117 158.617 191.904 158.644C191.691 158.672 191.486 158.742 191.3 158.85C191.109 158.972 190.945 159.134 190.819 159.323C190.693 159.512 190.609 159.726 190.57 159.95C190.537 160.182 190.554 160.419 190.622 160.643C190.689 160.868 190.805 161.075 190.96 161.25Z" fill="black"/>
<path opacity="0.1" d="M179.96 159.32C180.224 159.32 180.486 159.372 180.729 159.473C180.973 159.574 181.194 159.723 181.38 159.91C181.563 160.113 181.703 160.352 181.79 160.612C181.877 160.872 181.91 161.146 181.886 161.419C181.863 161.692 181.784 161.957 181.654 162.198C181.524 162.439 181.345 162.651 181.13 162.82C180.884 163.002 180.598 163.123 180.296 163.173C179.994 163.224 179.685 163.202 179.393 163.11C179.101 163.018 178.835 162.858 178.617 162.643C178.399 162.428 178.234 162.165 178.137 161.875C178.04 161.584 178.013 161.275 178.058 160.973C178.104 160.67 178.22 160.382 178.398 160.133C178.576 159.884 178.81 159.68 179.081 159.539C179.353 159.398 179.654 159.322 179.96 159.32ZM178.5 162.32C178.814 162.622 179.235 162.787 179.67 162.78C179.973 162.771 180.267 162.675 180.516 162.503C180.766 162.331 180.96 162.09 181.076 161.81C181.192 161.53 181.224 161.222 181.169 160.924C181.113 160.627 180.973 160.351 180.765 160.131C180.556 159.911 180.289 159.756 179.994 159.685C179.7 159.613 179.391 159.629 179.105 159.729C178.819 159.829 178.568 160.01 178.383 160.25C178.198 160.49 178.085 160.778 178.06 161.08C178.045 161.312 178.08 161.545 178.163 161.762C178.246 161.98 178.374 162.177 178.54 162.34L178.5 162.32Z" fill="black"/>
<path opacity="0.1" d="M240.82 149.3C241.084 149.32 241.34 149.393 241.575 149.513C241.811 149.633 242.02 149.798 242.19 150C242.366 150.214 242.495 150.463 242.567 150.73C242.639 150.998 242.653 151.278 242.609 151.551C242.564 151.824 242.462 152.085 242.309 152.316C242.156 152.547 241.955 152.743 241.72 152.89C241.461 153.049 241.167 153.145 240.864 153.17C240.56 153.195 240.255 153.148 239.973 153.033C239.691 152.918 239.44 152.738 239.24 152.508C239.041 152.278 238.898 152.004 238.824 151.708C238.75 151.413 238.746 151.104 238.814 150.807C238.881 150.51 239.018 150.233 239.212 149.998C239.407 149.764 239.653 149.578 239.933 149.457C240.212 149.336 240.516 149.282 240.82 149.3ZM239.14 152.2C239.334 152.427 239.589 152.595 239.874 152.682C240.16 152.769 240.465 152.772 240.753 152.691C241.04 152.61 241.298 152.448 241.496 152.224C241.695 152.001 241.824 151.725 241.87 151.43C241.915 151.136 241.876 150.836 241.757 150.563C241.638 150.291 241.445 150.058 241.198 149.891C240.952 149.725 240.664 149.632 240.367 149.623C240.07 149.613 239.776 149.689 239.52 149.84C239.328 149.959 239.162 150.118 239.037 150.307C238.911 150.495 238.827 150.709 238.791 150.933C238.755 151.157 238.767 151.386 238.828 151.604C238.888 151.823 238.995 152.026 239.14 152.2Z" fill="black"/>
<path d="M298.66 206.76C298.66 206.76 305.71 169.94 306.75 109.07C306.75 109.07 222.1 98.2802 173.36 108.38C173.36 108.38 176.09 183.31 181.11 204.87C181.11 204.87 242.41 208.09 298.66 206.76Z" fill="#37474F"/>
<path d="M173.45 110.78C173.97 123.78 176.63 185.61 181.11 204.87C181.11 204.87 240.05 207.97 295.37 206.87C296.46 200.71 302.2 166.04 303.07 112.08C303.07 112.04 221.87 101.69 173.45 110.78Z" fill="#263238"/>
<path d="M245.301 107.46L214.25 107.13C215.84 107.13 217.431 107.07 219.021 107.06C226.021 106.98 233.02 107.06 239.78 107.28C241.63 107.33 243.481 107.4 245.301 107.46Z" fill="#455A64"/>
<path d="M282.93 109.93L186.21 108.93L187.21 108.82L188.29 108.7L279.78 109.7H279.84L281.44 109.84L282.93 109.93Z" fill="#455A64"/>
<path d="M303.07 112.04V112.21L173.45 110.81L173.91 110.73C174.14 110.73 174.36 110.64 174.59 110.61L302.35 111.98L303.07 112.04Z" fill="#455A64"/>
<path d="M303.04 114.02C303.03 114.063 303.03 114.107 303.04 114.15C303.035 114.19 303.035 114.23 303.04 114.27L173.54 112.88C173.535 112.84 173.535 112.8 173.54 112.76V112.63L303.04 114.02Z" fill="#455A64"/>
<path d="M302.99 116.08V116.33L173.62 114.94V114.82C173.62 114.82 173.62 114.73 173.62 114.69L302.99 116.08Z" fill="#455A64"/>
<path d="M302.95 118.14V118.26C302.946 118.303 302.946 118.347 302.95 118.39L173.73 117C173.725 116.96 173.725 116.92 173.73 116.88C173.726 116.837 173.726 116.793 173.73 116.75L302.95 118.14Z" fill="#455A64"/>
<path d="M302.9 120.2V120.32C302.896 120.363 302.896 120.407 302.9 120.45L173.82 119.06C173.815 119.02 173.815 118.98 173.82 118.94C173.815 118.897 173.815 118.853 173.82 118.81L302.9 120.2Z" fill="#455A64"/>
<path d="M302.84 122.26V122.38C302.845 122.423 302.845 122.467 302.84 122.51L173.91 121.13C173.91 121.08 173.91 121.04 173.91 121V120.88L302.84 122.26Z" fill="#455A64"/>
<path d="M302.78 124.32V124.44C302.775 124.483 302.775 124.527 302.78 124.57L174 123.19C173.995 123.147 173.995 123.103 174 123.06C174 123.06 174 122.98 174 122.94L302.78 124.32Z" fill="#455A64"/>
<path d="M302.71 126.38V126.5C302.715 126.543 302.715 126.587 302.71 126.63L174.11 125.25C174.105 125.207 174.105 125.163 174.11 125.12C174.105 125.08 174.105 125.04 174.11 125L302.71 126.38Z" fill="#455A64"/>
<path d="M302.64 128.44V128.57C302.64 128.57 302.64 128.65 302.64 128.69L174.21 127.31C174.205 127.27 174.205 127.23 174.21 127.19C174.205 127.147 174.205 127.103 174.21 127.06L302.64 128.44Z" fill="#455A64"/>
<path d="M302.54 130.5V130.63C302.545 130.67 302.545 130.71 302.54 130.75L174.28 129.38V129.25C174.28 129.25 174.28 129.17 174.28 129.13L302.54 130.5Z" fill="#455A64"/>
<path d="M302.48 132.56V132.69C302.48 132.69 302.48 132.77 302.48 132.81L174.41 131.44C174.41 131.44 174.41 131.35 174.41 131.31C174.415 131.27 174.415 131.23 174.41 131.19L302.48 132.56Z" fill="#455A64"/>
<path d="M302.4 134.62C302.396 134.663 302.396 134.707 302.4 134.75V134.87L174.54 133.5C174.535 133.457 174.535 133.413 174.54 133.37C174.54 133.37 174.54 133.29 174.54 133.25L302.4 134.62Z" fill="#455A64"/>
<path d="M302.3 136.69V136.82C302.295 136.86 302.295 136.9 302.3 136.94L174.62 135.57V135.45C174.616 135.407 174.616 135.363 174.62 135.32L302.3 136.69Z" fill="#455A64"/>
<path d="M302.21 138.74C302.206 138.783 302.206 138.827 302.21 138.87C302.205 138.91 302.205 138.95 302.21 138.99L174.73 137.62V137.5C174.73 137.5 174.73 137.41 174.73 137.37L302.21 138.74Z" fill="#455A64"/>
<path d="M302.1 140.8V140.93C302.095 140.97 302.095 141.01 302.1 141.05L174.84 139.69C174.835 139.65 174.835 139.61 174.84 139.57C174.835 139.527 174.835 139.483 174.84 139.44L302.1 140.8Z" fill="#455A64"/>
<path d="M301.991 142.87C301.995 142.91 301.995 142.95 301.991 142.99V143.12L174.991 141.75V141.62C174.986 141.58 174.986 141.54 174.991 141.5L301.991 142.87Z" fill="#455A64"/>
<path d="M301.88 144.93C301.875 144.97 301.875 145.01 301.88 145.05V145.17L175.08 143.81C175.085 143.77 175.085 143.73 175.08 143.69V143.56L301.88 144.93Z" fill="#455A64"/>
<path d="M301.76 146.98C301.76 146.98 301.76 147.07 301.76 147.11V147.23L175.21 145.87C175.205 145.83 175.205 145.79 175.21 145.75C175.205 145.707 175.205 145.663 175.21 145.62L301.76 146.98Z" fill="#455A64"/>
<path d="M301.63 149.04C301.635 149.08 301.635 149.12 301.63 149.16V149.29L175.32 147.94V147.81C175.32 147.81 175.32 147.73 175.32 147.69L301.63 149.04Z" fill="#455A64"/>
<path d="M301.54 151.1C301.545 151.14 301.545 151.18 301.54 151.22C301.545 151.263 301.545 151.307 301.54 151.35L175.54 150C175.545 149.957 175.545 149.913 175.54 149.87C175.545 149.83 175.545 149.79 175.54 149.75L301.54 151.1Z" fill="#455A64"/>
<path d="M301.36 153.16V153.28C301.355 153.323 301.355 153.367 301.36 153.41L175.54 152.06C175.535 152.017 175.535 151.973 175.54 151.93C175.535 151.89 175.535 151.85 175.54 151.81L301.36 153.16Z" fill="#455A64"/>
<path d="M301.22 155.22C301.22 155.22 301.22 155.31 301.22 155.35C301.225 155.39 301.225 155.43 301.22 155.47L175.72 154.12C175.725 154.077 175.725 154.033 175.72 153.99V153.87L301.22 155.22Z" fill="#455A64"/>
<path d="M301.07 157.28C301.075 157.323 301.075 157.367 301.07 157.41C301.075 157.45 301.075 157.49 301.07 157.53L175.84 156.18C175.835 156.14 175.835 156.1 175.84 156.06C175.84 156.06 175.84 155.97 175.84 155.93L301.07 157.28Z" fill="#455A64"/>
<path d="M300.91 159.34V159.47C300.905 159.51 300.905 159.55 300.91 159.59L175.99 158.25C175.99 158.25 175.99 158.16 175.99 158.12C175.99 158.08 175.99 158.04 175.99 158L300.91 159.34Z" fill="#455A64"/>
<path d="M300.75 161.4C300.755 161.44 300.755 161.48 300.75 161.52C300.755 161.563 300.755 161.607 300.75 161.65L176.14 160.31C176.145 160.267 176.145 160.223 176.14 160.18V160.06L300.75 161.4Z" fill="#455A64"/>
<path d="M300.59 163.45C300.59 163.45 300.59 163.54 300.59 163.58C300.59 163.62 300.59 163.66 300.59 163.7L176.29 162.37C176.29 162.37 176.29 162.29 176.29 162.25C176.29 162.21 176.29 162.17 176.29 162.12L300.59 163.45Z" fill="#455A64"/>
<path d="M300.42 165.51C300.42 165.51 300.42 165.6 300.42 165.64C300.415 165.68 300.415 165.72 300.42 165.76L176.42 164.43C176.42 164.43 176.42 164.35 176.42 164.31C176.425 164.267 176.425 164.223 176.42 164.18L300.42 165.51Z" fill="#455A64"/>
<path d="M300.24 167.57C300.244 167.613 300.244 167.657 300.24 167.7C300.25 167.739 300.25 167.78 300.24 167.82L176.54 166.49C176.545 166.45 176.545 166.41 176.54 166.37C176.545 166.327 176.545 166.283 176.54 166.24L300.24 167.57Z" fill="#455A64"/>
<path d="M300.051 169.69C300.055 169.73 300.055 169.77 300.051 169.81C300.051 169.81 300.051 169.9 300.051 169.94L176.75 168.61C176.755 168.57 176.755 168.53 176.75 168.49C176.755 168.447 176.755 168.403 176.75 168.36L300.051 169.69Z" fill="#455A64"/>
<path d="M299.86 171.69C299.86 171.69 299.86 171.77 299.86 171.81C299.86 171.85 299.86 171.9 299.86 171.94L176.92 170.61C176.92 170.61 176.92 170.53 176.92 170.49C176.92 170.45 176.92 170.4 176.92 170.36L299.86 171.69Z" fill="#455A64"/>
<path d="M299.66 173.75C299.666 173.793 299.666 173.837 299.66 173.88C299.66 173.88 299.66 173.96 299.66 174L177.07 172.69C177.07 172.69 177.07 172.61 177.07 172.57C177.07 172.53 177.07 172.49 177.07 172.44L299.66 173.75Z" fill="#455A64"/>
<path d="M299.46 175.81C299.46 175.81 299.46 175.89 299.46 175.93C299.455 175.973 299.455 176.017 299.46 176.06L177.27 174.75C177.265 174.707 177.265 174.663 177.27 174.62C177.265 174.58 177.265 174.54 177.27 174.5L299.46 175.81Z" fill="#455A64"/>
<path d="M299.25 177.87C299.25 177.87 299.25 177.95 299.25 177.99C299.25 178.03 299.25 178.08 299.25 178.12L177.45 176.81C177.455 176.767 177.455 176.723 177.45 176.68C177.455 176.64 177.455 176.6 177.45 176.56L299.25 177.87Z" fill="#455A64"/>
<path d="M299.02 179.93C299.025 179.97 299.025 180.01 299.02 180.05C299.02 180.05 299.02 180.14 299.02 180.18L177.63 178.88C177.636 178.837 177.636 178.793 177.63 178.75C177.63 178.75 177.63 178.67 177.63 178.63L299.02 179.93Z" fill="#455A64"/>
<path d="M298.8 181.99C298.8 181.99 298.8 182.08 298.8 182.12C298.8 182.16 298.8 182.2 298.8 182.24L177.8 180.94C177.8 180.94 177.8 180.85 177.8 180.81C177.805 180.77 177.805 180.73 177.8 180.69L298.8 181.99Z" fill="#455A64"/>
<path d="M298.54 184.05C298.545 184.09 298.545 184.13 298.54 184.17C298.546 184.213 298.546 184.257 298.54 184.3L178.021 183C178.021 183 178.021 182.92 178.021 182.87C178.021 182.82 178.021 182.79 178.021 182.75L298.54 184.05Z" fill="#455A64"/>
<path d="M298.33 186.1C298.33 186.1 298.33 186.19 298.33 186.23C298.33 186.27 298.33 186.31 298.33 186.35L178.26 185.06C178.255 185.02 178.255 184.98 178.26 184.94C178.255 184.897 178.255 184.853 178.26 184.81L298.33 186.1Z" fill="#455A64"/>
<path d="M298.08 188.16C298.08 188.16 298.08 188.25 298.08 188.29C298.085 188.33 298.085 188.37 298.08 188.41L178.49 187.13C178.485 187.087 178.485 187.043 178.49 187C178.486 186.96 178.486 186.92 178.49 186.88L298.08 188.16Z" fill="#455A64"/>
<path d="M297.82 190.22C297.82 190.22 297.82 190.31 297.82 190.35C297.825 190.39 297.825 190.43 297.82 190.47L178.72 189.19C178.715 189.15 178.715 189.11 178.72 189.07C178.715 189.027 178.715 188.983 178.72 188.94L297.82 190.22Z" fill="#455A64"/>
<path d="M297.54 192.28C297.536 192.323 297.536 192.367 297.54 192.41C297.54 192.41 297.54 192.49 297.54 192.53L178.94 191.25C178.94 191.25 178.94 191.17 178.94 191.13C178.94 191.09 178.94 191.05 178.94 191L297.54 192.28Z" fill="#455A64"/>
<path d="M297.28 194.33C297.28 194.33 297.28 194.42 297.28 194.46C297.28 194.5 297.28 194.54 297.28 194.58L179.21 193.32C179.205 193.277 179.205 193.233 179.21 193.19C179.205 193.147 179.205 193.103 179.21 193.06L297.28 194.33Z" fill="#455A64"/>
<path d="M296.99 196.4C296.99 196.4 296.99 196.48 296.99 196.52C296.986 196.563 296.986 196.607 296.99 196.65L179.49 195.38C179.486 195.34 179.486 195.3 179.49 195.26C179.49 195.26 179.49 195.17 179.49 195.13L296.99 196.4Z" fill="#455A64"/>
<path d="M296.7 198.46C296.7 198.46 296.7 198.54 296.7 198.58C296.7 198.62 296.7 198.66 296.7 198.7L179.8 197.44C179.799 197.357 179.799 197.273 179.8 197.19L296.7 198.46Z" fill="#455A64"/>
<path d="M296.4 200.51C296.396 200.55 296.396 200.59 296.4 200.63C296.396 200.673 296.396 200.717 296.4 200.76L180.11 199.51C180.115 199.47 180.115 199.43 180.11 199.39C180.114 199.347 180.114 199.303 180.11 199.26L296.4 200.51Z" fill="#455A64"/>
<path d="M296.08 202.57C296.075 202.61 296.075 202.65 296.08 202.69C296.075 202.733 296.075 202.777 296.08 202.82L180.47 201.58C180.475 201.537 180.475 201.493 180.47 201.45C180.47 201.45 180.47 201.37 180.47 201.33L296.08 202.57Z" fill="#455A64"/>
<path d="M295.74 204.63C295.739 204.713 295.739 204.797 295.74 204.88L180.84 203.69V203.56C180.835 203.52 180.835 203.48 180.84 203.44L295.74 204.63Z" fill="#455A64"/>
<path d="M295.39 206.69C295.395 206.73 295.395 206.77 295.39 206.81L291.85 206.88L208.85 205.98L203.51 205.8H203.42L198.82 205.63L295.39 206.69Z" fill="#455A64"/>
<path d="M231.29 168.27C231.122 170.62 231.748 172.959 233.07 174.91C233.776 175.941 234.728 176.779 235.84 177.35C236.969 177.903 238.203 178.207 239.46 178.24C240.739 178.294 242.008 177.99 243.123 177.361C244.239 176.732 245.155 175.803 245.77 174.68C246.925 172.642 247.438 170.303 247.24 167.97C246.672 170.063 245.734 172.037 244.47 173.8C243.903 174.588 243.15 175.224 242.278 175.65C241.405 176.076 240.44 176.278 239.47 176.24C238.486 176.246 237.511 176.044 236.61 175.648C235.709 175.251 234.901 174.669 234.24 173.94C232.853 172.289 231.846 170.353 231.29 168.27Z" fill="#7A1CAC"/>
<path d="M274.32 164.86C280.71 164.75 280.45 177.53 274.53 177.63C268.61 177.73 268.97 164.95 274.32 164.86Z" fill="#7A1CAC"/>
<path d="M202.12 164.01C208.5 163.9 208.25 176.68 202.33 176.78C196.41 176.88 196.76 164.1 202.12 164.01Z" fill="#7A1CAC"/>
<path d="M182.92 164.96C180.427 148.95 179.173 132.772 179.17 116.57V114.97C187.888 112.972 196.754 111.685 205.68 111.12C214.034 110.53 222.42 110.55 230.77 111.18C214.4 113.18 197.77 114.84 181.68 118.5L183.19 116.56C183.19 120.56 183.19 124.56 183.24 128.63C183.24 140.74 183.38 152.85 182.94 164.96H182.92Z" fill="#455A64"/>
<path d="M241.8 391.85C241.8 391.85 247.4 394.91 260.53 394.37C273.66 393.83 278.98 390.37 278.98 390.37C278.98 390.37 275.2 342.94 267.98 320.74C265.37 312.74 262.98 305.6 255.33 305.91C246.43 306.27 245.24 313.44 243.94 321.73C240.67 342.12 241.8 391.85 241.8 391.85Z" fill="#7A1CAC"/>
<path d="M257.957 397.988L268.778 397.543L267.964 377.69L257.143 378.134L257.957 397.988Z" fill="#37474F"/>
<path opacity="0.1" d="M241.79 391.85C241.79 391.85 247.4 394.91 260.54 394.37C273.68 393.83 278.98 390.37 278.98 390.37C278.98 390.37 278.88 388.12 278.67 384.37C273.876 381.421 268.288 380.024 262.67 380.37C258.637 380.427 254.669 381.392 251.061 383.194C247.453 384.997 244.297 387.59 241.83 390.78C241.82 391.47 241.79 391.85 241.79 391.85Z" fill="black"/>
<path d="M234.021 406.53H297.29C297.29 406.53 293.29 383.19 268 384.08C260.784 384.185 253.748 386.356 247.726 390.334C241.705 394.313 236.948 399.933 234.021 406.53Z" fill="#7A1CAC"/>
<path d="M237.72 399.37C237.72 403.32 240.53 406.53 243.99 406.53C247.45 406.53 250.26 403.32 250.26 399.37C250.26 395.42 247.45 392.21 243.99 392.21C240.53 392.21 237.72 395.41 237.72 399.37Z" fill="#7A1CAC"/>
<path opacity="0.1" d="M237.72 399.37C237.72 403.32 240.53 406.53 243.99 406.53C247.45 406.53 250.26 403.32 250.26 399.37C250.26 395.42 247.45 392.21 243.99 392.21C240.53 392.21 237.72 395.41 237.72 399.37Z" fill="black"/>
<path d="M234.73 391.85C234.73 391.85 229.13 394.91 215.99 394.37C202.85 393.83 197.54 390.37 197.54 390.37C197.54 390.37 201.32 342.94 208.54 320.74C211.14 312.74 213.54 305.6 221.19 305.91C230.09 306.27 231.27 313.44 232.58 321.73C235.86 342.12 234.73 391.85 234.73 391.85Z" fill="#7A1CAC"/>
<path d="M219.305 378.129L208.484 377.685L207.67 397.538L218.491 397.982L219.305 378.129Z" fill="#37474F"/>
<path opacity="0.1" d="M234.73 391.85C234.73 391.85 229.13 394.91 215.99 394.37C202.85 393.83 197.55 390.37 197.55 390.37C197.55 390.37 197.65 388.12 197.85 384.37C202.645 381.422 208.232 380.025 213.85 380.37C217.882 380.425 221.849 381.39 225.456 383.192C229.063 384.995 232.216 387.588 234.68 390.78C234.71 391.47 234.73 391.85 234.73 391.85Z" fill="black"/>
<path d="M242.54 406.53H179.23C179.23 406.53 183.23 383.19 208.53 384.08C215.752 384.18 222.794 386.347 228.822 390.326C234.85 394.305 239.61 399.928 242.54 406.53Z" fill="#7A1CAC"/>
<path d="M238.81 399.37C238.81 403.32 236 406.53 232.53 406.53C229.06 406.53 226.26 403.32 226.26 399.37C226.26 395.42 229.07 392.21 232.53 392.21C235.99 392.21 238.81 395.41 238.81 399.37Z" fill="#7A1CAC"/>
<path opacity="0.1" d="M238.81 399.37C238.81 403.32 236 406.53 232.53 406.53C229.06 406.53 226.26 403.32 226.26 399.37C226.26 395.42 229.07 392.21 232.53 392.21C235.99 392.21 238.81 395.41 238.81 399.37Z" fill="black"/>
<path d="M199.72 310.44C200.15 310.58 202.58 319.09 202.61 319.79C202.277 321.38 201.386 322.798 200.1 323.79C198.53 324.97 195.61 325.33 195.1 324.97C194.59 324.61 190.6 316.77 190.58 315.83C190.56 314.89 195.36 308.95 199.72 310.44Z" fill="#37474F"/>
<path d="M190.54 315.82C190.54 316.75 194.54 324.6 195.06 324.96C195.327 325.079 195.619 325.127 195.91 325.1C195.11 322.33 193.84 317.81 193.73 316.86C193.58 315.54 195.44 312.15 196.94 310.37C193.54 311.23 190.54 315.08 190.54 315.82Z" fill="#263238"/>
<path d="M183.96 325.5C183.33 326.62 180.34 327.04 177.49 326.02C176.22 325.57 173.56 319.36 173.43 317.26C173.271 314.262 173.271 311.258 173.43 308.26C173.61 307.68 181.14 309.98 181.55 310.61C181.96 311.24 181.55 317.81 182.27 320.36C182.99 322.91 184.18 325.11 183.96 325.5Z" fill="#37474F"/>
<path d="M175.73 308.47C177.42 310.29 177.88 314.47 178.29 315.93C178.65 317.23 181.7 323.49 183.05 326.21C183.424 326.08 183.744 325.83 183.96 325.5C184.18 325.11 183.06 322.88 182.31 320.32C181.56 317.76 182 311.2 181.59 310.57C181.32 310.16 178.04 309.04 175.73 308.47Z" fill="#263238"/>
<path d="M191.54 313.89C192.03 314.18 195.34 324.82 195.3 325.37C195.19 326.72 192.3 328.88 190.73 329.22C189.16 329.56 184.88 327.72 184.47 327.39C183.151 325.361 181.975 323.242 180.95 321.05C180.373 318.005 180.039 314.918 179.95 311.82C180.1 311.6 190.94 313.54 191.54 313.89Z" fill="#37474F"/>
<path d="M171.87 299.25C171.92 300.72 173.2 312.82 174.38 314.06C175.56 315.3 180.45 317.35 184.16 317.9C189.07 318.64 195.75 316.78 198.34 314.79C200.93 312.8 202.51 298.79 201.78 298.12C201.05 297.45 193.04 293.58 187.18 293.58C180.3 293.58 171.82 297.92 171.87 299.25Z" fill="#37474F"/>
<path d="M174.01 312.93C175.851 313.862 177.752 314.67 179.7 315.35C181.621 316.064 183.651 316.443 185.7 316.47C187.762 316.415 189.811 316.134 191.81 315.63C193.814 315.142 195.787 314.538 197.72 313.82C195.804 314.596 193.836 315.238 191.83 315.74C189.826 316.262 187.77 316.56 185.7 316.63C183.624 316.591 181.57 316.192 179.63 315.45C177.691 314.767 175.811 313.924 174.01 312.93Z" fill="#263238"/>
<path d="M173.74 311.32C175.657 312.296 177.639 313.142 179.67 313.85C181.684 314.6 183.812 314.995 185.96 315.02C188.11 314.962 190.246 314.667 192.33 314.14C194.423 313.634 196.483 313.003 198.5 312.25C196.505 313.066 194.453 313.734 192.36 314.25C190.272 314.799 188.128 315.111 185.97 315.18C183.804 315.145 181.662 314.728 179.64 313.95C177.605 313.236 175.632 312.356 173.74 311.32Z" fill="#263238"/>
<path d="M173.54 309.82C175.528 310.832 177.583 311.708 179.69 312.44C181.776 313.222 183.982 313.635 186.21 313.66C188.434 313.598 190.644 313.29 192.8 312.74C194.966 312.214 197.1 311.563 199.19 310.79C197.121 311.625 194.996 312.313 192.83 312.85C190.667 313.427 188.447 313.763 186.21 313.85C183.966 313.806 181.746 313.373 179.65 312.57C177.54 311.825 175.497 310.905 173.54 309.82Z" fill="#263238"/>
<path d="M173.71 308.45C175.698 309.463 177.753 310.338 179.86 311.07C181.948 311.845 184.154 312.254 186.38 312.28C188.604 312.222 190.814 311.917 192.97 311.37C195.136 310.845 197.27 310.194 199.36 309.42C197.292 310.256 195.166 310.945 193 311.48C190.837 312.053 188.617 312.388 186.38 312.48C184.136 312.437 181.916 312.004 179.82 311.2C177.712 310.451 175.669 309.531 173.71 308.45Z" fill="#263238"/>
<path d="M173.54 306.85C175.596 307.9 177.721 308.809 179.9 309.57C182.061 310.375 184.344 310.801 186.65 310.83C188.955 310.768 191.246 310.45 193.48 309.88C195.721 309.344 197.928 308.676 200.09 307.88C197.95 308.746 195.751 309.457 193.51 310.01C191.267 310.592 188.966 310.928 186.65 311.01C184.331 310.964 182.037 310.518 179.87 309.69C177.685 308.921 175.567 307.971 173.54 306.85Z" fill="#263238"/>
<path d="M173.13 305.11C175.238 306.193 177.42 307.126 179.66 307.9C181.878 308.729 184.223 309.165 186.59 309.19C188.953 309.116 191.301 308.781 193.59 308.19C195.892 307.624 198.159 306.926 200.38 306.1C198.179 306.99 195.916 307.722 193.61 308.29C191.321 308.88 188.973 309.215 186.61 309.29C184.215 309.25 181.846 308.789 179.61 307.93C177.376 307.172 175.208 306.228 173.13 305.11Z" fill="#263238"/>
<path d="M172.85 303.45C175.041 304.572 177.306 305.541 179.63 306.35C181.934 307.212 184.37 307.665 186.83 307.69C189.286 307.627 191.728 307.292 194.11 306.69C196.501 306.108 198.855 305.383 201.16 304.52C198.885 305.445 196.545 306.204 194.16 306.79C191.77 307.415 189.319 307.774 186.85 307.86C184.374 307.809 181.925 307.332 179.61 306.45C177.278 305.639 175.017 304.635 172.85 303.45Z" fill="#263238"/>
<path d="M172.46 301.86C174.722 303.021 177.06 304.023 179.46 304.86C181.826 305.74 184.326 306.207 186.85 306.24C189.373 306.187 191.882 305.851 194.33 305.24C196.791 304.647 199.212 303.902 201.58 303.01C199.233 303.963 196.82 304.745 194.36 305.35C191.905 305.987 189.386 306.353 186.85 306.44C184.309 306.394 181.795 305.907 179.42 305C177.019 304.143 174.692 303.093 172.46 301.86Z" fill="#263238"/>
<path d="M197.11 232.21C195.7 239.31 197.81 246.36 201.83 247.98C205.85 249.6 210.25 245.15 211.66 238.06C213.07 230.97 210.96 223.91 206.94 222.29C202.92 220.67 198.54 225.12 197.11 232.21Z" fill="#37474F"/>
<path d="M197.24 232.26C196.04 238.26 197.83 244.2 201.24 245.56L201.43 245.63C204.78 246.79 208.37 243.07 209.54 237.19C210.54 231.9 209.31 226.62 206.64 224.53C206.307 224.271 205.941 224.059 205.55 223.9C202.14 222.54 198.42 226.28 197.24 232.26Z" fill="#455A64"/>
<path d="M198.54 232.95C197.49 238.25 198.77 243.54 201.43 245.63C204.78 246.79 208.37 243.07 209.54 237.19C210.54 231.9 209.31 226.62 206.64 224.53C203.27 223.37 199.68 227.09 198.54 232.95Z" fill="#263238"/>
<path d="M201.54 230.25L205.26 231.37C205.64 231.48 206.15 233.32 205.88 235.26C205.61 237.2 204.66 238.5 204.28 238.39L200.54 237.27L201.54 230.25Z" fill="#37474F"/>
<path d="M201.54 230.25C200.87 230.06 200.11 231.47 199.83 233.41C199.55 235.35 199.88 237.08 200.55 237.27C201.22 237.46 201.98 236.05 202.25 234.11C202.52 232.17 202.19 230.44 201.54 230.25Z" fill="#455A64"/>
<path d="M202.34 307.79C202.34 307.79 191.63 311.72 182.29 309.13C171.53 306.13 169.29 300.64 169.29 300.64C169.29 300.64 182.54 247.77 192.54 233.69C196.11 228.64 200.45 222.28 204.68 225.99C206.9 227.93 208.77 240.74 207.89 246.86C205.7 261.98 202.34 307.79 202.34 307.79Z" fill="#7A1CAC"/>
<path d="M198.14 273.44C198.14 273.44 185.57 272.17 178.66 267.44L176.74 273.87C176.74 273.87 184.06 278.41 197.44 279.8L198.14 273.44Z" fill="#263238"/>
<path d="M199.54 287.34C203.67 287.76 207.47 283.64 208.02 278.11C208.52 273.22 206.35 268.86 203.02 267.55C202.551 267.368 202.06 267.247 201.56 267.19C197.41 266.73 193.56 270.86 193.01 276.42C192.46 281.98 195.37 286.88 199.54 287.34Z" fill="#263238"/>
<path d="M199.54 287.35C203.67 287.77 207.47 283.65 208.02 278.12C208.52 273.23 206.35 268.87 203.02 267.56C198.89 267.14 195.1 271.27 194.54 276.8C194.05 281.69 196.23 286.04 199.54 287.35Z" fill="#37474F"/>
<path d="M282.16 232.21C283.57 239.31 281.46 246.36 277.44 247.98C273.42 249.6 269.02 245.15 267.61 238.06C266.2 230.97 268.31 223.91 272.33 222.29C276.35 220.67 280.75 225.12 282.16 232.21Z" fill="#37474F"/>
<path d="M282.03 232.26C283.23 238.26 281.44 244.2 278.03 245.56L277.84 245.63C274.49 246.79 270.9 243.07 269.73 237.19C268.68 231.9 269.96 226.62 272.63 224.53C272.963 224.271 273.33 224.059 273.72 223.9C277.13 222.54 280.85 226.28 282.03 232.26Z" fill="#455A64"/>
<path d="M280.76 232.95C281.76 238.25 280.53 243.54 277.87 245.63C274.52 246.79 270.93 243.07 269.76 237.19C268.71 231.9 269.99 226.62 272.66 224.53C276 223.37 279.59 227.09 280.76 232.95Z" fill="#263238"/>
<path d="M277.75 230.25L274.02 231.37C273.64 231.48 273.13 233.32 273.4 235.26C273.67 237.2 274.62 238.5 275 238.39L278.73 237.27L277.75 230.25Z" fill="#37474F"/>
<path d="M277.75 230.25C278.41 230.06 279.17 231.47 279.45 233.41C279.73 235.35 279.4 237.08 278.73 237.27C278.06 237.46 277.3 236.05 277.03 234.11C276.76 232.17 277.08 230.44 277.75 230.25Z" fill="#455A64"/>
<path d="M305.46 271.69C293.77 262.05 282.65 252.28 278.29 247.69C273.74 242.94 270.11 232.16 270.82 229.11C272.19 223.29 279.82 226.11 286.07 228.26C293.76 230.93 306.77 239.82 318.85 248.87C317.76 259.1 314.54 267.76 305.46 271.69Z" fill="#7A1CAC"/>
<path d="M343.61 236.07C344.04 236.19 350.86 230.55 351.27 229.99C351.904 228.492 351.971 226.814 351.46 225.27C350.84 223.42 348.63 221.47 347.98 221.46C347.33 221.45 339.63 225.68 339.09 226.46C338.55 227.24 339.17 234.83 343.61 236.07Z" fill="#37474F"/>
<path d="M339.09 226.45C339.63 225.68 347.33 221.45 347.98 221.45C348.267 221.506 348.535 221.633 348.76 221.82C346.54 223.69 342.94 226.69 342.31 227.39C341.44 228.39 341.06 232.25 341.31 234.56C338.96 231.92 338.66 227.05 339.09 226.45Z" fill="#263238"/>
<path d="M341.05 207.58C340.83 206.31 338.16 204.9 335.13 204.9C333.78 204.9 329.19 209.84 328.35 211.78C327.201 214.565 326.2 217.409 325.35 220.3C325.35 220.91 333.19 221.3 333.79 220.83C334.39 220.36 336.2 214.05 337.79 211.89C339.38 209.73 341.12 208.02 341.05 207.58Z" fill="#37474F"/>
<path d="M327.54 220.83C329.74 219.68 331.54 215.92 332.47 214.67C333.24 213.57 338.23 208.67 340.42 206.6C340.729 206.858 340.947 207.208 341.04 207.6C341.11 208.05 339.3 209.77 337.73 211.92C336.16 214.07 334.36 220.4 333.73 220.86C333.38 221.12 329.91 221.07 327.54 220.83Z" fill="#263238"/>
<path d="M340.46 227.18C341.03 227.13 348.61 218.96 348.8 218.44C349.29 217.18 347.64 213.99 346.34 213C345.04 212.01 340.41 211.83 339.9 211.95C337.839 213.212 335.867 214.615 334 216.15C332.153 218.64 330.511 221.275 329.09 224.03C329.17 224.32 339.79 227.25 340.46 227.18Z" fill="#37474F"/>
<path d="M314.96 225.29C316.06 224.29 325.66 216.84 327.37 216.83C329.08 216.82 333.95 218.92 336.92 221.21C340.86 224.21 344.15 230.34 344.52 233.58C344.89 236.82 335.87 247.71 334.9 247.58C333.93 247.45 325.56 244.44 321.5 240.22C316.72 235.3 313.97 226.18 314.96 225.29Z" fill="#37474F"/>
<path d="M326.3 217.35C328.248 218.03 330.149 218.839 331.99 219.77C333.852 220.661 335.544 221.869 336.99 223.34C338.38 224.869 339.597 226.546 340.62 228.34C341.656 230.126 342.591 231.969 343.42 233.86C342.653 231.94 341.747 230.079 340.71 228.29C339.695 226.498 338.488 224.821 337.11 223.29C335.641 221.806 333.926 220.588 332.04 219.69C330.194 218.755 328.274 217.973 326.3 217.35Z" fill="#263238"/>
<path d="M324.95 218.27C326.987 218.969 328.972 219.811 330.89 220.79C332.829 221.719 334.592 222.978 336.1 224.51C337.553 226.095 338.821 227.839 339.88 229.71C340.968 231.566 341.943 233.486 342.8 235.46C342 233.458 341.058 231.517 339.98 229.65C338.926 227.766 337.665 226.005 336.22 224.4C334.688 222.867 332.901 221.612 330.94 220.69C329.013 219.72 327.01 218.911 324.95 218.27Z" fill="#263238"/>
<path d="M323.72 219.15C325.83 219.872 327.885 220.744 329.87 221.76C331.877 222.719 333.702 224.022 335.26 225.61C336.762 227.253 338.076 229.057 339.18 230.99C340.3 232.928 341.302 234.931 342.18 236.99C341.353 234.922 340.377 232.917 339.26 230.99C338.165 229.038 336.857 227.214 335.36 225.55C333.777 223.962 331.93 222.663 329.9 221.71C327.914 220.687 325.847 219.831 323.72 219.15Z" fill="#263238"/>
<path d="M322.87 220.24C324.977 220.97 327.031 221.842 329.02 222.85C331.025 223.813 332.849 225.115 334.41 226.7C335.913 228.346 337.227 230.153 338.33 232.09C339.452 234.026 340.454 236.03 341.33 238.09C340.502 236.022 339.526 234.017 338.41 232.09C337.312 230.14 336.005 228.315 334.51 226.65C332.925 225.065 331.078 223.766 329.05 222.81C327.062 221.791 324.995 220.931 322.87 220.24Z" fill="#263238"/>
<path d="M321.54 221.19C323.725 221.936 325.854 222.839 327.91 223.89C329.992 224.887 331.884 226.241 333.5 227.89C335.054 229.592 336.415 231.46 337.56 233.46C338.719 235.454 339.761 237.514 340.68 239.63C339.83 237.488 338.827 235.409 337.68 233.41C336.56 231.387 335.219 229.496 333.68 227.77C332.038 226.12 330.123 224.767 328.02 223.77C325.935 222.732 323.768 221.869 321.54 221.19Z" fill="#263238"/>
<path d="M320.06 222.13C322.301 222.905 324.487 223.834 326.6 224.91C328.735 225.932 330.677 227.315 332.34 229C333.942 230.739 335.35 232.647 336.54 234.69C337.732 236.738 338.8 238.855 339.74 241.03C338.856 238.826 337.816 236.687 336.63 234.63C335.464 232.559 334.076 230.621 332.49 228.85C330.803 227.165 328.837 225.785 326.68 224.77C324.547 223.716 322.333 222.833 320.06 222.13Z" fill="#263238"/>
<path d="M318.67 223.08C320.998 223.88 323.267 224.842 325.46 225.96C327.693 227.016 329.723 228.454 331.46 230.21C333.121 232.044 334.574 234.056 335.79 236.21C337.025 238.338 338.137 240.535 339.12 242.79C338.196 240.504 337.114 238.285 335.88 236.15C334.674 233.997 333.231 231.985 331.58 230.15C329.84 228.401 327.81 226.966 325.58 225.91C323.358 224.779 321.047 223.833 318.67 223.08Z" fill="#263238"/>
<path d="M317.25 223.91C319.649 224.731 321.988 225.716 324.25 226.86C326.526 227.955 328.596 229.433 330.37 231.23C332.077 233.094 333.57 235.144 334.82 237.34C336.089 239.526 337.231 241.783 338.241 244.1C337.291 241.755 336.178 239.48 334.91 237.29C333.675 235.073 332.192 233.003 330.491 231.12C328.697 229.319 326.602 227.847 324.301 226.77C322.034 225.624 319.675 224.667 317.25 223.91Z" fill="#263238"/>
<path d="M296.81 252.29C305.28 236.72 314.18 222.47 314.18 222.47C314.18 222.47 319.7 220.26 329.31 225.94C337.66 230.88 342.25 241.32 342.25 241.32C342.25 241.32 330.69 257.72 316.15 269.04C300.14 266.99 301.4 260.92 296.81 252.29Z" fill="#7A1CAC"/>
<path d="M304.31 262.4C304.31 262.4 306.31 245.66 303.25 237.86L305.35 237.74C305.35 237.74 312.351 249.82 310.681 263.17L304.31 262.4Z" fill="#263238"/>
<path d="M317.54 266.91C317.02 271.03 312.15 273.79 306.63 273.07C301.76 272.45 298.01 269.35 297.5 265.78C297.43 265.282 297.43 264.777 297.5 264.28C297.99 260.13 302.88 257.34 308.43 258.05C313.98 258.76 318.04 262.75 317.54 266.91Z" fill="#263238"/>
<path d="M317.54 266.96C317.02 271.08 312.15 273.84 306.63 273.12C301.76 272.5 298.01 269.4 297.5 265.83C298.03 261.72 302.901 258.96 308.421 259.66C313.271 260.29 317.02 263.4 317.54 266.96Z" fill="#37474F"/>
<path d="M382.52 85.73V127.58H388.39V137.73L398.54 127.58H454.25V85.73H382.52Z" fill="white"/>
<path d="M382.52 85.7299L382.82 127.58L382.52 127.28H388.39H388.72V127.61V137.76L388.08 137.5L398.19 127.31C398.38 126.96 453.88 127.23 454.19 127.12L453.7 127.61L453.76 85.7599L454.19 86.1899L382.46 85.7599L382.52 85.7299ZM382.52 85.7299C383.11 85.8899 454.15 85.1899 454.67 85.2999V85.7299L454.74 127.58V128.07H454.25C454.32 127.9 397.45 128.27 398.84 127.88L388.66 138L388.02 138.63V137.74L388.07 127.59L388.39 127.91H382.52H382.22V127.61L382.52 85.7599V85.7299Z" fill="#263238"/>
<path d="M431.94 106.66C431.94 107.332 432.14 107.99 432.513 108.549C432.887 109.108 433.418 109.544 434.039 109.801C434.661 110.058 435.344 110.126 436.004 109.994C436.663 109.863 437.269 109.539 437.745 109.064C438.22 108.588 438.544 107.983 438.675 107.323C438.806 106.664 438.739 105.98 438.482 105.359C438.224 104.737 437.788 104.206 437.229 103.833C436.67 103.459 436.013 103.26 435.34 103.26C434.894 103.26 434.452 103.348 434.039 103.519C433.627 103.689 433.252 103.94 432.936 104.256C432.621 104.571 432.37 104.946 432.199 105.359C432.028 105.771 431.94 106.213 431.94 106.66Z" fill="#263238"/>
<path d="M415 106.66C415 107.332 415.199 107.99 415.573 108.549C415.947 109.108 416.478 109.544 417.099 109.801C417.72 110.058 418.404 110.126 419.063 109.994C419.723 109.863 420.329 109.539 420.804 109.064C421.28 108.588 421.603 107.983 421.735 107.323C421.866 106.664 421.799 105.98 421.541 105.359C421.284 104.737 420.848 104.206 420.289 103.833C419.73 103.459 419.072 103.26 418.4 103.26C417.953 103.26 417.511 103.348 417.099 103.519C416.686 103.689 416.312 103.94 415.996 104.256C415.68 104.571 415.43 104.946 415.259 105.359C415.088 105.771 415 106.213 415 106.66Z" fill="#263238"/>
<path d="M398 106.66C398 107.332 398.199 107.99 398.573 108.549C398.947 109.108 399.478 109.544 400.099 109.801C400.72 110.058 401.404 110.126 402.063 109.994C402.723 109.863 403.329 109.539 403.804 109.064C404.28 108.588 404.603 107.983 404.735 107.323C404.866 106.664 404.799 105.98 404.541 105.359C404.284 104.737 403.848 104.206 403.289 103.833C402.73 103.459 402.072 103.26 401.4 103.26C400.953 103.26 400.511 103.348 400.099 103.519C399.686 103.689 399.312 103.94 398.996 104.256C398.68 104.571 398.43 104.946 398.259 105.359C398.088 105.771 398 106.213 398 106.66Z" fill="#263238"/>
</svg>
