<svg width="600" height="600" viewBox="0 0 600 600" fill="none" xmlns="http://www.w3.org/2000/svg">
<g opacity="0.5">
<path d="M488.029 370.442C484.255 358.043 475.273 279.289 465.111 268.553C461.622 264.867 458.35 262.271 455.541 260.424C445.639 216.277 430.5 185.019 422.307 166.044C411.532 141.09 378.328 115.74 340.515 103.56C340.121 102.635 338.017 99.4607 326.889 93.9875C324.541 92.8331 320.518 87.0599 314.817 80.1335C309.117 73.2059 311.799 64.5479 295.703 63.9695H292.102C276.006 64.5467 278.689 73.2059 272.988 80.1335C267.288 87.0611 263.263 92.8331 260.916 93.9875C249.787 99.4619 247.685 102.635 247.29 103.56C209.477 115.739 176.273 141.09 165.498 166.044C157.305 185.019 142.165 216.277 132.264 260.424C129.455 262.271 126.183 264.867 122.694 268.553C112.531 279.289 103.549 358.043 99.7755 370.442C96.0015 382.842 94.3851 394.163 112.714 401.171C117.559 403.023 121.839 401.522 125.513 398.312C125.713 400.117 125.923 401.93 126.147 403.755C140.062 517.271 269.511 525.933 292.205 526.578V526.628C292.205 526.628 292.795 526.634 293.902 526.616C295.008 526.634 295.597 526.628 295.597 526.628V526.578C318.292 525.932 447.741 517.271 461.656 403.755C461.879 401.93 462.089 400.117 462.289 398.312C465.965 401.521 470.244 403.022 475.089 401.171C493.419 394.163 491.801 382.841 488.027 370.442H488.029Z" fill="#F5F5F5"/>
<path d="M48.167 438.931V464.216L70.0634 476.858L91.961 464.216V438.931L70.0634 426.289L48.167 438.931Z" fill="#FAFAFA"/>
<path d="M70.0634 477.308C69.9854 477.308 69.9086 477.288 69.8378 477.248L47.9414 464.606C47.8022 464.526 47.7158 464.377 47.7158 464.216V438.932C47.7158 438.771 47.801 438.623 47.9414 438.542L69.8378 425.9C69.977 425.821 70.1486 425.821 70.2878 425.9L92.1854 438.542C92.3246 438.623 92.411 438.771 92.411 438.932V464.216C92.411 464.377 92.3258 464.526 92.1854 464.606L70.2878 477.248C70.2182 477.288 70.1402 477.308 70.0622 477.308H70.0634ZM48.617 463.956L70.0634 476.339L91.511 463.956V439.191L70.0634 426.809L48.617 439.191V463.956Z" fill="#F0F0F0"/>
<path d="M91.9614 438.931V464.216L113.858 476.858L135.755 464.216V438.931L113.858 426.289L91.9614 438.931Z" fill="#FAFAFA"/>
<path d="M113.858 477.308C113.78 477.308 113.703 477.288 113.632 477.248L91.7344 464.606C91.5952 464.526 91.5088 464.377 91.5088 464.216V438.932C91.5088 438.771 91.594 438.623 91.7344 438.542L113.632 425.9C113.771 425.821 113.943 425.821 114.082 425.9L135.978 438.542C136.118 438.623 136.204 438.771 136.204 438.932V464.216C136.204 464.377 136.119 464.526 135.978 464.606L114.082 477.248C114.012 477.288 113.936 477.308 113.858 477.308ZM92.41 463.956L113.858 476.339L135.304 463.956V439.191L113.858 426.809L92.41 439.191V463.956Z" fill="#F0F0F0"/>
<path d="M136.055 438.931V464.216L157.953 476.858L179.849 464.216V438.931L157.953 426.289L136.055 438.931Z" fill="#FAFAFA"/>
<path d="M157.953 477.308C157.875 477.308 157.798 477.288 157.727 477.248L135.83 464.606C135.69 464.526 135.604 464.377 135.604 464.216V438.932C135.604 438.771 135.689 438.623 135.83 438.542L157.727 425.9C157.866 425.821 158.038 425.821 158.177 425.9L180.075 438.542C180.214 438.623 180.3 438.771 180.3 438.932V464.216C180.3 464.377 180.215 464.526 180.075 464.606L158.177 477.248C158.108 477.288 158.031 477.308 157.953 477.308ZM136.505 463.956L157.953 476.339L179.4 463.956V439.191L157.953 426.809L136.505 439.191V463.956Z" fill="#F0F0F0"/>
<path d="M179.849 438.931V464.216L201.747 476.858L223.643 464.216V438.931L201.747 426.289L179.849 438.931Z" fill="#FAFAFA"/>
<path d="M201.747 477.308C201.669 477.308 201.592 477.288 201.521 477.248L179.625 464.606C179.485 464.526 179.399 464.377 179.399 464.216V438.932C179.399 438.771 179.484 438.623 179.625 438.542L201.521 425.9C201.66 425.821 201.832 425.821 201.971 425.9L223.869 438.542C224.008 438.623 224.094 438.771 224.094 438.932V464.216C224.094 464.377 224.009 464.526 223.869 464.606L201.971 477.248C201.901 477.288 201.825 477.308 201.747 477.308ZM180.3 463.956L201.747 476.339L223.194 463.956V439.191L201.747 426.809L180.3 439.191V463.956Z" fill="#F0F0F0"/>
<path d="M114.159 400.861V426.146L136.055 438.788L157.953 426.146V400.861L136.055 388.219L114.159 400.861Z" fill="#FAFAFA"/>
<path d="M136.055 439.238C135.977 439.238 135.9 439.218 135.83 439.178L113.933 426.536C113.794 426.456 113.708 426.307 113.708 426.146V400.862C113.708 400.701 113.793 400.553 113.933 400.472L135.83 387.83C135.969 387.751 136.14 387.751 136.28 387.83L158.177 400.472C158.316 400.553 158.403 400.701 158.403 400.862V426.146C158.403 426.307 158.318 426.456 158.177 426.536L136.28 439.178C136.21 439.218 136.133 439.238 136.055 439.238ZM114.609 425.886L136.055 438.269L157.503 425.886V401.121L136.055 388.739L114.609 401.121V425.886Z" fill="#F0F0F0"/>
<path d="M223.945 439.381C223.794 439.381 223.645 439.305 223.56 439.165C223.431 438.953 223.498 438.677 223.71 438.546L240.144 428.516C240.357 428.388 240.634 428.454 240.763 428.666C240.893 428.879 240.826 429.155 240.613 429.285L224.179 439.315C224.106 439.359 224.026 439.381 223.945 439.381Z" fill="#F0F0F0"/>
<path d="M121.157 405.38C121.001 405.38 120.849 405.3 120.766 405.155C120.642 404.939 120.717 404.664 120.933 404.54L136.53 395.611C136.747 395.485 137.021 395.562 137.145 395.778C137.268 395.994 137.194 396.269 136.978 396.392L121.38 405.321C121.309 405.362 121.233 405.381 121.157 405.381V405.38Z" fill="#F0F0F0"/>
<path d="M99.0075 443.194C98.8515 443.194 98.6991 443.114 98.6163 442.969C98.4927 442.753 98.5671 442.478 98.7831 442.354L114.381 433.425C114.598 433.299 114.873 433.376 114.995 433.592C115.119 433.808 115.044 434.083 114.828 434.206L99.2307 443.136C99.1599 443.176 99.0831 443.194 99.0075 443.194Z" fill="#F0F0F0"/>
<path d="M142.905 443.194C142.749 443.194 142.596 443.114 142.513 442.969C142.39 442.753 142.464 442.478 142.68 442.354L158.278 433.425C158.495 433.299 158.769 433.376 158.892 433.592C159.016 433.808 158.941 434.083 158.725 434.206L143.128 443.136C143.057 443.176 142.98 443.194 142.905 443.194Z" fill="#F0F0F0"/>
<path d="M186.596 456.461C186.348 456.461 186.146 456.259 186.146 456.011V446.961C186.146 446.713 186.348 446.511 186.596 446.511C186.845 446.511 187.046 446.713 187.046 446.961V456.011C187.046 456.259 186.845 456.461 186.596 456.461Z" fill="#F0F0F0"/>
<path d="M97.7137 456.461C97.4653 456.461 97.2637 456.259 97.2637 456.011V446.961C97.2637 446.713 97.4653 446.511 97.7137 446.511C97.9621 446.511 98.1637 446.713 98.1637 446.961V456.011C98.1637 456.259 97.9621 456.461 97.7137 456.461Z" fill="#F0F0F0"/>
<path d="M398.231 130.476C397.404 126.487 395.824 122.778 393.661 119.485L397.597 114.732L389.183 106.317L384.428 110.252C381.134 108.091 377.426 106.511 373.438 105.684L372.86 99.5566H360.961L360.384 105.684C356.395 106.511 352.687 108.092 349.393 110.252L344.64 106.317L336.226 114.732L340.162 119.486C338 122.779 336.42 126.488 335.592 130.477L329.465 131.054V142.952L335.592 143.529C336.419 147.518 337.999 151.225 340.162 154.519L336.226 159.273L344.64 167.688L349.393 163.752C352.686 165.914 356.395 167.495 360.384 168.321L360.961 174.449H372.86L373.438 168.323C377.426 167.496 381.134 165.914 384.428 163.752L389.183 167.688L397.597 159.273L393.661 154.52C395.822 151.226 397.404 147.518 398.231 143.529L404.358 142.952V131.054L398.231 130.476ZM383.021 137.003C383.021 145.898 375.809 153.111 366.912 153.111C358.015 153.111 350.803 145.899 350.803 137.003C350.803 128.106 358.015 120.894 366.912 120.894C375.809 120.894 383.021 128.106 383.021 137.003Z" fill="#E6E6E6"/>
<path d="M134.036 196.687C133.504 194.117 132.485 191.727 131.093 189.606L133.628 186.543L128.208 181.122L125.146 183.657C123.024 182.265 120.634 181.247 118.064 180.714L117.692 176.766H110.026L109.654 180.714C107.084 181.247 104.694 182.265 102.572 183.657L99.51 181.122L94.0884 186.543L96.624 189.606C95.2308 191.727 94.2132 194.117 93.6804 196.687L89.7324 197.059V204.725L93.6804 205.097C94.2132 207.666 95.232 210.055 96.624 212.178L94.0884 215.24L99.51 220.662L102.572 218.126C104.694 219.519 107.083 220.537 109.654 221.071L110.026 225.019H117.692L118.064 221.072C120.634 220.539 123.024 219.521 125.146 218.127L128.208 220.663L133.628 215.241L131.093 212.179C132.486 210.056 133.504 207.667 134.036 205.098L137.984 204.726V197.06L134.036 196.687ZM124.236 200.892C124.236 206.623 119.59 211.271 113.857 211.271C108.125 211.271 103.478 206.624 103.478 200.892C103.478 195.159 108.125 190.513 113.857 190.513C119.59 190.513 124.236 195.159 124.236 200.892Z" fill="#F0F0F0"/>
<path d="M528.233 225.206C527.7 222.636 526.681 220.247 525.289 218.125L527.825 215.063L522.403 209.641L519.341 212.177C517.219 210.785 514.829 209.766 512.26 209.233L511.888 205.285H504.221L503.849 209.233C501.28 209.766 498.889 210.785 496.768 212.177L493.705 209.641L488.284 215.063L490.819 218.125C489.426 220.247 488.409 222.636 487.876 225.206L483.928 225.578V233.244L487.876 233.616C488.409 236.185 489.427 238.574 490.819 240.697L488.284 243.76L493.705 249.181L496.768 246.646C498.889 248.039 501.279 249.056 503.849 249.589L504.221 253.537H511.888L512.26 249.59C514.829 249.058 517.219 248.039 519.341 246.646L522.403 249.181L527.825 243.76L525.289 240.697C526.683 238.574 527.7 236.185 528.233 233.616L532.18 233.244V225.578L528.233 225.206ZM518.433 229.411C518.433 235.142 513.786 239.79 508.054 239.79C502.321 239.79 497.675 235.144 497.675 229.411C497.675 223.679 502.321 219.032 508.054 219.032C513.786 219.032 518.433 223.679 518.433 229.411Z" fill="#F0F0F0"/>
<path d="M178.485 267.887C177.442 262.854 175.448 258.174 172.72 254.018L177.686 248.021L167.069 237.404L161.07 242.37C156.915 239.644 152.235 237.648 147.203 236.605L146.475 228.874H131.46L130.732 236.605C125.699 237.649 121.02 239.644 116.865 242.37L110.867 237.404L100.251 248.021L105.216 254.02C102.489 258.175 100.494 262.854 99.4504 267.888L91.7188 268.616V283.63L99.4504 284.358C100.494 289.391 102.489 294.068 105.216 298.225L100.251 304.223L110.867 314.839L116.865 309.872C121.02 312.601 125.699 314.594 130.732 315.638L131.46 323.37H146.475L147.203 315.64C152.236 314.597 156.915 312.601 161.07 309.874L167.069 314.84L177.686 304.224L172.72 298.226C175.448 294.07 177.442 289.391 178.485 284.359L186.215 283.631V268.618L178.485 267.889V267.887ZM159.293 276.122C159.293 287.347 150.194 296.448 138.968 296.448C127.742 296.448 118.642 287.348 118.642 276.122C118.642 264.896 127.742 255.797 138.968 255.797C150.194 255.797 159.293 264.896 159.293 276.122Z" fill="#E0E0E0"/>
<path d="M398.308 475.226C398.6 468.385 397.549 461.692 395.381 455.435L403.75 449.306L393.498 432.133L384.132 436.591C379.652 431.715 374.26 427.613 368.1 424.625L369.679 414.402L350.287 409.508L346.826 419.256C339.986 418.963 333.292 420.014 327.036 422.182L320.908 413.813L303.734 424.066L308.192 433.432C303.316 437.91 299.214 443.304 296.225 449.464L286.002 447.884L281.108 467.275L290.856 470.737C290.564 477.577 291.614 484.271 293.783 490.528L285.414 496.656L295.666 513.829L305.032 509.37C309.509 514.248 314.904 518.35 321.064 521.338L319.484 531.56L338.876 536.454L342.337 526.706C349.177 526.999 355.871 525.948 362.129 523.778L368.257 532.148L385.43 521.896L380.971 512.531C385.849 508.051 389.951 502.658 392.938 496.499L403.16 498.077L408.054 478.686L398.306 475.225L398.308 475.226ZM370.835 479.608C367.176 494.106 352.457 502.894 337.957 499.235C323.459 495.576 314.671 480.856 318.33 466.357C321.989 451.859 336.709 443.071 351.208 446.73C365.706 450.389 374.494 465.109 370.835 479.608Z" fill="#E0E0E0"/>
<path d="M276.429 480.299C275.798 477.252 274.59 474.42 272.939 471.905L275.945 468.275L269.52 461.849L265.89 464.853C263.375 463.203 260.543 461.996 257.498 461.365L257.057 456.686H247.971L247.53 461.365C244.485 461.996 241.653 463.203 239.138 464.853L235.508 461.849L229.082 468.275L232.086 471.905C230.435 474.42 229.229 477.252 228.597 480.297L223.918 480.739V489.825L228.597 490.267C229.228 493.313 230.435 496.145 232.086 498.66L229.082 502.29L235.508 508.716L239.138 505.71C241.653 507.361 244.485 508.568 247.53 509.2L247.971 513.878H257.057L257.498 509.2C260.543 508.568 263.375 507.361 265.89 505.71L269.52 508.716L275.945 502.29L272.939 498.66C274.59 496.145 275.798 493.313 276.429 490.267L281.108 489.825V480.739L276.429 480.297V480.299ZM264.813 485.282C264.813 492.076 259.306 497.584 252.512 497.584C245.717 497.584 240.21 492.076 240.21 485.282C240.21 478.489 245.718 472.981 252.512 472.981C259.305 472.981 264.813 478.489 264.813 485.282Z" fill="#E0E0E0"/>
<path d="M493.742 284.858C492.693 279.799 490.689 275.096 487.947 270.92L492.938 264.891L482.267 254.221L476.238 259.211C472.061 256.471 467.358 254.466 462.3 253.417L461.568 245.647H446.478L445.746 253.417C440.688 254.466 435.986 256.471 431.808 259.211L425.78 254.221L415.109 264.891L420.1 270.92C417.359 275.096 415.354 279.799 414.305 284.858L406.535 285.59V300.679L414.305 301.411C415.354 306.469 417.358 311.171 420.1 315.348L415.109 321.377L425.78 332.047L431.808 327.055C435.984 329.797 440.688 331.801 445.746 332.85L446.478 340.62H461.568L462.3 332.85C467.358 331.801 472.061 329.796 476.238 327.054L482.267 332.046L492.938 321.375L487.947 315.348C490.689 311.171 492.693 306.468 493.742 301.41L501.512 300.678V285.589L493.742 284.857V284.858ZM474.453 293.135C474.453 304.416 465.306 313.562 454.024 313.562C442.742 313.562 433.596 304.416 433.596 293.135C433.596 281.853 442.743 272.706 454.024 272.706C465.305 272.706 474.453 281.852 474.453 293.135Z" fill="#E0E0E0"/>
<path d="M131.454 351.64C128.472 351.888 125.957 353.557 124.494 355.92L120.127 356.284L118.098 331.924L94.2746 333.908L94.1006 333.923L94.385 337.338C96.7478 338.801 98.417 341.316 98.6654 344.298C99.0818 349.292 95.369 353.68 90.3746 354.096C85.379 354.512 80.993 350.801 80.5766 345.805C80.3258 342.788 81.5858 340.002 83.7182 338.17L83.4386 334.812L83.1062 334.84L59.363 336.817L61.3994 361.254L58.5974 361.487C56.765 359.354 53.9774 358.093 50.9618 358.345C45.9674 358.762 42.2546 363.148 42.671 368.143C43.0874 373.139 47.4734 376.85 52.469 376.434C55.451 376.186 57.9662 374.516 59.429 372.154L62.2886 371.915L64.2578 395.55L122.993 390.658L121.018 366.944L125.327 366.586C127.159 368.718 129.947 369.979 132.963 369.727C137.957 369.311 141.67 364.925 141.253 359.929C140.837 354.935 136.451 351.222 131.455 351.638L131.454 351.64Z" fill="#FC4A1A"/>
<path d="M166.569 480.61C168.743 482.1 169.931 484.486 169.993 486.934L173.099 489.064L185.176 471.449L168.004 459.676L169.645 457.28C172.21 457.214 174.708 455.97 176.269 453.694C178.855 449.922 177.894 444.768 174.123 442.183C170.351 439.597 165.197 440.558 162.612 444.33C161.069 446.581 160.798 449.322 161.626 451.718L159.954 454.157L142.84 442.423L130.801 459.982L133.949 462.14C136.236 461.351 138.853 461.609 141.003 463.082C144.603 465.551 145.521 470.471 143.052 474.071C140.584 477.671 135.664 478.589 132.064 476.12C129.889 474.63 128.701 472.244 128.639 469.796L125.532 467.666L113.813 484.759L156.15 513.786L167.831 496.75L164.683 494.591C162.396 495.38 159.779 495.122 157.63 493.649C154.03 491.18 153.112 486.26 155.58 482.66C158.049 479.06 162.969 478.142 166.569 480.611V480.61Z" fill="#FC4A1A"/>
<path d="M323.976 150.522H280.705V459.302H323.976V150.522Z" fill="#FC4A1A"/>
<path opacity="0.2" d="M323.976 150.522H280.705V459.302H323.976V150.522Z" fill="black"/>
<path d="M286.116 143.281C245.043 134.398 223.445 159.136 223.445 159.136C209.391 159.136 207.111 170.509 207.111 170.509C183.942 180.504 183.942 202.908 183.942 202.908C183.942 202.908 171.027 217.039 166.47 228.758C161.912 240.478 166.47 244.613 166.47 244.613C166.47 244.613 150.381 248.964 157.886 273.481C157.886 273.481 137.871 285.99 146.378 337.526C146.378 337.526 147.879 352.537 156.885 359.542C156.885 359.542 149.881 376.554 165.891 390.064C165.891 390.064 179.936 444.602 215.193 454.109C215.193 454.109 217.928 472.122 246.447 476.124C246.447 476.124 283.473 484.129 291.479 469.118C299.484 454.108 297.983 387.948 297.983 387.948V150.894C297.983 150.894 293.061 144.784 286.113 143.28L286.116 143.281Z" fill="#FC4A1A"/>
<g opacity="0.1">
<path d="M221.998 382.41C227.843 384.266 233.732 386.101 239.812 386.909C245.891 387.717 252.224 387.452 257.933 385.211C262.879 383.268 267.138 379.943 271.73 377.268C276.323 374.595 281.635 372.516 286.866 373.458C280.811 369.146 272.632 369.012 265.428 370.844C258.224 372.677 251.598 376.238 244.652 378.886C237.707 381.533 230.023 383.265 222.866 381.256" fill="black"/>
</g>
<g opacity="0.1">
<path d="M265.93 456.759C256.383 452.141 259.652 437.923 259.652 437.923C252.154 442.445 235.908 450.739 214.18 435.355C202.712 427.235 201.493 415.148 202.101 406.413C191.619 414.182 184.485 407.829 176.491 397.518C168.496 387.206 166.66 373.483 166.058 360.45C162.344 360.644 158.608 359.801 155.283 358.14C155.79 358.635 156.324 359.105 156.888 359.543C156.888 359.543 149.883 376.555 165.894 390.065C165.894 390.065 179.938 444.603 215.196 454.11C215.196 454.11 217.93 472.123 246.45 476.125C246.45 476.125 283.476 484.13 291.481 469.119C294.198 464.025 295.819 453.037 296.776 440.744C289.579 444.237 291.481 469.119 265.93 456.759Z" fill="black"/>
</g>
<path d="M299.005 230.369C291.191 220.199 277.29 215.125 264.901 218.33C258.764 219.872 253.131 223.014 247.815 226.583C242.468 230.137 237.317 234.094 231.746 237.559C220.589 244.427 208.123 249.161 195.225 251.33C188.849 252.631 181.051 252.247 176.539 246.858C171.962 241.92 171.56 233.846 175.591 228.527C172.14 233.952 172.769 241.58 177.397 246.053C181.928 250.902 188.811 250.826 194.889 249.487C207.474 246.986 219.601 242.262 230.485 235.518C235.945 232.18 241.089 228.24 246.572 224.688C252.044 221.172 257.943 217.924 264.476 216.514C277.393 213.497 291.801 219.364 299.005 230.369Z" fill="#FC4A1A"/>
<path d="M215.714 225.28C208.002 227.005 201.12 219.49 200.538 212.137C199.644 204.756 202.812 197.542 206.927 191.64C205.773 195.039 204.519 198.354 203.697 201.725C200.922 211.501 203.947 224.229 215.714 225.28Z" fill="#FC4A1A"/>
<path d="M209.799 224.176C201.507 221.353 192.477 224.094 187.126 231.024C189.482 221.655 202.65 217.689 209.799 224.176Z" fill="#FC4A1A"/>
<path d="M259.733 218.861C262.994 214.714 263.337 209.155 261.723 204.318C258.424 194.324 247.373 189.902 237.785 188.125C232.799 187.288 227.175 187.236 223.2 190.88C226.49 186.384 232.868 185.704 238.04 186.27C245.987 187.202 254.382 190.091 259.728 196.434C264.99 202.53 266.124 213.21 259.733 218.861Z" fill="#FC4A1A"/>
<path d="M224.034 175.024C222.416 186.92 222.014 195.101 234.997 199.735C220.64 199.325 218.196 185.933 224.034 175.024Z" fill="#FC4A1A"/>
<path d="M297.808 207.499C290.743 195.838 272.424 196.021 267.732 182.407C275.077 193.771 293.437 193.673 297.808 207.499Z" fill="#FC4A1A"/>
<path d="M264.784 151.22C253.873 156.947 256.355 172.458 268.369 174.33C273.535 175.412 279.136 174.391 284.852 175.213C290.358 175.841 296.645 179.611 296.875 185.678C295.622 180.107 289.877 177.396 284.639 177.074C276.809 176.508 266.512 179.213 259.979 172.7C253.153 166.084 255.624 154.02 264.785 151.222L264.784 151.22Z" fill="#FC4A1A"/>
<path d="M158.065 273.622C165.315 273.892 169.818 268.232 176.024 265.325C182.329 262.397 189.979 261.943 196.346 264.761C192.955 264.331 189.623 264.312 186.372 264.758C183.129 265.222 179.969 266.106 177.044 267.497C171.345 270.164 164.967 276.01 158.066 273.623L158.065 273.622Z" fill="#FC4A1A"/>
<path d="M173.217 278.879C194.91 284.544 218.653 281.502 237.948 270.191C247.609 264.65 256.43 255.899 268.243 254.989C280.17 253.985 290.11 263.089 295.945 272.564C290.911 265.937 284.57 259.844 276.468 257.518C262.015 253.548 250.716 265.517 239.161 272.261C219.5 283.766 194.676 286.484 173.217 278.879Z" fill="#FC4A1A"/>
<path d="M276.916 293.135C281.046 297.215 287.569 297.806 293.041 298.806C294.989 299.054 296.956 299.24 299.005 299.532C292.609 302.03 279.41 300.604 276.916 293.135Z" fill="#FC4A1A"/>
<path d="M297.548 325.086C286.383 334.817 269.37 322.204 258.324 332.365C250.652 338.754 245.462 350.134 234.791 352.948C231.355 354.025 227.87 354.553 224.522 355.272C217.85 356.548 211.574 359.496 206.493 363.941C196.171 372.618 191.931 388.417 198.372 400.622C201.461 406.68 206.927 411.616 213.543 413.809C206.748 412.135 200.895 407.293 197.34 401.186C189.973 388.568 194.153 371.56 204.989 362.238C210.326 357.458 217.063 354.294 224.027 352.925C229.106 351.847 234.171 351.313 238.659 348.793C246.235 344.449 250.257 336.202 257.168 330.9C269.621 320.281 285.403 334.068 297.547 325.086H297.548Z" fill="#FC4A1A"/>
<path d="M213.097 399.597C217.396 394.494 220.086 388.696 221.245 382.127C223.651 388.757 219.715 397.17 213.097 399.597Z" fill="#FC4A1A"/>
<path d="M211.609 379.948C226.171 383.154 240.645 378.74 254.221 373.638C264.445 369.77 276.454 365.948 286.916 371.212C290.266 372.905 293.274 375.476 294.921 378.805C292.809 375.773 289.786 373.555 286.436 372.286C272.157 366.682 258.129 375.739 244.519 379.404C233.907 382.408 222.175 383.814 211.609 379.948Z" fill="#FC4A1A"/>
<path d="M298.9 409.585C284.143 422.423 259.868 423.067 244.465 411.002C261.441 419.782 282.406 419.249 298.9 409.585Z" fill="#FC4A1A"/>
<path d="M214.181 453.414C229.591 453.731 244.67 449.453 257.635 441.121C246.681 452.291 229.361 457.179 214.181 453.414Z" fill="#FC4A1A"/>
<path d="M186.526 432.539C183.473 421.617 191.034 408.913 202.102 406.413C199.799 407.926 197.705 409.564 195.844 411.413C190.118 417.006 187.096 424.577 186.527 432.538L186.526 432.539Z" fill="#FC4A1A"/>
<path d="M202.698 364.423C175.801 353.994 156.868 325.878 157.349 297.03C160.522 325.525 177.488 350.761 202.698 364.423Z" fill="#FC4A1A"/>
<path d="M163.343 324.9C158.815 326.112 156.479 330.029 154.871 334.103C154.299 335.502 153.759 336.976 152.989 338.419C152.598 335.155 153.014 331.825 154.713 328.927C156.384 326.094 160.049 323.706 163.343 324.899V324.9Z" fill="#FC4A1A"/>
<path d="M155.975 356.99C163.38 360.835 171.941 360.763 179.294 356.827C173.829 363.978 161.543 364.054 155.975 356.99Z" fill="#FC4A1A"/>
<path d="M249.836 265.615C256.176 272.666 258.063 282.612 258.451 291.841C259.63 316.919 240.351 322.588 219.062 321.356C209.725 320.646 200.527 317.816 192.458 313.118C200.923 316.956 210.028 319.105 219.175 319.487C231.696 319.667 248.761 318.242 254.271 305.071C256.024 300.996 256.528 296.411 256.586 291.865C256.524 282.768 255.337 273.191 249.836 265.615Z" fill="#FC4A1A"/>
<path d="M222.664 279.334C223.589 283.847 223.734 288.592 222.035 292.993C220.368 297.294 216.012 301.395 211.175 300.789C220.336 297.774 221.152 287.453 222.664 279.334Z" fill="#FC4A1A"/>
<path d="M232.585 198.21C230.41 204.876 230.596 211.753 233.091 218.304C227.394 213.457 227.15 203.342 232.585 198.21Z" fill="#FC4A1A"/>
<path d="M232.605 159.237C236.214 165.204 241.646 169.789 248.409 171.565C250.615 172.162 252.914 172.486 255.339 172.614C245.867 176.148 234.126 169.225 232.605 159.237Z" fill="#FC4A1A"/>
<path d="M238.972 349.16C234.096 340.831 224.162 338.11 215.065 338.588C211.957 338.692 208.822 339.048 205.624 339.318C211.595 336.847 218.234 335.626 224.692 336.893C231.025 338.182 237.491 342.625 238.972 349.16Z" fill="#FC4A1A"/>
<path d="M278.767 476.885C275.525 469.043 269.598 462.881 261.906 459.301C270.835 459.478 278.954 467.96 278.767 476.885Z" fill="#FC4A1A"/>
<path d="M271.551 463.277C278.919 454.799 287.526 444.402 281.52 432.738C286.203 437.009 286.29 444.593 283.827 450.121C281.275 455.75 276.666 460.046 271.551 463.276V463.277Z" fill="#FC4A1A"/>
<g opacity="0.3">
<path d="M299.005 230.369C291.191 220.199 277.29 215.125 264.901 218.33C258.764 219.872 253.131 223.014 247.815 226.583C242.468 230.137 237.317 234.094 231.746 237.559C220.589 244.427 208.123 249.161 195.225 251.33C188.849 252.631 181.051 252.247 176.539 246.858C171.962 241.92 171.56 233.846 175.591 228.527C172.14 233.952 172.769 241.58 177.397 246.053C181.928 250.902 188.811 250.826 194.889 249.487C207.474 246.986 219.601 242.262 230.485 235.518C235.945 232.18 241.089 228.24 246.572 224.688C252.044 221.172 257.943 217.924 264.476 216.514C277.393 213.497 291.801 219.364 299.005 230.369Z" fill="black"/>
<path d="M215.714 225.28C208.002 227.005 201.12 219.49 200.538 212.137C199.644 204.756 202.812 197.542 206.927 191.64C205.773 195.039 204.519 198.354 203.697 201.725C200.922 211.501 203.947 224.229 215.714 225.28Z" fill="black"/>
<path d="M209.799 224.176C201.507 221.353 192.477 224.094 187.126 231.024C189.482 221.655 202.65 217.689 209.799 224.176Z" fill="black"/>
<path d="M259.733 218.861C262.994 214.714 263.337 209.155 261.723 204.318C258.424 194.324 247.373 189.902 237.785 188.125C232.799 187.288 227.175 187.236 223.2 190.88C226.49 186.384 232.868 185.704 238.04 186.27C245.987 187.202 254.382 190.091 259.728 196.434C264.99 202.53 266.124 213.21 259.733 218.861Z" fill="black"/>
<path d="M224.034 175.024C222.416 186.92 222.014 195.101 234.997 199.735C220.64 199.325 218.196 185.933 224.034 175.024Z" fill="black"/>
<path d="M297.808 207.499C290.743 195.838 272.424 196.021 267.732 182.407C275.077 193.771 293.437 193.673 297.808 207.499Z" fill="black"/>
<path d="M264.784 151.22C253.873 156.947 256.355 172.458 268.369 174.33C273.535 175.412 279.136 174.391 284.852 175.213C290.358 175.841 296.645 179.611 296.875 185.678C295.622 180.107 289.877 177.396 284.639 177.074C276.809 176.508 266.512 179.213 259.979 172.7C253.153 166.084 255.624 154.02 264.785 151.222L264.784 151.22Z" fill="black"/>
<path d="M158.065 273.622C165.315 273.892 169.818 268.232 176.024 265.325C182.329 262.397 189.979 261.943 196.346 264.761C192.955 264.331 189.623 264.312 186.372 264.758C183.129 265.222 179.969 266.106 177.044 267.497C171.345 270.164 164.967 276.01 158.066 273.623L158.065 273.622Z" fill="black"/>
<path d="M173.217 278.879C194.91 284.544 218.653 281.502 237.948 270.191C247.609 264.65 256.43 255.899 268.243 254.989C280.17 253.985 290.11 263.089 295.945 272.564C290.911 265.937 284.57 259.844 276.468 257.518C262.015 253.548 250.716 265.517 239.161 272.261C219.5 283.766 194.676 286.484 173.217 278.879Z" fill="black"/>
<path d="M276.916 293.135C281.046 297.215 287.569 297.806 293.041 298.806C294.989 299.054 296.956 299.24 299.005 299.532C292.609 302.03 279.41 300.604 276.916 293.135Z" fill="black"/>
<path d="M297.548 325.086C286.383 334.817 269.37 322.204 258.324 332.365C250.652 338.754 245.462 350.134 234.791 352.948C231.355 354.025 227.87 354.553 224.522 355.272C217.85 356.548 211.574 359.496 206.493 363.941C196.171 372.618 191.931 388.417 198.372 400.622C201.461 406.68 206.927 411.616 213.543 413.809C206.748 412.135 200.895 407.293 197.34 401.186C189.973 388.568 194.153 371.56 204.989 362.238C210.326 357.458 217.063 354.294 224.027 352.925C229.106 351.847 234.171 351.313 238.659 348.793C246.235 344.449 250.257 336.202 257.168 330.9C269.621 320.281 285.403 334.068 297.547 325.086H297.548Z" fill="black"/>
<path d="M213.097 399.597C217.396 394.494 220.086 388.696 221.245 382.127C223.651 388.757 219.715 397.17 213.097 399.597Z" fill="black"/>
<path d="M211.609 379.948C226.171 383.154 240.645 378.74 254.221 373.638C264.445 369.77 276.454 365.948 286.916 371.212C290.266 372.905 293.274 375.476 294.921 378.805C292.809 375.773 289.786 373.555 286.436 372.286C272.157 366.682 258.129 375.739 244.519 379.404C233.907 382.408 222.175 383.814 211.609 379.948Z" fill="black"/>
<path d="M298.9 409.585C284.143 422.423 259.868 423.067 244.465 411.002C261.441 419.782 282.406 419.249 298.9 409.585Z" fill="black"/>
<path d="M214.181 453.414C229.591 453.731 244.67 449.453 257.635 441.121C246.681 452.291 229.361 457.179 214.181 453.414Z" fill="black"/>
<path d="M186.526 432.539C183.473 421.617 191.034 408.913 202.102 406.413C199.799 407.926 197.705 409.564 195.844 411.413C190.118 417.006 187.096 424.577 186.527 432.538L186.526 432.539Z" fill="black"/>
<path d="M202.698 364.423C175.801 353.994 156.868 325.878 157.349 297.03C160.522 325.525 177.488 350.761 202.698 364.423Z" fill="black"/>
<path d="M163.343 324.9C158.815 326.112 156.479 330.029 154.871 334.103C154.299 335.502 153.759 336.976 152.989 338.419C152.598 335.155 153.014 331.825 154.713 328.927C156.384 326.094 160.049 323.706 163.343 324.899V324.9Z" fill="black"/>
<path d="M155.975 356.99C163.38 360.835 171.941 360.763 179.294 356.827C173.829 363.978 161.543 364.054 155.975 356.99Z" fill="black"/>
<path d="M249.836 265.615C256.176 272.666 258.063 282.612 258.451 291.841C259.63 316.919 240.351 322.588 219.062 321.356C209.725 320.646 200.527 317.816 192.458 313.118C200.923 316.956 210.028 319.105 219.175 319.487C231.696 319.667 248.761 318.242 254.271 305.071C256.024 300.996 256.528 296.411 256.586 291.865C256.524 282.768 255.337 273.191 249.836 265.615Z" fill="black"/>
<path d="M222.664 279.334C223.589 283.847 223.734 288.592 222.035 292.993C220.368 297.294 216.012 301.395 211.175 300.789C220.336 297.774 221.152 287.453 222.664 279.334Z" fill="black"/>
<path d="M232.585 198.21C230.41 204.876 230.596 211.753 233.091 218.304C227.394 213.457 227.15 203.342 232.585 198.21Z" fill="black"/>
<path d="M232.605 159.237C236.214 165.204 241.646 169.789 248.409 171.565C250.615 172.162 252.914 172.486 255.339 172.614C245.867 176.148 234.126 169.225 232.605 159.237Z" fill="black"/>
<path d="M238.972 349.16C234.096 340.831 224.162 338.11 215.065 338.588C211.957 338.692 208.822 339.048 205.624 339.318C211.595 336.847 218.234 335.626 224.692 336.893C231.025 338.182 237.491 342.625 238.972 349.16Z" fill="black"/>
<path d="M278.767 476.885C275.525 469.043 269.598 462.881 261.906 459.301C270.835 459.478 278.954 467.96 278.767 476.885Z" fill="black"/>
<path d="M271.551 463.277C278.919 454.799 287.526 444.402 281.52 432.738C286.203 437.009 286.29 444.593 283.827 450.121C281.275 455.75 276.666 460.046 271.551 463.276V463.277Z" fill="black"/>
</g>
<g opacity="0.2">
<path d="M201.271 287.224C199.227 287.154 197.229 287.755 195.237 288.215C184.413 290.713 172.67 288.984 163.026 283.471L162.122 284.792C164.007 302.779 171.09 320.191 182.294 334.388C185.185 338.052 189.325 341.848 193.872 340.798C198.18 339.803 200.408 334.619 199.672 330.259C198.937 325.9 196.068 322.243 193.233 318.851C190.399 315.458 187.411 311.948 186.35 307.656C185.793 305.405 186.375 302.288 188.67 301.951C190.803 301.638 192.262 304 194.168 305.009C196.39 306.185 199.245 305.371 201.146 303.724C203.046 302.076 204.201 299.755 205.309 297.497C206.464 295.14 207.626 292.334 206.416 290.004C205.474 288.188 203.313 287.292 201.27 287.222L201.271 287.224Z" fill="white"/>
</g>
<g opacity="0.2">
<path d="M163.796 268.048C164.876 268.409 166.005 267.743 166.949 267.107C170.347 264.815 173.745 262.522 177.144 260.23C177.839 259.76 178.614 259.145 178.587 258.307C178.569 257.741 178.179 257.264 177.797 256.847C175.367 254.195 172.446 251.994 169.226 250.39L168.216 249.94C165.746 251.003 164.049 253.399 163.201 255.951C162.353 258.502 162.239 261.23 162.132 263.917C162.068 265.516 162.279 267.54 163.796 268.048Z" fill="white"/>
</g>
<g opacity="0.2">
<path d="M209.013 233.522C208.959 231.334 206.474 230.034 204.296 229.819C200.265 229.422 196.352 231.036 192.446 232.109C188.54 233.182 184.013 233.618 180.751 231.218L180.401 232.885C179.993 235.486 181.673 238.086 183.942 239.422C186.211 240.756 188.947 241.038 191.579 240.98C196.317 240.878 201.032 239.767 205.317 237.744C207.111 236.897 209.064 235.506 209.016 233.522H209.013Z" fill="white"/>
</g>
<g opacity="0.2">
<path d="M213.021 197.605C211.782 199.606 211.515 202.049 211.441 204.402C211.312 208.469 211.678 212.612 213.158 216.404C214.636 220.195 217.318 223.621 220.965 225.426C224.612 227.231 229.256 227.2 232.578 224.85C227.175 223.063 223.912 217.445 222.664 211.894C221.415 206.342 221.684 200.556 220.712 194.95L218.986 194.843C216.724 194.191 214.262 195.605 213.021 197.605Z" fill="white"/>
</g>
<g opacity="0.2">
<path d="M247.619 213.355C249.804 211.658 251.505 209.111 251.496 206.345C251.484 202.51 248.377 199.488 245.501 196.95C244.369 195.952 243.171 194.918 241.7 194.58C240.229 194.242 238.418 194.869 237.962 196.308C237.731 197.038 237.879 197.827 238.031 198.578C239.177 204.302 240.323 210.028 241.469 215.752L240.201 217.001C242.795 216.038 245.433 215.051 247.619 213.354V213.355Z" fill="white"/>
</g>
<g opacity="0.2">
<path d="M284.215 205.807C280.448 204.587 276.291 204.055 273.205 201.575C270.39 199.312 268.951 195.809 267.312 192.589C265.063 188.171 262.162 183.953 258.126 181.075C251.024 176.012 240.693 176.032 233.611 181.12C242.238 180.151 251.21 182.73 258.007 188.131C264.804 193.532 269.341 201.691 270.345 210.314L270.855 211.354C278.048 210.703 285.366 211.465 292.27 213.582C291.927 209.638 287.983 207.028 284.216 205.806L284.215 205.807Z" fill="white"/>
</g>
<g opacity="0.2">
<path d="M294.294 164.386C293.264 159.605 291.367 155.014 288.722 150.9L286.088 149.669C280.189 147.994 273.451 149.706 269.069 153.995C267.342 155.684 265.913 157.945 266.106 160.354C266.339 163.259 268.812 165.458 271.312 166.957C276.797 170.249 283.337 171.751 289.709 171.186C291.134 171.059 292.669 170.771 293.629 169.71C294.877 168.33 294.686 166.205 294.294 164.386Z" fill="white"/>
</g>
<g opacity="0.2">
<path d="M244.238 162.05C245.852 163.238 248.106 164.44 249.696 163.219C250.704 162.445 250.908 161.034 251.034 159.769C251.27 157.388 251.238 154.451 249.154 153.275L247.522 152.669C246.211 152.525 244.875 152.382 243.583 152.644C242.29 152.904 241.023 153.637 240.452 154.826C239.81 156.162 240.178 157.806 241.003 159.037C241.827 160.268 243.045 161.172 244.239 162.05H244.238Z" fill="white"/>
</g>
<g opacity="0.2">
<path d="M280.08 224.698C271.76 221.348 262.23 224.948 254.802 229.974C244.199 237.145 235.812 247.079 226.17 255.498C216.528 263.917 204.727 271.094 191.929 270.826C189.943 270.784 187.783 270.608 186.151 271.74C184.519 272.873 184.3 275.948 186.203 276.516L187.722 277.078C196.95 276.653 206.219 276.223 215.279 274.418C224.339 272.615 233.251 269.366 240.616 263.789C245.5 260.089 249.617 255.437 254.621 251.902C259.624 248.365 265.991 245.982 271.874 247.691C276.031 248.898 279.949 252.079 284.177 251.147C288.247 250.249 290.581 245.754 290.815 241.592C291.215 234.481 286.69 227.358 280.082 224.698H280.08Z" fill="white"/>
</g>
<g opacity="0.2">
<path d="M247.545 281.376C246.699 280.146 245.408 279.152 243.927 278.972L242.402 278.958C239.22 278.094 235.548 279.576 233.858 282.408C231.892 285.702 232.648 289.903 231.721 293.624C230.256 299.502 224.84 303.46 219.547 306.404C218.872 306.78 218.174 307.163 217.692 307.766C217.209 308.37 216.997 309.26 217.395 309.923C217.681 310.398 218.211 310.663 218.726 310.868C223.395 312.736 228.668 311.696 233.553 310.505C237.944 309.433 242.523 308.138 245.731 304.954C248.178 302.524 249.585 299.171 250.045 295.753C250.504 292.336 250.069 288.846 249.219 285.504C248.852 284.058 248.395 282.606 247.549 281.376H247.545Z" fill="white"/>
</g>
<g opacity="0.2">
<path d="M272.712 265.14C270.032 264.643 268.919 264.641 266.376 265.726C263.803 266.824 261.649 269.13 261.235 271.896C260.803 274.782 262.263 277.638 264.135 279.876C269.138 285.857 277.527 288.79 285.167 287.226C286.309 286.992 287.489 286.633 288.296 285.793C289.745 284.285 289.476 281.84 288.827 279.853C286.465 272.623 280.121 266.848 272.712 265.14Z" fill="white"/>
</g>
<g opacity="0.1">
<path d="M272.452 265.074C272.539 265.093 272.624 265.119 272.712 265.14C272.744 265.146 272.77 265.149 272.802 265.155L272.452 265.074Z" fill="white"/>
</g>
<g opacity="0.2">
<path d="M221.606 248.656C211.723 252.685 201.314 255.424 190.728 256.781C199.4 261.307 214.255 259.264 221.606 248.656Z" fill="white"/>
</g>
<g opacity="0.2">
<path d="M206.423 187.459C207.095 186.912 207.852 186.384 208.717 186.33C209.582 186.277 210.541 186.898 210.541 187.764C210.541 188.518 209.959 189.509 210.623 189.865C211.053 190.097 211.547 189.713 211.884 189.36C212.808 188.393 213.746 187.405 214.341 186.208C214.938 185.01 215.15 183.547 214.58 182.338C213.872 180.835 212.209 179.579 210.547 179.562C208.95 179.545 207.455 179.762 205.962 180.304C201.963 181.602 198.603 184.74 197.042 188.644C195.474 192.566 195.751 197.184 197.778 200.891C199.411 195.743 202.236 190.868 206.424 187.458L206.423 187.459Z" fill="white"/>
</g>
<g opacity="0.1">
<path d="M205.782 180.362C205.842 180.34 205.902 180.326 205.961 180.305C205.98 180.299 205.999 180.289 206.018 180.283L205.782 180.362Z" fill="white"/>
</g>
<g opacity="0.2">
<path d="M179.297 224.012C184.755 221.099 190.214 218.185 195.673 215.273C196.106 215.041 196.603 214.702 196.568 214.212C196.535 213.738 196.022 213.466 195.573 213.308C193.082 212.435 190.349 212.261 187.766 212.812C182.481 214.549 180.092 218.112 178.692 223.496C178.638 223.704 178.611 223.975 178.794 224.087C178.945 224.179 179.138 224.095 179.294 224.012H179.297Z" fill="white"/>
</g>
<g opacity="0.3">
<path d="M286.116 143.28C245.043 134.396 223.445 159.134 223.445 159.134C209.391 159.134 207.111 170.508 207.111 170.508C183.942 180.503 183.942 202.907 183.942 202.907C183.942 202.907 171.027 217.038 166.47 228.757C161.912 240.476 166.47 244.612 166.47 244.612C166.47 244.612 150.381 248.963 157.886 273.48C157.886 273.48 151.041 277.764 147.059 291.628C150.422 286.699 154.994 282.617 160.416 280.093C161.625 279.53 163.011 278.884 163.381 277.602C163.709 276.464 163.092 275.296 162.542 274.247C159.733 268.885 158.222 262.469 160.206 256.75C162.189 251.032 168.487 246.616 174.318 248.24C168.534 240.706 167.305 229.933 171.243 221.29C175.182 212.646 184.118 206.506 193.598 205.927C189.541 200.071 189.308 191.807 193.028 185.731C196.749 179.656 204.216 176.108 211.277 177.061C210.021 172.99 211.58 168.208 214.995 165.66C218.411 163.112 223.439 162.978 226.983 165.341C229.287 157.079 256.412 131.942 297.983 151.27V150.894C297.983 150.894 293.061 144.784 286.113 143.28H286.116Z" fill="white"/>
</g>
<g opacity="0.1">
<path d="M209.262 337.52C213.389 333.856 219.117 332.064 224.597 332.727C230.076 333.389 235.214 336.493 238.349 341.035C243.803 333.267 252.691 328.006 262.125 326.963C255.269 335.07 248.328 343.256 239.775 349.549C233.881 340.154 221.348 335.522 210.761 338.824" fill="black"/>
</g>
<g opacity="0.1">
<path d="M162.64 325.413C163.921 335.253 168.54 344.629 175.561 351.642C182.582 358.655 191.964 363.263 201.805 364.532C185.868 354.447 170.731 341.675 163.055 324.446" fill="black"/>
</g>
<g opacity="0.1">
<path d="M261.608 292.52C260.669 285.962 258.279 279.713 255.908 273.527C256.585 280.498 256.741 287.51 256.71 294.514C256.688 299.366 256.501 304.487 253.937 308.608C251.343 312.775 246.708 315.238 242.045 316.769C232.604 319.87 222.464 319.892 212.529 319.717L205.908 319.595C215.059 322.624 224.527 325.41 234.155 324.925C243.781 324.439 253.721 320.106 258.584 311.784C261.926 306.065 262.548 299.078 261.608 292.52Z" fill="black"/>
</g>
<g opacity="0.1">
<path d="M247.328 265.907C240.866 270.018 234.725 274.688 227.842 278.048C220.96 281.408 207.335 283.471 199.387 282.47C216.197 285.904 234.377 281.984 248.279 271.93C255.022 267.053 260.862 260.777 268.405 257.264C260.8 258.163 253.79 261.794 247.33 265.907H247.328Z" fill="black"/>
</g>
<path opacity="0.1" d="M258.415 171.302C258.415 171.302 256.657 175.97 266.086 179.562C275.516 183.154 279.798 177.763 287.45 179.562C295.102 181.361 293.386 179.562 293.386 179.562C293.386 179.562 290.86 173.485 280.338 175.024C269.816 176.562 258.415 171.302 258.415 171.302Z" fill="black"/>
<path opacity="0.1" d="M254.439 415.797C254.439 415.797 261.45 424.032 274.224 423.757C286.998 423.483 294.709 412.253 294.709 412.253C294.709 412.253 282.043 421.984 254.439 415.797Z" fill="black"/>
<path d="M313.884 142.704C354.957 133.82 376.555 158.558 376.555 158.558C390.609 158.558 392.889 169.932 392.889 169.932C416.058 179.927 416.058 202.331 416.058 202.331C416.058 202.331 428.973 216.462 433.53 228.181C438.088 239.9 433.53 244.036 433.53 244.036C433.53 244.036 449.619 248.387 442.114 272.904C442.114 272.904 462.127 285.413 453.622 336.949C453.622 336.949 452.121 351.96 443.115 358.964C443.115 358.964 450.119 375.977 434.109 389.486C434.109 389.486 420.064 444.025 384.807 453.532C384.807 453.532 382.072 471.545 353.553 475.547C353.553 475.547 316.527 483.552 308.521 468.542C300.516 453.532 302.017 387.372 302.017 387.372V150.318C302.017 150.318 306.939 144.206 313.887 142.704H313.884Z" fill="#FC4A1A"/>
<g opacity="0.1">
<path d="M334.069 456.182C343.616 451.564 340.348 437.346 340.348 437.346C347.845 441.868 364.092 450.161 385.819 434.778C397.288 426.658 398.507 414.571 397.898 405.836C408.38 413.605 415.514 407.252 423.509 396.941C431.503 386.629 433.339 372.906 433.942 359.873C437.656 360.067 441.391 359.224 444.716 357.562C444.21 358.057 443.676 358.526 443.112 358.964C443.112 358.964 450.116 375.977 434.106 389.486C434.106 389.486 420.061 444.025 384.804 453.532C384.804 453.532 382.069 471.545 353.55 475.547C353.55 475.547 316.524 483.552 308.519 468.542C305.802 463.448 304.181 452.46 303.223 440.167C310.421 443.659 308.519 468.542 334.069 456.181V456.182Z" fill="black"/>
</g>
<g opacity="0.2">
<path d="M436.203 270.684C435.123 271.045 433.994 270.379 433.051 269.743C429.653 267.451 426.254 265.158 422.856 262.866C422.161 262.397 421.386 261.781 421.412 260.943C421.43 260.377 421.82 259.9 422.203 259.482C424.633 256.83 427.554 254.629 430.773 253.025L431.784 252.575C434.253 253.638 435.95 256.035 436.799 258.586C437.647 261.137 437.761 263.866 437.868 266.553C437.931 268.151 437.72 270.175 436.203 270.683V270.684Z" fill="white"/>
</g>
<g opacity="0.1">
<path d="M327.549 264.498C327.461 264.517 327.376 264.544 327.288 264.564C327.256 264.57 327.231 264.574 327.198 264.58L327.549 264.498Z" fill="white"/>
</g>
<g opacity="0.1">
<path d="M394.218 179.785C394.158 179.762 394.098 179.749 394.039 179.728C394.02 179.722 394.001 179.712 393.981 179.706L394.218 179.786V179.785Z" fill="white"/>
</g>
<g opacity="0.3">
<path d="M452.941 291.052C448.958 277.188 442.113 272.904 442.113 272.904C449.618 248.387 433.53 244.037 433.53 244.037C433.53 244.037 438.087 239.9 433.53 228.182C428.972 216.464 416.058 202.332 416.058 202.332C416.058 202.332 416.058 179.929 392.888 169.933C392.888 169.933 390.609 158.56 376.555 158.56C376.555 158.56 354.956 133.822 313.884 142.705C306.936 144.208 302.015 150.319 302.015 150.319V150.695C343.585 131.368 370.71 156.504 373.014 164.766C376.56 162.403 381.588 162.538 385.002 165.085C388.417 167.633 389.976 172.416 388.721 176.488C395.78 175.535 403.248 179.082 406.969 185.158C410.69 191.233 410.456 199.496 406.399 205.352C415.88 205.931 424.815 212.072 428.754 220.716C432.692 229.36 431.463 240.132 425.679 247.667C431.51 246.042 437.808 250.458 439.791 256.176C441.775 261.895 440.264 268.312 437.455 273.673C436.905 274.722 436.289 275.891 436.616 277.028C436.986 278.31 438.372 278.957 439.581 279.52C445.003 282.044 449.575 286.127 452.939 291.054L452.941 291.052Z" fill="white"/>
</g>
<g opacity="0.2">
<path d="M426.119 224.531C424.111 218.838 418.674 214.512 412.676 213.833L410.9 214.284C414.593 224.58 412.526 236.737 405.641 245.236C411.355 247.181 418.118 245.587 422.363 241.295C426.608 237.002 428.126 230.225 426.119 224.531Z" fill="white"/>
</g>
<g opacity="0.2">
<path d="M367.842 172.673C366.195 166.055 361.269 160.551 355.33 157.197C349.391 153.843 342.511 152.463 335.699 152.113C329.861 151.815 323.818 152.281 318.571 154.86C313.325 157.439 309.004 162.454 308.517 168.28C309.318 172.283 313.041 174.999 317.1 174.568C323.299 173.91 329.739 174.882 335.886 176.237C344.397 178.114 352.881 180.705 361.596 180.607C363.514 180.586 365.622 180.348 366.943 178.957C368.465 177.354 368.375 174.817 367.841 172.672L367.842 172.673Z" fill="white"/>
</g>
<g opacity="0.2">
<path d="M371.246 200.767C370.916 198.65 368.539 197.594 366.468 197.042C361.391 195.691 355.577 195.095 350.287 194.538C342.432 193.457 332.88 193.406 324.302 194.744C321.625 195.162 318.829 195.812 316.852 197.665C314.471 199.898 313.79 203.392 313.628 206.652C313.448 210.271 313.77 214.006 315.33 217.277C316.889 220.548 319.848 223.299 323.42 223.907C327.658 224.629 331.763 222.352 335.492 220.214C345.118 214.7 355.026 209.552 365.584 206.147C366.94 205.709 368.336 205.285 369.476 204.43C370.616 203.574 371.466 202.174 371.246 200.765V200.767Z" fill="white"/>
</g>
<path d="M300.754 371.368C308.568 381.538 322.469 386.611 334.858 383.406C340.994 381.864 346.627 378.722 351.943 375.154C357.29 371.599 362.442 367.643 368.012 364.177C379.17 357.31 391.636 352.576 404.533 350.406C410.91 349.105 418.708 349.489 423.22 354.878C427.796 359.816 428.198 367.89 424.168 373.21C427.619 367.784 426.99 360.156 422.362 355.684C417.83 350.834 410.947 350.91 404.868 352.249C392.284 354.75 380.156 359.474 369.272 366.218C363.814 369.557 358.668 373.496 353.185 377.048C347.713 380.564 341.814 383.813 335.281 385.223C322.364 388.24 307.956 382.373 300.752 371.368H300.754Z" fill="#FC4A1A"/>
<path d="M384.044 376.457C391.757 374.731 398.639 382.246 399.221 389.599C400.115 396.98 396.947 404.195 392.832 410.096C393.985 406.698 395.239 403.381 396.061 400.012C398.837 390.235 395.812 377.508 384.044 376.457Z" fill="#FC4A1A"/>
<path d="M389.959 377.561C398.251 380.383 407.283 377.642 412.632 370.712C410.277 380.082 397.109 384.048 389.959 377.561Z" fill="#FC4A1A"/>
<path d="M340.025 382.875C336.763 387.022 336.42 392.58 338.034 397.417C341.333 407.411 352.385 411.833 361.973 413.61C366.959 414.448 372.582 414.499 376.558 410.855C373.267 415.351 366.889 416.033 361.717 415.465C353.771 414.533 345.376 411.645 340.03 405.301C334.768 399.205 333.634 388.527 340.025 382.875Z" fill="#FC4A1A"/>
<path d="M375.725 426.713C377.344 414.816 377.745 406.636 364.762 402.001C379.119 402.412 381.563 415.804 375.725 426.713Z" fill="#FC4A1A"/>
<path d="M301.951 414.166C309.014 425.827 327.335 425.644 332.027 439.258C324.682 427.894 306.322 427.992 301.951 414.166Z" fill="#FC4A1A"/>
<path d="M441.692 328.115C434.442 327.845 429.94 333.504 423.733 336.412C417.428 339.34 409.778 339.793 403.411 336.976C406.802 337.405 410.135 337.424 413.386 336.978C416.628 336.515 419.789 335.63 422.713 334.24C428.412 331.572 434.79 325.727 441.691 328.114L441.692 328.115Z" fill="#FC4A1A"/>
<path d="M424.312 323.034C403.012 317.489 379.709 320.479 360.767 331.583C351.28 337.022 342.616 345.617 331.013 346.507C319.298 347.491 309.534 338.545 303.812 329.234C308.76 335.737 314.986 341.713 322.941 343.994C337.128 347.884 348.211 336.134 359.555 329.514C378.863 318.215 403.246 315.548 424.312 323.034Z" fill="#FC4A1A"/>
<path d="M302.209 276.65C313.374 266.92 330.387 279.533 341.434 269.371C349.107 262.982 354.295 251.603 364.967 248.789C368.403 247.711 371.887 247.183 375.235 246.464C381.907 245.189 388.183 242.24 393.264 237.796C403.587 229.118 407.826 213.319 401.386 201.114C398.297 195.056 392.831 190.121 386.214 187.927C393.01 189.601 398.862 194.443 402.418 200.55C409.785 213.168 405.605 230.177 394.769 239.498C389.431 244.278 382.695 247.442 375.731 248.812C370.651 249.889 365.586 250.423 361.098 252.943C353.523 257.287 349.5 265.535 342.589 270.836C330.137 281.455 314.353 267.668 302.209 276.65Z" fill="#FC4A1A"/>
<path d="M386.662 202.139C382.363 207.241 379.673 213.04 378.514 219.609C376.108 212.979 380.044 204.565 386.662 202.139Z" fill="#FC4A1A"/>
<path d="M388.15 221.788C373.588 218.581 359.113 222.995 345.538 228.097C335.314 231.965 323.304 235.787 312.843 230.524C309.492 228.831 306.485 226.259 304.837 222.93C306.949 225.963 309.972 228.179 313.323 229.45C327.601 235.054 341.629 225.996 355.24 222.331C365.851 219.328 377.584 217.921 388.15 221.788Z" fill="#FC4A1A"/>
<path d="M302.209 190.751C316.967 177.913 341.242 177.269 356.645 189.334C339.669 180.553 318.703 181.087 302.209 190.751Z" fill="#FC4A1A"/>
<path d="M392.923 247.486C419.82 257.915 438.754 286.031 438.273 314.879C435.1 286.384 418.133 261.148 392.923 247.486Z" fill="#FC4A1A"/>
<path d="M444.025 356.413C438.457 363.476 426.17 363.401 420.706 356.25C428.059 360.186 436.62 360.258 444.025 356.413Z" fill="#FC4A1A"/>
<path d="M349.923 336.121C343.583 329.07 341.695 319.124 341.308 309.895C340.128 284.818 359.407 279.149 380.697 280.38C390.034 281.09 399.232 283.92 407.301 288.618C398.836 284.78 389.73 282.631 380.584 282.25C368.063 282.07 350.998 283.494 345.487 296.665C343.734 300.74 343.23 305.326 343.173 309.872C343.234 318.97 344.421 328.547 349.921 336.122L349.923 336.121Z" fill="#FC4A1A"/>
<path d="M377.095 322.402C376.17 317.888 376.025 313.144 377.724 308.742C379.391 304.441 383.747 300.341 388.583 300.947C379.422 303.961 378.607 314.282 377.095 322.402Z" fill="#FC4A1A"/>
<path d="M360.787 252.575C365.663 260.904 375.596 263.626 384.694 263.147C387.802 263.044 390.937 262.687 394.135 262.417C388.164 264.888 381.524 266.11 375.067 264.843C368.734 263.554 362.268 259.11 360.787 252.575Z" fill="#FC4A1A"/>
<path d="M392.069 168.767C395.121 179.689 387.56 192.392 376.493 194.893C378.795 193.38 380.89 191.742 382.751 189.893C388.476 184.3 391.499 176.729 392.067 168.768L392.069 168.767Z" fill="#FC4A1A"/>
<path d="M385.819 452.837C370.638 456.601 353.319 451.714 342.364 440.544C355.33 448.874 370.409 453.154 385.819 452.837Z" fill="#FC4A1A"/>
<g opacity="0.2">
<path d="M315.658 240.876C312.622 245.47 311.562 254.815 314.964 259.145C318.366 263.474 324.646 265.28 329.827 263.418C334.441 261.76 337.712 257.748 341.278 254.382C347.18 248.808 354.44 244.681 362.249 242.46C364.42 241.842 366.697 241.339 368.513 239.998C370.328 238.656 371.543 236.172 370.643 234.102C369.354 231.142 365.182 231.151 362.032 231.862C354.331 233.599 346.984 236.604 339.442 238.931C331.9 241.258 323.956 242.918 316.134 241.854" fill="white"/>
</g>
<g opacity="0.2">
<path d="M384.682 291.822C384.491 290.875 382.237 289.76 380.068 289.121L380.965 289.292C380.347 289.118 379.721 288.984 379.092 288.866C378.471 288.725 377.884 288.63 377.391 288.607L377.517 288.631C370.931 287.881 364.018 290.029 359.133 294.532C353.383 299.83 350.639 308.191 352.129 315.865C352.446 317.497 352.992 319.18 354.226 320.296C355.756 321.679 358.069 321.896 360.063 321.362C365.171 319.996 368.085 314.731 370.153 309.864C372.222 304.997 374.395 299.6 379.096 297.179C380.341 296.538 381.717 296.141 382.872 295.349C384.028 294.557 384.96 293.195 384.683 291.822H384.682Z" fill="white"/>
</g>
<g opacity="0.2">
<path d="M421.022 282.606C417.822 277.804 413.287 274.052 408.605 270.679C406.811 269.387 404.832 268.088 402.622 268.09C400.41 268.091 394.79 271.265 395.24 273.43C407.178 278.999 417.498 287.983 424.658 299.04C425.972 293.42 424.223 287.407 421.022 282.606Z" fill="white"/>
</g>
<g opacity="0.2">
<path d="M409.063 302.551C407.563 300.963 405.895 299.753 404.056 298.971C400.931 297.641 397.381 298.753 395.646 301.673C395.4 302.087 395.18 302.515 394.993 302.963C394.181 304.905 394.08 307.248 395.189 309.036C396.181 310.637 398.016 311.585 399.882 311.842C401.747 312.097 403.646 311.734 405.445 311.177C408.25 310.308 411.36 308.37 410.507 305.009C410.27 304.075 409.724 303.251 409.063 302.551Z" fill="white"/>
</g>
<g opacity="0.2">
<path d="M331.53 282.515C326.485 281.039 320.501 282.053 315.28 282.661C313.219 282.902 310.882 283.522 309.998 285.4C309.421 286.627 309.655 288.12 310.315 289.306C310.975 290.491 312.013 291.418 313.082 292.253C316.756 295.127 321.043 297.211 325.572 298.326C327.936 298.908 330.692 299.143 332.564 297.586C334.813 295.716 334.68 292.288 334.351 289.382C334.064 286.844 333.605 284.002 331.529 282.514" fill="white"/>
</g>
<g opacity="0.3">
<path d="M300.754 371.368C308.568 381.538 322.469 386.611 334.858 383.406C340.994 381.864 346.627 378.722 351.943 375.154C357.29 371.599 362.442 367.643 368.012 364.177C379.17 357.31 391.636 352.576 404.533 350.406C410.91 349.105 418.708 349.489 423.22 354.878C427.796 359.816 428.198 367.89 424.168 373.21C427.619 367.784 426.99 360.156 422.362 355.684C417.83 350.834 410.947 350.91 404.868 352.249C392.284 354.75 380.156 359.474 369.272 366.218C363.814 369.557 358.668 373.496 353.185 377.048C347.713 380.564 341.814 383.813 335.281 385.223C322.364 388.24 307.956 382.373 300.752 371.368H300.754Z" fill="black"/>
<path d="M384.044 376.457C391.757 374.731 398.639 382.246 399.221 389.599C400.115 396.98 396.947 404.195 392.832 410.096C393.985 406.698 395.239 403.381 396.061 400.012C398.837 390.235 395.812 377.508 384.044 376.457Z" fill="black"/>
<path d="M389.959 377.561C398.251 380.383 407.283 377.642 412.632 370.712C410.277 380.082 397.109 384.048 389.959 377.561Z" fill="black"/>
<path d="M340.025 382.875C336.763 387.022 336.42 392.58 338.034 397.417C341.333 407.411 352.385 411.833 361.973 413.61C366.959 414.448 372.582 414.499 376.558 410.855C373.267 415.351 366.889 416.033 361.717 415.465C353.771 414.533 345.376 411.645 340.03 405.301C334.768 399.205 333.634 388.527 340.025 382.875Z" fill="black"/>
<path d="M375.725 426.713C377.344 414.816 377.745 406.636 364.762 402.001C379.119 402.412 381.563 415.804 375.725 426.713Z" fill="black"/>
<path d="M301.951 414.166C309.014 425.827 327.335 425.644 332.027 439.258C324.682 427.894 306.322 427.992 301.951 414.166Z" fill="black"/>
<path d="M441.692 328.115C434.442 327.845 429.94 333.504 423.733 336.412C417.428 339.34 409.778 339.793 403.411 336.976C406.802 337.405 410.135 337.424 413.386 336.978C416.628 336.515 419.789 335.63 422.713 334.24C428.412 331.572 434.79 325.727 441.691 328.114L441.692 328.115Z" fill="black"/>
<path d="M424.312 323.034C403.012 317.489 379.709 320.479 360.767 331.583C351.28 337.022 342.616 345.617 331.013 346.507C319.298 347.491 309.534 338.545 303.812 329.234C308.76 335.737 314.986 341.713 322.941 343.994C337.128 347.884 348.211 336.134 359.555 329.514C378.863 318.215 403.246 315.548 424.312 323.034Z" fill="black"/>
<path d="M302.209 276.65C313.374 266.92 330.387 279.533 341.434 269.371C349.107 262.982 354.295 251.603 364.967 248.789C368.403 247.711 371.887 247.183 375.235 246.464C381.907 245.189 388.183 242.24 393.264 237.796C403.587 229.118 407.826 213.319 401.386 201.114C398.297 195.056 392.831 190.121 386.214 187.927C393.01 189.601 398.862 194.443 402.418 200.55C409.785 213.168 405.605 230.177 394.769 239.498C389.431 244.278 382.695 247.442 375.731 248.812C370.651 249.889 365.586 250.423 361.098 252.943C353.523 257.287 349.5 265.535 342.589 270.836C330.137 281.455 314.353 267.668 302.209 276.65Z" fill="black"/>
<path d="M386.662 202.139C382.363 207.241 379.673 213.04 378.514 219.609C376.108 212.979 380.044 204.565 386.662 202.139Z" fill="black"/>
<path d="M388.15 221.788C373.588 218.581 359.113 222.995 345.538 228.097C335.314 231.965 323.304 235.787 312.843 230.524C309.492 228.831 306.485 226.259 304.837 222.93C306.949 225.963 309.972 228.179 313.323 229.45C327.601 235.054 341.629 225.996 355.24 222.331C365.851 219.328 377.584 217.921 388.15 221.788Z" fill="black"/>
<path d="M302.209 190.751C316.967 177.913 341.242 177.269 356.645 189.334C339.669 180.553 318.703 181.087 302.209 190.751Z" fill="black"/>
<path d="M392.923 247.486C419.82 257.915 438.754 286.031 438.273 314.879C435.1 286.384 418.133 261.148 392.923 247.486Z" fill="black"/>
<path d="M445.872 355.602C440.304 362.665 428.016 362.59 422.552 355.439C429.906 359.375 438.467 359.447 445.872 355.602Z" fill="black"/>
<path d="M349.923 336.121C343.583 329.07 341.695 319.124 341.308 309.895C340.128 284.818 359.407 279.149 380.697 280.38C390.034 281.09 399.232 283.92 407.301 288.618C398.836 284.78 389.73 282.631 380.584 282.25C368.063 282.07 350.998 283.494 345.487 296.665C343.734 300.74 343.23 305.326 343.173 309.872C343.234 318.97 344.421 328.547 349.921 336.122L349.923 336.121Z" fill="black"/>
<path d="M377.095 322.402C376.17 317.888 376.025 313.144 377.724 308.742C379.391 304.441 383.747 300.341 388.583 300.947C379.422 303.961 378.607 314.282 377.095 322.402Z" fill="black"/>
<path d="M360.787 252.575C365.663 260.904 375.596 263.626 384.694 263.147C387.802 263.044 390.937 262.687 394.135 262.417C388.164 264.888 381.524 266.11 375.067 264.843C368.734 263.554 362.268 259.11 360.787 252.575Z" fill="black"/>
<path d="M392.069 168.767C395.121 179.689 387.56 192.392 376.493 194.893C378.795 193.38 380.89 191.742 382.751 189.893C388.476 184.3 391.499 176.729 392.067 168.768L392.069 168.767Z" fill="black"/>
<path d="M385.819 452.837C370.638 456.601 353.319 451.714 342.364 440.544C355.33 448.874 370.409 453.154 385.819 452.837Z" fill="black"/>
</g>
<g opacity="0.1">
<path d="M367.246 366.292C359.989 370.728 353.119 375.84 345.486 379.591C337.853 383.342 329.185 385.696 320.825 384.131L314.207 382.45C321.564 387.677 330.549 390.893 339.559 390.383C348.514 389.875 356.913 385.789 364.311 380.718C371.709 375.647 378.349 369.55 385.621 364.3C392.893 359.048 400.272 352.556 409.165 351.392C394.098 350.536 380.122 358.42 367.246 366.292Z" fill="black"/>
</g>
<g opacity="0.1">
<path d="M343.855 295.387C337.822 301.028 334.634 309.575 335.502 317.789C336.37 326.004 342.842 331.864 349.922 336.12C342.232 323.184 341.513 309.384 343.855 295.386" fill="black"/>
</g>
<g opacity="0.1">
<path d="M370.884 262.288C366.701 259.63 361.996 257.382 360.787 252.576C355.482 256.165 353.267 259.447 349.002 264.226C344.737 269.005 339.527 273.502 333.189 274.427L331.143 274.435C336.313 277.474 343.157 276.114 348.083 272.693C353.009 269.272 356.436 264.145 359.745 259.143C362.105 263.442 366.358 266.658 371.137 267.757C375.917 268.857 381.148 267.821 385.149 264.984C380.284 265.932 375.069 264.946 370.885 262.288H370.884Z" fill="black"/>
</g>
<g opacity="0.1">
<path d="M372.385 217.246C361.138 217.157 349.9 221.054 341.122 228.088L342.115 228.286C353.088 222.56 365.527 219.673 377.9 219.983C377.81 213.588 379.946 207.184 383.857 202.123C377.844 204.836 373.376 210.725 372.385 217.246Z" fill="black"/>
</g>
<path d="M404.832 529.067C408.659 522.439 416.672 519.903 422.731 523.402C428.791 526.9 430.601 535.109 426.775 541.737C422.948 548.364 414.935 550.901 408.876 547.402C402.816 543.904 401.006 535.695 404.833 529.067H404.832Z" fill="#FC4A1A"/>
<path d="M509.671 347.424L532.147 332.116L531.599 360.084L427.224 540.866L405.296 528.207L509.671 347.424Z" fill="#FC4A1A"/>
<path d="M532.013 339.502C529.262 339.792 527.322 338.692 526.199 336.165L509.671 347.425C509.671 347.425 508.878 353.167 514.908 350.865C514.908 350.865 515.207 356.748 521.16 354.474C521.16 354.474 521.873 359.434 526.614 357.623C526.614 357.623 527.39 361.691 531.598 360.084L532.012 339.502H532.013Z" fill="#B97964"/>
<path opacity="0.1" d="M521.223 354.541L418.153 535.96L423.258 538.907C424.199 539.152 526.677 357.69 526.677 357.69C521.935 359.501 521.223 354.541 521.223 354.541Z" fill="white"/>
<path opacity="0.1" d="M514.889 350.936C511.564 352.206 510.316 351.03 509.863 349.719L407.514 529.868L412.619 532.816C413.515 533.048 506.459 368.556 515.355 352.81C514.937 351.845 514.89 350.936 514.89 350.936H514.889Z" fill="white"/>
<path d="M403.424 530.136L426.649 543.544L428.686 540.016L405.461 526.607L403.424 530.136Z" fill="#263238"/>
<path d="M500.325 113.811C479.365 104.232 454.609 113.456 445.03 134.415C439.831 145.789 440.008 158.894 445.511 170.124C446.535 172.166 448.283 174.865 446.752 178.173C446.705 178.274 443.228 186.585 443.228 186.585L483.355 204.359C483.355 204.359 487.315 195.877 487.358 195.78C488.658 192.846 491.49 192.587 493.749 192.005C505.776 188.82 515.748 180.419 520.927 169.105C530.507 148.146 521.283 123.39 500.323 113.81L500.325 113.811Z" fill="#FC4A1A"/>
<path opacity="0.1" d="M500.325 113.811C479.365 104.232 454.609 113.456 445.03 134.415C439.831 145.789 440.008 158.894 445.511 170.124C446.535 172.166 448.283 174.865 446.752 178.173C446.705 178.274 443.228 186.585 443.228 186.585L483.355 204.359C483.355 204.359 487.315 195.877 487.358 195.78C488.658 192.846 491.49 192.587 493.749 192.005C505.776 188.82 515.748 180.419 520.927 169.105C530.507 148.146 521.283 123.39 500.323 113.81L500.325 113.811Z" fill="white"/>
<path d="M447.189 153.422C446.377 146.15 448.084 138.739 451.992 132.554C455.899 126.368 461.861 121.646 468.775 119.256L468.972 119.823C462.185 122.169 456.334 126.804 452.497 132.875C448.663 138.945 446.988 146.22 447.783 153.356L447.187 153.423L447.189 153.422Z" fill="white"/>
<path d="M479.53 192.422L478.332 192.358C478.657 186.331 479.382 180.3 480.494 174.313C477.742 175.196 475.168 175.132 473.123 174.104C471.46 173.268 470.078 171.792 468.938 169.624C466.357 174.772 463.175 179.608 459.463 183.989L458.546 183.214C462.4 178.666 465.672 173.62 468.282 168.24C468.114 167.846 467.953 167.436 467.797 167.005C465.505 160.691 465.946 154.325 468.974 149.975C470.112 148.342 471.98 147.034 473.585 147.793C475.05 148.487 475.492 150.442 474.832 153.298C473.636 158.465 471.875 163.489 469.604 168.262C470.701 170.648 472.037 172.217 473.662 173.034C476.105 174.262 478.926 173.633 480.752 172.954C481.639 168.425 482.748 163.924 484.076 159.473C484.554 157.873 485.064 156.329 486.029 155.042C487.204 153.473 488.906 152.657 490.369 152.963C492.914 153.496 493.684 156.81 493.128 159.809C492.016 165.815 487.643 171.287 481.987 173.752C481.926 173.777 481.866 173.803 481.807 173.828C480.63 179.995 479.867 186.214 479.531 192.425L479.53 192.422ZM489.733 154.096C488.702 154.096 487.642 154.89 486.99 155.76C486.143 156.89 485.672 158.323 485.227 159.815C483.989 163.966 482.942 168.161 482.09 172.38C487.037 169.98 490.962 164.917 491.95 159.587C492.394 157.188 491.832 154.493 490.124 154.135C489.996 154.109 489.865 154.096 489.734 154.096H489.733ZM472.592 148.774C471.725 148.774 470.669 149.642 469.961 150.66C467.154 154.691 466.768 160.648 468.926 166.596C468.947 166.649 468.965 166.702 468.985 166.754C470.998 162.358 472.571 157.752 473.664 153.026C473.854 152.208 474.37 149.491 473.074 148.878C472.924 148.806 472.762 148.774 472.594 148.774H472.592Z" fill="#263238"/>
<path d="M487.265 203.19L441.681 182.999C440.709 182.569 439.572 183.008 439.141 183.98L438.555 185.303C438.125 186.275 438.564 187.412 439.536 187.842L485.12 208.033C486.092 208.463 487.228 208.025 487.659 207.053L488.245 205.729C488.676 204.757 488.237 203.62 487.265 203.19Z" fill="#263238"/>
<path opacity="0.1" d="M487.265 203.19L441.681 182.999C440.709 182.569 439.572 183.008 439.141 183.98L438.555 185.303C438.125 186.275 438.564 187.412 439.536 187.842L485.12 208.033C486.092 208.463 487.228 208.025 487.659 207.053L488.245 205.729C488.676 204.757 488.237 203.62 487.265 203.19Z" fill="white"/>
<path d="M484.516 207.245L440.524 187.759C439.552 187.329 438.415 187.768 437.985 188.74L437.468 189.906C437.038 190.878 437.476 192.015 438.448 192.446L482.44 211.931C483.412 212.361 484.549 211.922 484.98 210.95L485.496 209.784C485.927 208.812 485.488 207.675 484.516 207.245Z" fill="#263238"/>
<path opacity="0.1" d="M484.516 207.245L440.524 187.759C439.552 187.329 438.415 187.768 437.985 188.74L437.468 189.906C437.038 190.878 437.476 192.015 438.448 192.446L482.44 211.931C483.412 212.361 484.549 211.922 484.98 210.95L485.496 209.784C485.927 208.812 485.488 207.675 484.516 207.245Z" fill="white"/>
<path d="M442.413 202.199C442.985 209.037 446.747 217.643 453.175 220.048C459.603 222.452 467.837 219.733 472.757 214.949L442.413 202.199Z" fill="#263238"/>
<path d="M477.873 214.41L439.682 197.494C438.71 197.064 437.573 197.503 437.142 198.475L436.626 199.641C436.195 200.613 436.634 201.75 437.606 202.18L475.797 219.096C476.769 219.527 477.906 219.088 478.337 218.116L478.853 216.95C479.284 215.978 478.845 214.841 477.873 214.41Z" fill="#263238"/>
<path opacity="0.1" d="M477.873 214.41L439.682 197.494C438.71 197.064 437.573 197.503 437.142 198.475L436.626 199.641C436.195 200.613 436.634 201.75 437.606 202.18L475.797 219.096C476.769 219.527 477.906 219.088 478.337 218.116L478.853 216.95C479.284 215.978 478.845 214.841 477.873 214.41Z" fill="white"/>
<path d="M482.036 211.112L439.327 192.194C438.355 191.764 437.218 192.203 436.787 193.175L436.271 194.341C435.84 195.313 436.279 196.45 437.251 196.88L479.96 215.798C480.932 216.228 482.069 215.789 482.5 214.817L483.016 213.651C483.447 212.679 483.008 211.542 482.036 211.112Z" fill="#263238"/>
<path opacity="0.1" d="M482.036 211.112L439.327 192.194C438.355 191.764 437.218 192.203 436.787 193.175L436.271 194.341C435.84 195.313 436.279 196.45 437.251 196.88L479.96 215.798C480.932 216.228 482.069 215.789 482.5 214.817L483.016 213.651C483.447 212.679 483.008 211.542 482.036 211.112Z" fill="white"/>
<path d="M484.868 90.3419C486.483 94.5263 488.098 98.7107 489.713 102.894C489.92 103.429 490.79 103.196 490.581 102.655C488.966 98.4707 487.35 94.2863 485.735 90.1031C485.529 89.5679 484.659 89.8007 484.868 90.3419Z" fill="#263238"/>
<path d="M505.109 105.751C507.539 100.265 509.969 94.7796 512.399 89.2932C512.632 88.7688 511.856 88.3104 511.621 88.8384C509.191 94.3248 506.761 99.81 504.331 105.296C504.098 105.821 504.874 106.279 505.109 105.751Z" fill="#263238"/>
<path d="M515.354 115.165C519.877 113.419 524.401 111.672 528.924 109.926C529.459 109.72 529.226 108.85 528.685 109.058C524.161 110.804 519.638 112.55 515.116 114.298C514.58 114.504 514.813 115.374 515.354 115.165Z" fill="#263238"/>
<path d="M323.713 86.7121L324.683 113.358L297.531 127.608L275.736 110.869L274.032 59.4073L283.38 54.6973L323.713 86.7121Z" fill="#263238"/>
<path d="M329.775 123.37L302.613 137.632L297.516 127.5L324.669 113.249L329.775 123.37Z" fill="#263238"/>
<path opacity="0.3" d="M323.713 86.7121L324.683 113.358L297.531 127.608L275.736 110.869L274.032 59.4073L283.38 54.6973L323.713 86.7121Z" fill="white"/>
<path d="M279.516 56.5788L277.538 57.5745L301.577 105.318L303.554 104.323L279.516 56.5788Z" fill="#263238"/>
<path d="M305.308 99.2281C306.563 101.727 305.555 104.769 303.057 106.024C300.558 107.279 297.516 106.271 296.261 103.773C295.006 101.274 296.014 98.2321 298.512 96.9769L298.521 96.9721C301.018 95.7229 304.054 96.7333 305.308 99.2281Z" fill="#263238"/>
<path d="M141.342 88.8106L140.452 88.9395L145.688 125.15L146.579 125.021L141.342 88.8106Z" fill="#263238"/>
<path d="M183.476 106.843L152.896 125.443L153.363 126.212L183.943 107.612L183.476 106.843Z" fill="#263238"/>
<path d="M159.162 142.304L158.748 143.103L176.619 152.373L177.034 151.574L159.162 142.304Z" fill="#263238"/>
<path d="M183.238 144.598C187.895 147.013 189.713 152.747 187.296 157.405C184.88 162.063 179.147 163.881 174.49 161.464C169.832 159.048 168.014 153.315 170.431 148.656C172.847 143.999 178.58 142.181 183.239 144.598H183.238Z" fill="#FC4A1A"/>
<path opacity="0.3" d="M183.238 144.598C187.895 147.013 189.713 152.747 187.296 157.405C184.88 162.063 179.147 163.881 174.49 161.464C169.832 159.048 168.014 153.315 170.431 148.656C172.847 143.999 178.58 142.181 183.239 144.598H183.238Z" fill="black"/>
<path d="M191.526 97.3957C197.45 100.468 199.761 107.76 196.689 113.683C193.617 119.607 186.324 121.918 180.4 118.846C174.477 115.774 172.166 108.481 175.238 102.557C178.31 96.6325 185.602 94.3237 191.526 97.3957Z" fill="#FC4A1A"/>
<path d="M143.664 83.6161C146.922 85.3057 148.194 89.3173 146.503 92.5765C144.814 95.8345 140.802 97.1065 137.543 95.4169C134.285 93.7273 133.013 89.7157 134.704 86.4565C136.393 83.1985 140.405 81.9253 143.664 83.6161Z" fill="#FC4A1A"/>
<path opacity="0.3" d="M143.664 83.6161C146.922 85.3057 148.194 89.3173 146.503 92.5765C144.814 95.8345 140.802 97.1065 137.543 95.4169C134.285 93.7273 133.013 89.7157 134.704 86.4565C136.393 83.1985 140.405 81.9253 143.664 83.6161Z" fill="black"/>
<path d="M144.42 138.873L143.534 139.032L149.888 174.53L150.774 174.371L144.42 138.873Z" fill="#263238"/>
<path d="M102.81 155.396L102.374 154.609L140.379 133.496L103.544 119.011L103.872 118.174L142.484 133.356L102.81 155.396Z" fill="#263238"/>
<path d="M107.046 112.156C110.601 113.999 111.988 118.375 110.145 121.93C108.302 125.484 103.925 126.871 100.371 125.028C96.8164 123.185 95.4292 118.809 97.2724 115.254C99.1156 111.7 103.492 110.313 107.046 112.156Z" fill="#FC4A1A"/>
<path d="M153.058 169.194C158.273 171.9 160.308 178.32 157.604 183.537C154.899 188.752 148.478 190.787 143.261 188.082C138.046 185.377 136.011 178.956 138.716 173.74C141.42 168.523 147.842 166.489 153.058 169.194Z" fill="#FC4A1A"/>
<path d="M104.543 145.11C111.652 148.798 114.426 157.549 110.739 164.659C107.051 171.768 98.2982 174.542 91.1894 170.855C84.0806 167.167 81.3063 158.414 84.9939 151.306C88.6815 144.197 97.4343 141.422 104.543 145.11Z" fill="#FC4A1A"/>
<path d="M150.216 152.528C161.328 148.974 167.456 137.083 163.901 125.97C160.346 114.858 148.456 108.73 137.343 112.285C126.23 115.84 120.103 127.73 123.658 138.843C127.212 149.956 139.103 156.083 150.216 152.528Z" fill="#FC4A1A"/>
<path opacity="0.1" d="M150.216 152.528C161.328 148.974 167.456 137.083 163.901 125.97C160.346 114.858 148.456 108.73 137.343 112.285C126.23 115.84 120.103 127.73 123.658 138.843C127.212 149.956 139.103 156.083 150.216 152.528Z" fill="white"/>
</g>
</svg>
