<svg width="65" height="65" viewBox="0 0 65 65" fill="none" xmlns="http://www.w3.org/2000/svg">
<g clip-path="url(#clip0_184_228)">
<path d="M17.9091 17.6962L13.708 13.4951L13.7258 43.8623L13.7761 45.2816C13.7969 45.9494 13.9208 46.703 14.1275 47.484L47.4156 59.2221L55.7366 55.5354L55.7397 55.5252L17.9091 17.6962Z" fill="#00D2B8"/>
<path d="M14.1272 47.484L14.1293 47.486C14.1272 47.4723 14.1201 47.4571 14.1201 47.4429C14.1201 47.4571 14.1221 47.4703 14.1272 47.484ZM55.7364 55.5354L47.4154 59.2221L14.1293 47.486C14.765 49.9256 16.1727 52.6678 17.6875 54.1673L28.5506 64.9685L52.7047 65L55.7394 55.5252L55.7364 55.5354Z" fill="#55DDCA"/>
<path d="M0.770259 33.0373C-0.305288 34.1854 0.228931 36.5539 1.96057 38.2987L9.42999 45.8301L14.1273 47.484C13.9206 46.703 13.7967 45.9494 13.7758 45.2816L13.7256 43.8623L13.7078 13.4951L0.770259 33.0373Z" fill="#0081C6"/>
<path d="M47.6888 13.8851C46.9078 13.6855 46.1587 13.5621 45.4798 13.5408L43.9797 13.489L13.708 13.4931L55.7437 55.5252H55.7473L59.4391 47.1961L47.6888 13.8851Z" fill="#0079B3"/>
<path d="M47.6504 13.877C47.6666 13.8805 47.6793 13.8851 47.69 13.8866L47.6885 13.8851C47.6793 13.8805 47.6666 13.8805 47.6504 13.877ZM54.3657 17.4514C52.8402 15.9133 50.1341 14.5153 47.69 13.8866L59.4388 47.1961L55.747 55.5252H55.7434L64.7652 52.6439L64.7845 27.9093L54.3657 17.4514Z" fill="#00A4E4"/>
<path d="M46.043 9.2163L38.5136 1.74232C36.7723 0.017277 34.4029 -0.519481 33.2578 0.553019L13.708 13.4931L43.9797 13.489L45.4798 13.5408C46.1587 13.5622 46.9078 13.6856 47.6888 13.8851L46.043 9.2163Z" fill="#00D2B8"/>
</g>
<defs>
<clipPath id="clip0_184_228">
<rect width="65" height="65" fill="white"/>
</clipPath>
</defs>
</svg>
