<svg width="65" height="65" viewBox="0 0 65 65" fill="none" xmlns="http://www.w3.org/2000/svg">
<path d="M34.7344 32.5C34.7344 27.2635 38.8741 23.0222 43.9766 23.0222C49.0831 23.0222 53.2188 27.2594 53.2188 32.5C53.2188 37.7366 49.0831 41.9778 43.9766 41.9778C38.8781 41.9778 34.7344 37.7407 34.7344 32.5Z" fill="#1ABCFE"/>
<path d="M16.25 51.4597C16.25 46.2231 20.3897 41.9778 25.4922 41.9778H34.7344V51.4597C34.7344 56.6922 30.5947 60.9375 25.4922 60.9375C20.3897 60.9375 16.25 56.6922 16.25 51.4597Z" fill="#0ACF83"/>
<path d="M34.7344 4.0625V23.0222H43.9766C49.0831 23.0222 53.2188 18.7769 53.2188 13.5403C53.2188 8.30781 49.0831 4.0625 43.9766 4.0625H34.7344Z" fill="#FF7262"/>
<path d="M16.25 13.5403C16.25 18.7769 20.3897 23.0222 25.4922 23.0222H34.7344V4.0625H25.4922C20.3897 4.0625 16.25 8.30781 16.25 13.5403Z" fill="#F24E1E"/>
<path d="M16.25 32.5C16.25 37.7366 20.3897 41.9778 25.4922 41.9778H34.7344V23.0222H25.4922C20.3897 23.0222 16.25 27.2594 16.25 32.5Z" fill="#A259FF"/>
</svg>
