<svg width="623" height="388" viewBox="0 0 623 388" fill="none" xmlns="http://www.w3.org/2000/svg">
<path opacity="0.2" d="M614.167 60.3694C602.756 65.6616 590.431 70.3492 577.362 74.3677C510.022 95.9051 433.951 108.804 356.568 115.093C279.184 121.382 200.395 121.192 122.42 117.723C107.106 117.043 91.5332 116.203 77.4585 112.863C65.5291 110.023 54.7095 105.084 49.7158 98.6948C66.6018 88.2961 82.3042 77.7773 99.782 67.8485C103.95 65.4821 108.216 63.1491 112.581 60.8493C116.28 58.9396 119.979 57.0598 123.937 55.22C128.412 53.1503 132.907 51.0405 137.66 49.0408C144.226 46.2811 151.143 43.6314 158.541 41.1017C160.39 40.4718 162.24 39.8619 163.96 39.2619C348.375 -22.7306 484.11 -2.47305 574.662 39.2619C581.53 42.4482 588.139 45.7078 594.489 49.0408C598.336 51.0405 602.053 53.1303 605.586 55.23C605.993 55.45 606.362 55.68 606.751 55.9199C609.303 57.4064 611.775 58.8896 614.167 60.3694Z" fill="black"/>
<path d="M621.455 50.4305L1 51.9603L10.377 44.3512C12.6013 42.5527 15.611 41.0781 19.1401 40.0579C22.6691 39.0377 26.6087 38.5033 30.6106 38.502H592.048C595.683 38.5025 599.271 38.9438 602.549 39.7934C605.826 40.6431 608.71 41.8794 610.986 43.4114L621.455 50.4305Z" fill="white" stroke="#263238" stroke-linecap="round" stroke-linejoin="round"/>
<path d="M322.038 100.705H288.044C253.161 100.705 224.883 115.992 224.883 134.851V153.228C224.883 172.087 253.161 187.374 288.044 187.374H322.038C356.92 187.374 385.198 172.087 385.198 153.228V134.851C385.198 115.992 356.92 100.705 322.038 100.705Z" fill="#757575" stroke="#263238" stroke-linecap="round" stroke-linejoin="round"/>
<path d="M254.013 151.369V163.687C254.013 165.543 255.377 167.324 257.805 168.636C260.233 169.949 263.526 170.686 266.959 170.686H345.138C348.556 170.686 351.835 169.956 354.26 168.654C356.685 167.352 358.06 165.585 358.085 163.737C358.177 158.188 358.732 151.369 358.732 151.369H254.013Z" fill="#999999" stroke="#263238" stroke-linecap="round" stroke-linejoin="round"/>
<path d="M540.15 155.478H82.9329C80.5815 155.481 78.2829 155.101 76.3365 154.387C74.3902 153.674 72.8863 152.66 72.0208 151.478L1.49904 53.6001C1.07228 53.01 0.91796 52.3725 1.04943 51.7429C1.1809 51.1132 1.5942 50.5104 2.25356 49.9865C2.91292 49.4627 3.79847 49.0336 4.83359 48.7364C5.86871 48.4391 7.02221 48.2828 8.19426 48.2808H614.833C616.008 48.2795 617.166 48.4335 618.206 48.7294C619.246 49.0252 620.137 49.454 620.8 49.9783C621.464 50.5026 621.881 51.1067 622.014 51.7379C622.147 52.3691 621.993 53.0084 621.565 53.6001L551.044 151.448C550.188 152.634 548.691 153.653 546.747 154.372C544.804 155.091 542.505 155.476 540.15 155.478Z" fill="#BFBFBF" stroke="#263238" stroke-linecap="round" stroke-linejoin="round"/>
<path d="M543.535 146.959H78.4393L14.4463 54.48H607.232L543.535 146.959Z" fill="#263238"/>
<path d="M358.196 155.348H254.512V159.188H358.196V155.348Z" fill="#263238"/>
<path d="M475.602 143.029H147.166C145.317 143.029 143.652 142.589 143.319 142.03L96.6009 61.7492C96.083 60.8493 97.5441 60.1194 99.8745 60.1194H522.894C525.225 60.1194 526.593 60.8493 526.149 61.7492L479.449 142.03C479.116 142.539 477.396 143.029 475.602 143.029Z" fill="url(#paint0_linear_184_450)"/>
<path d="M474.382 141.16H148.387L108.678 70.6582H514.091L474.382 141.16Z" fill="#263238"/>
<path d="M195.18 88.1663H133.462C131.927 88.1663 130.928 88.6063 131.224 89.1663C131.52 89.4893 131.989 89.7571 132.569 89.9353C133.149 90.1135 133.814 90.1939 134.479 90.1663H195.846C197.362 90.1663 198.435 89.7263 198.268 89.1663C198.102 88.6063 196.696 88.1663 195.18 88.1663Z" fill="white"/>
<path d="M197.233 94.2554H144.744C143.246 94.2554 142.247 94.6854 142.524 95.2554C142.82 95.5643 143.278 95.8191 143.841 95.9881C144.403 96.157 145.045 96.2326 145.687 96.2054H197.88C199.378 96.2054 200.432 95.7754 200.266 95.2554C200.1 94.7354 198.694 94.2554 197.233 94.2554Z" fill="white"/>
<path opacity="0.5" d="M199.23 100.135H139.676C138.197 100.135 137.235 100.555 137.494 101.055C137.795 101.357 138.253 101.606 138.811 101.769C139.37 101.933 140.005 102.004 140.638 101.975H199.822C201.283 101.975 202.338 101.565 202.171 101.055C202.005 100.545 200.71 100.135 199.23 100.135Z" fill="white"/>
<path d="M201.154 105.814H166.179C164.737 105.814 163.738 106.214 163.96 106.704C164.182 107.194 165.532 107.594 166.975 107.594H201.764C203.207 107.594 204.242 107.194 204.076 106.704C203.909 106.214 202.596 105.814 201.154 105.814Z" fill="white"/>
<path d="M203.022 111.293H145.466C144.06 111.293 143.098 111.683 143.357 112.163C143.616 112.643 144.948 113.013 146.372 113.013H203.596C205.02 113.013 206.037 112.633 205.889 112.163C205.741 111.693 204.446 111.293 203.022 111.293Z" fill="white"/>
<path d="M204.816 116.603H158.357C156.951 116.603 156.008 116.973 156.23 117.433C156.452 117.893 157.765 118.263 159.152 118.263H205.39C206.777 118.263 207.775 117.893 207.627 117.433C207.48 116.973 206.222 116.603 204.816 116.603Z" fill="white"/>
<path d="M206.554 121.732H160.853C159.466 121.732 158.541 122.092 158.763 122.532C158.985 122.972 160.261 123.342 161.63 123.342H207.109C208.478 123.342 209.458 122.982 209.31 122.532C209.162 122.082 207.941 121.732 206.554 121.732Z" fill="white"/>
<path d="M208.237 126.691H158.301C156.951 126.691 156.026 127.041 156.248 127.471C156.47 127.901 157.727 128.251 159.077 128.251H208.7C210.05 128.251 211.03 127.901 210.882 127.471C210.734 127.041 209.606 126.691 208.237 126.691Z" fill="white"/>
<path opacity="0.5" d="M209.883 131.501H177.665C176.333 131.501 175.408 131.841 175.593 132.261C175.778 132.681 177.018 133.011 178.331 133.011H210.383C211.714 133.011 212.676 132.671 212.547 132.261C212.417 131.851 211.215 131.501 209.883 131.501Z" fill="white"/>
<path opacity="0.5" d="M193.035 81.8469H147.037C145.484 81.8469 144.448 82.3069 144.726 82.8469C145.021 83.1726 145.492 83.4423 146.076 83.6207C146.66 83.7992 147.331 83.878 147.999 83.8469H193.719C195.273 83.8469 196.364 83.3969 196.179 82.8469C195.921 82.5204 195.477 82.2471 194.911 82.0671C194.345 81.8871 193.688 81.8099 193.035 81.8469Z" fill="white"/>
<path d="M190.797 75.2976H126.767C125.195 75.2976 124.159 75.7776 124.473 76.3676C124.785 76.7057 125.274 76.9866 125.879 77.1751C126.484 77.3637 127.179 77.4515 127.876 77.4276H191.518C193.09 77.4276 194.218 76.9476 194.015 76.3676C193.768 76.0238 193.32 75.7332 192.739 75.54C192.158 75.3468 191.476 75.2617 190.797 75.2976Z" fill="white"/>
<path d="M211.456 136.16H158.394C157.081 136.16 156.193 136.49 156.396 136.89C156.6 137.29 157.839 137.62 159.152 137.62H211.955C213.25 137.62 214.212 137.3 214.082 136.89C213.953 136.48 212.769 136.16 211.456 136.16Z" fill="white"/>
<path opacity="0.5" d="M216.856 90.3863H228.823L228.231 87.9163H216.172L216.856 90.3863Z" fill="white"/>
<path opacity="0.5" d="M218.521 96.4054H230.284L229.71 94.0154H217.855L218.521 96.4054Z" fill="white"/>
<path opacity="0.5" d="M220.13 102.205H231.689L231.134 99.9048H219.501L220.13 102.205Z" fill="white"/>
<path opacity="0.5" d="M221.683 107.814H233.058L232.503 105.594H221.073L221.683 107.814Z" fill="white"/>
<path opacity="0.5" d="M223.2 113.233H234.371L233.834 111.083H222.608L223.2 113.233Z" fill="white"/>
<path opacity="0.5" d="M224.643 118.473H235.629L235.129 116.393H224.069L224.643 118.473Z" fill="white"/>
<path opacity="0.5" d="M226.067 123.542H236.868L236.387 121.532H225.512L226.067 123.542Z" fill="white"/>
<path opacity="0.5" d="M227.417 128.441H238.051L237.589 126.501H226.88L227.417 128.441Z" fill="white"/>
<path opacity="0.5" d="M228.748 133.201H239.216L238.754 131.311H228.212L228.748 133.201Z" fill="white"/>
<path opacity="0.5" d="M215.118 84.1569H227.306L226.696 81.5969H214.415L215.118 84.1569Z" fill="white"/>
<path opacity="0.5" d="M213.324 77.6876H225.734L225.105 75.0276H212.584L213.324 77.6876Z" fill="white"/>
<path opacity="0.5" d="M230.025 137.81H240.326L239.883 135.98H229.507L230.025 137.81Z" fill="white"/>
<path d="M293.111 127.471C293.111 127.041 294.147 126.691 295.497 126.691H472.717C474.067 126.691 474.974 127.041 474.752 127.471C474.461 127.733 474.04 127.946 473.536 128.084C473.032 128.222 472.466 128.28 471.903 128.251H295.59C294.24 128.251 293.13 127.901 293.111 127.471Z" fill="white"/>
<path d="M474.511 123.342H376.376C375.008 123.342 373.972 122.982 374.064 122.532C374.157 122.082 375.341 121.732 376.728 121.732H475.362C476.731 121.732 477.655 122.092 477.415 122.532C477.126 122.804 476.699 123.024 476.184 123.168C475.669 123.312 475.088 123.372 474.511 123.342Z" fill="white"/>
<path opacity="0.5" d="M353.091 123.342H322.611C321.242 123.342 320.133 122.982 320.151 122.532C320.17 122.082 321.279 121.732 322.666 121.732H353.313C354.681 121.732 355.754 122.092 355.68 122.532C355.606 122.972 354.459 123.342 353.091 123.342Z" fill="white"/>
<path d="M416.788 118.263H278.371C276.984 118.263 275.819 117.893 275.763 117.433C275.708 116.973 276.799 116.603 278.205 116.603H417.362C418.749 116.603 419.766 116.973 419.6 117.433C419.433 117.893 418.194 118.263 416.788 118.263Z" fill="white"/>
<path opacity="0.5" d="M249.426 116.603H259.302C260.689 116.603 261.892 116.973 261.965 117.433C262.039 117.893 260.967 118.263 259.58 118.263H249.759C248.372 118.263 247.169 117.893 247.077 117.433C246.984 116.973 248.039 116.603 249.426 116.603Z" fill="white"/>
<path d="M436.818 112.163C436.633 112.633 435.338 113.013 433.914 113.013H303.487C302.063 113.013 300.916 112.633 300.898 112.163C300.879 111.693 302.026 111.293 303.432 111.293H434.58C436.004 111.293 437.003 111.683 436.818 112.163Z" fill="white"/>
<path d="M248.391 111.293H285.381C286.805 111.293 287.989 111.683 288.026 112.163C288.063 112.643 286.934 113.013 285.529 113.013H248.724C247.318 113.013 246.097 112.633 245.986 112.163C245.875 111.693 246.967 111.293 248.391 111.293Z" fill="white"/>
<path d="M247.299 105.814H389.6C391.043 105.814 392.116 106.214 391.986 106.704C391.857 107.194 390.599 107.594 389.156 107.594H247.65C246.226 107.594 244.969 107.194 244.876 106.704C244.784 106.214 245.856 105.814 247.299 105.814Z" fill="white"/>
<path d="M339.682 101.975C338.221 101.975 337.074 101.565 337.111 101.055C337.148 100.545 338.369 100.135 339.849 100.135H414.92C416.4 100.135 417.454 100.555 417.287 101.055C417.121 101.555 415.808 101.975 414.347 101.975H339.682Z" fill="white"/>
<path d="M246.19 100.135H311.163C312.642 100.135 313.826 100.555 313.826 101.055C313.826 101.555 312.624 101.975 311.163 101.975H246.56C245.08 101.975 243.822 101.565 243.711 101.055C243.6 100.545 244.71 100.135 246.19 100.135Z" fill="white"/>
<path d="M488.937 96.1653H310.071C308.592 96.1653 307.371 95.7353 307.371 95.2153C307.371 94.6953 308.573 94.2153 310.071 94.2153H489.936C491.434 94.2153 492.414 94.6453 492.137 95.2153C491.831 95.5241 491.366 95.7783 490.798 95.9469C490.23 96.1155 489.584 96.1914 488.937 96.1653Z" fill="white"/>
<path d="M492.118 90.1462H334.744C333.227 90.1462 332.025 89.7062 332.062 89.1462C332.099 88.5862 333.357 88.1462 334.873 88.1462H493.173C494.689 88.1462 495.688 88.5862 495.392 89.1462C495.09 89.4692 494.618 89.7366 494.036 89.9146C493.453 90.0926 492.786 90.1732 492.118 90.1462Z" fill="white"/>
<path opacity="0.5" d="M495.448 83.8969H462.489C460.936 83.8969 459.882 83.4469 460.122 82.8969C460.41 82.5703 460.877 82.2993 461.459 82.1205C462.041 81.9417 462.711 81.8636 463.377 81.8969H496.465C498.018 81.8969 499.036 82.3569 498.721 82.8969C498.414 83.2174 497.941 83.4825 497.359 83.6601C496.778 83.8377 496.114 83.9199 495.448 83.8969Z" fill="white"/>
<path d="M439.426 83.897H318.413C316.878 83.897 315.62 83.447 315.638 82.897C315.657 82.347 316.896 81.897 318.45 81.897H440.184C441.738 81.897 442.811 82.357 442.607 82.897C442.336 83.2223 441.884 83.4935 441.313 83.6729C440.743 83.8522 440.083 83.9305 439.426 83.897Z" fill="white"/>
<path d="M252.33 131.501H364.096C365.427 131.501 366.444 131.841 366.352 132.261C366.259 132.681 365.15 133.011 363.818 133.011H252.681C251.35 133.011 250.203 132.671 250.11 132.261C250.018 131.851 251.035 131.501 252.33 131.501Z" fill="white"/>
<path d="M253.292 136.16H425C426.295 136.16 427.238 136.49 427.072 136.89C426.905 137.29 425.74 137.62 424.427 137.62H253.588C252.274 137.62 251.146 137.3 251.072 136.89C250.998 136.48 251.979 136.16 253.292 136.16Z" fill="white"/>
<path d="M433.415 77.4276H346.008C344.436 77.4276 343.215 76.9476 343.27 76.3676C343.326 75.7876 344.639 75.2976 346.23 75.2976H434.155C435.746 75.2976 436.855 75.7776 436.652 76.3676C436.389 76.7065 435.934 76.9916 435.352 77.182C434.771 77.3724 434.093 77.4584 433.415 77.4276Z" fill="white"/>
<path opacity="0.5" d="M321.224 77.4276H241.695C240.123 77.4276 238.736 76.9476 238.625 76.3676C238.514 75.7876 239.679 75.2976 241.27 75.2976H321.261C322.833 75.2976 324.109 75.7776 324.091 76.3676C324.072 76.9576 322.796 77.4276 321.224 77.4276Z" fill="white"/>
<path opacity="0.5" d="M388.916 131.501C390.247 131.501 391.246 131.841 391.135 132.261C391.024 132.681 389.859 133.011 388.527 133.011H379.946C378.632 133.011 377.634 132.671 377.726 132.261C377.819 131.851 378.965 131.501 380.297 131.501H388.916Z" fill="white"/>
<path opacity="0.5" d="M282.921 127.471C282.921 127.901 281.904 128.251 280.554 128.251H268.791C267.441 128.251 266.294 127.901 266.238 127.471C266.183 127.041 267.219 126.691 268.569 126.691H280.387C281.737 126.691 282.884 127.031 282.921 127.471Z" fill="white"/>
<path opacity="0.5" d="M424.871 106.704C424.704 107.194 423.391 107.594 421.967 107.594H408.206C406.764 107.594 405.728 107.194 405.858 106.704C405.987 106.214 407.3 105.814 408.743 105.814H422.577C424.02 105.814 425.056 106.214 424.871 106.704Z" fill="white"/>
<path opacity="0.5" d="M467.797 111.293C469.222 111.293 470.183 111.683 469.943 112.163C469.654 112.446 469.218 112.678 468.689 112.829C468.16 112.98 467.561 113.044 466.965 113.013H455.998C454.574 113.013 453.612 112.633 453.815 112.163C454.09 111.875 454.52 111.637 455.047 111.482C455.575 111.327 456.177 111.261 456.774 111.293H467.797Z" fill="white"/>
<path opacity="0.5" d="M288.414 96.1653C286.934 96.1653 285.695 95.7353 285.64 95.2153C285.584 94.6953 286.786 94.2153 288.284 94.2153H299.955C301.453 94.2153 302.674 94.6453 302.692 95.2153C302.711 95.7853 301.508 96.1653 300.029 96.1653H288.414Z" fill="white"/>
<path d="M129.467 65.379C129.747 65.7156 129.862 66.086 129.798 66.4537C129.734 66.8214 129.495 67.1738 129.103 67.4764C128.711 67.7789 128.181 68.0212 127.564 68.1794C126.946 68.3377 126.264 68.4064 125.583 68.379C123.954 68.3268 122.392 68.0136 121.094 67.4793C119.796 66.945 118.822 66.2138 118.296 65.379C118.017 65.0439 117.903 64.6756 117.965 64.3097C118.027 63.9438 118.263 63.5928 118.65 63.2909C119.037 62.9889 119.563 62.7463 120.174 62.5865C120.786 62.4267 121.464 62.3552 122.143 62.379C123.779 62.4246 125.352 62.735 126.658 63.27C127.964 63.8049 128.942 64.5397 129.467 65.379Z" fill="white"/>
<path d="M144.522 65.4291C144.773 65.7747 144.859 66.1491 144.771 66.5174C144.682 66.8857 144.423 67.236 144.017 67.5354C143.61 67.8349 143.071 68.0739 142.447 68.2302C141.824 68.3865 141.138 68.4549 140.453 68.4291C138.845 68.3804 137.302 68.0669 136.033 67.5307C134.763 66.9945 133.827 66.2611 133.351 65.4291C133.106 65.0851 133.025 64.7135 133.113 64.3481C133.202 63.9826 133.459 63.635 133.859 63.3369C134.26 63.0387 134.792 62.7995 135.408 62.6409C136.023 62.4824 136.702 62.4096 137.383 62.4291C139 62.4696 140.554 62.7797 141.833 63.3168C143.111 63.854 144.05 64.5918 144.522 65.4291Z" fill="white"/>
<path d="M159.743 65.379C159.967 65.7321 160.025 66.1096 159.915 66.4779C159.804 66.8463 159.527 67.1942 159.108 67.4908C158.689 67.7875 158.141 68.0237 157.514 68.1786C156.886 68.3336 156.197 68.4024 155.508 68.379C153.914 68.3382 152.386 68.0262 151.14 67.4873C149.894 66.9485 148.995 66.2106 148.572 65.379C148.354 65.0268 148.299 64.6511 148.411 64.2847C148.523 63.9182 148.798 63.5721 149.214 63.2764C149.63 62.9807 150.173 62.7444 150.796 62.588C151.419 62.4316 152.103 62.3598 152.789 62.379C154.388 62.4131 155.925 62.7226 157.176 63.2622C158.427 63.8019 159.327 64.5436 159.743 65.379Z" fill="white"/>
<path opacity="0.1" d="M14.4463 54.48L64.2906 126.501L124.418 54.48H14.4463Z" fill="white"/>
<path opacity="0.1" d="M98.543 146.959L198.287 54.48H302.692L155.896 146.959H98.543Z" fill="white"/>
<path opacity="0.1" d="M347.69 54.02L192.221 146.959H216.172L377.209 54.48L347.69 54.02Z" fill="white"/>
<path opacity="0.1" d="M378.393 146.959L549.25 54.48H573.368L397.202 146.959H378.393Z" fill="white"/>
<path d="M146.723 187.094H107.717C105.264 187.094 102.912 187.621 101.178 188.559C99.4435 189.496 98.4692 190.768 98.4692 192.094V202.352C98.4692 203.678 99.4435 204.95 101.178 205.888C102.912 206.825 105.264 207.352 107.717 207.352H117.908L125.639 216.821L136.532 207.352H146.723C149.176 207.352 151.528 206.825 153.262 205.888C154.996 204.95 155.97 203.678 155.97 202.352V192.024C155.936 190.71 154.947 189.456 153.217 188.534C151.486 187.611 149.153 187.094 146.723 187.094Z" fill="white" stroke="#263238" stroke-linecap="round" stroke-linejoin="round"/>
<path d="M121.792 192.964C121.792 192.699 121.986 192.444 122.333 192.257C122.68 192.069 123.151 191.964 123.642 191.964C124.111 191.963 124.562 192.059 124.906 192.232C125.249 192.404 125.459 192.641 125.492 192.894C125.492 193.159 125.297 193.413 124.95 193.601C124.603 193.788 124.132 193.894 123.642 193.894C123.172 193.894 122.721 193.799 122.377 193.626C122.034 193.453 121.824 193.217 121.792 192.964ZM122.199 195.053H125.177V201.913H122.199V195.053Z" fill="#263238"/>
<path d="M132.334 194.693V195.103H135.811V196.393H132.426V201.912H129.448V196.393H127.358V195.103H129.448V194.673C129.401 194.348 129.488 194.021 129.701 193.716C129.914 193.411 130.248 193.135 130.681 192.908C131.113 192.681 131.633 192.508 132.203 192.402C132.774 192.296 133.38 192.259 133.98 192.293C134.927 192.272 135.865 192.401 136.68 192.663L135.848 193.873C135.363 193.693 134.79 193.595 134.202 193.593C132.981 193.593 132.334 193.963 132.334 194.693Z" fill="#263238"/>
<path d="M265.498 188.524H226.437C223.984 188.524 221.632 189.051 219.898 189.988C218.163 190.926 217.189 192.197 217.189 193.523V203.792C217.189 205.118 218.163 206.39 219.898 207.327C221.632 208.265 223.984 208.791 226.437 208.791H236.646L244.358 218.26L255.252 208.791H265.461C267.914 208.791 270.266 208.265 272 207.327C273.734 206.39 274.709 205.118 274.709 203.792V193.483C274.689 192.168 273.711 190.909 271.987 189.981C270.263 189.053 267.932 188.529 265.498 188.524Z" fill="white" stroke="#263238" stroke-linecap="round" stroke-linejoin="round"/>
<path d="M234.686 200.433H224.717C224.909 200.934 225.435 201.38 226.196 201.684C226.957 201.988 227.899 202.13 228.841 202.083C229.48 202.096 230.116 202.035 230.709 201.906C231.302 201.777 231.838 201.582 232.281 201.333L233.872 202.333C232.911 202.849 231.698 203.207 230.375 203.363C229.052 203.52 227.674 203.469 226.402 203.217C225.131 202.966 224.018 202.523 223.195 201.941C222.373 201.359 221.874 200.663 221.758 199.933C221.732 199.466 221.884 199 222.204 198.566C222.525 198.132 223.007 197.738 223.621 197.409C224.235 197.08 224.968 196.822 225.774 196.653C226.579 196.483 227.441 196.405 228.305 196.423C229.17 196.404 230.033 196.483 230.837 196.656C231.642 196.829 232.37 197.091 232.976 197.426C233.581 197.76 234.049 198.16 234.35 198.599C234.651 199.038 234.778 199.506 234.723 199.973C234.723 200.093 234.704 200.283 234.686 200.433ZM224.698 199.373H231.986C231.897 198.899 231.475 198.462 230.807 198.151C230.14 197.84 229.277 197.68 228.397 197.703C227.502 197.672 226.619 197.827 225.931 198.138C225.242 198.449 224.801 198.891 224.698 199.373Z" fill="#263238"/>
<path d="M237.534 193.823H240.494V203.352H237.534V193.823Z" fill="#263238"/>
<path d="M243.082 202.673L244.21 201.453C245.541 201.894 247.07 202.129 248.631 202.133C250.48 202.133 251.294 201.853 251.294 201.373C251.294 200.063 243.452 201.293 243.452 198.563C243.452 197.263 245.616 196.413 249 196.413C250.65 196.399 252.281 196.601 253.754 197.003L252.607 198.223C251.485 197.871 250.205 197.694 248.908 197.713C247.058 197.713 246.245 198.033 246.245 198.483C246.245 199.873 254.087 198.633 254.087 201.323C254.087 202.603 251.904 203.443 248.335 203.443C246.486 203.454 244.667 203.188 243.082 202.673Z" fill="#263238"/>
<path d="M268.55 200.433H258.581C258.773 200.934 259.299 201.38 260.06 201.684C260.821 201.988 261.763 202.13 262.706 202.083C263.344 202.096 263.981 202.035 264.573 201.906C265.166 201.777 265.702 201.582 266.146 201.333L267.736 202.333C266.776 202.849 265.563 203.207 264.24 203.363C262.917 203.52 261.538 203.469 260.267 203.217C258.995 202.966 257.882 202.523 257.06 201.941C256.237 201.359 255.738 200.663 255.622 199.933C255.596 199.466 255.748 199 256.069 198.566C256.389 198.132 256.871 197.738 257.485 197.409C258.099 197.08 258.832 196.822 259.638 196.653C260.444 196.483 261.305 196.405 262.169 196.423C263.034 196.404 263.897 196.483 264.702 196.656C265.506 196.829 266.235 197.091 266.84 197.426C267.445 197.76 267.913 198.16 268.214 198.599C268.515 199.038 268.642 199.506 268.587 199.973C268.587 200.093 268.569 200.283 268.55 200.433ZM258.563 199.373H265.757C265.668 198.899 265.247 198.462 264.579 198.151C263.912 197.84 263.049 197.68 262.169 197.703C261.29 197.685 260.43 197.846 259.761 198.156C259.092 198.466 258.665 198.9 258.563 199.373Z" fill="#263238"/>
<path d="M380.649 187.924H341.624C339.188 187.924 336.85 188.444 335.118 189.371C333.386 190.298 332.401 191.556 332.377 192.874V203.142C332.377 204.468 333.351 205.74 335.086 206.678C336.82 207.615 339.172 208.142 341.624 208.142H351.834L359.546 217.611L370.44 208.142H380.649C383.102 208.142 385.454 207.615 387.188 206.678C388.922 205.74 389.897 204.468 389.897 203.142V192.874C389.872 191.556 388.887 190.298 387.156 189.371C385.424 188.444 383.086 187.924 380.649 187.924Z" fill="white" stroke="#263238" stroke-linecap="round" stroke-linejoin="round"/>
<path d="M350.576 195.523V195.933H354.053V197.223H350.65V202.742H347.691V197.223H345.601V195.933H347.691V195.503C347.644 195.179 347.73 194.853 347.942 194.549C348.154 194.245 348.487 193.97 348.917 193.743C349.348 193.516 349.865 193.342 350.433 193.235C351.001 193.128 351.605 193.09 352.203 193.123C353.146 193.098 354.08 193.227 354.885 193.493L354.053 194.703C353.576 194.522 353.008 194.424 352.425 194.423C351.223 194.423 350.576 194.793 350.576 195.523Z" fill="#263238"/>
<path d="M354.83 199.313C354.778 198.584 355.131 197.862 355.844 197.242C356.556 196.622 357.596 196.131 358.828 195.833C360.061 195.534 361.43 195.442 362.76 195.568C364.091 195.694 365.321 196.032 366.293 196.539C367.265 197.046 367.934 197.698 368.215 198.412C368.496 199.126 368.375 199.87 367.869 200.546C367.362 201.223 366.492 201.803 365.372 202.21C364.251 202.618 362.931 202.835 361.58 202.833C360.701 202.859 359.822 202.787 358.997 202.621C358.172 202.455 357.419 202.199 356.786 201.869C356.152 201.539 355.651 201.141 355.315 200.701C354.978 200.262 354.813 199.789 354.83 199.313ZM365.353 199.313C365.299 198.925 365.037 198.554 364.6 198.246C364.162 197.937 363.567 197.704 362.888 197.576C362.209 197.447 361.476 197.428 360.778 197.522C360.079 197.615 359.446 197.816 358.956 198.101C358.466 198.386 358.141 198.742 358.019 199.125C357.897 199.508 357.985 199.902 358.271 200.259C358.558 200.616 359.03 200.92 359.631 201.134C360.232 201.348 360.935 201.462 361.654 201.463C362.164 201.464 362.669 201.408 363.137 201.298C363.605 201.188 364.026 201.027 364.373 200.825C364.721 200.623 364.987 200.385 365.156 200.125C365.324 199.864 365.392 199.588 365.353 199.313Z" fill="#263238"/>
<path d="M378.522 195.803V197.333C378.294 197.325 378.066 197.325 377.838 197.333C377.322 197.311 376.804 197.352 376.321 197.453C375.839 197.553 375.404 197.711 375.049 197.914C374.694 198.118 374.428 198.362 374.271 198.628C374.113 198.894 374.068 199.176 374.139 199.453V202.783H371.161V195.923H373.991V196.923C374.5 196.539 375.186 196.234 375.981 196.037C376.776 195.841 377.652 195.76 378.522 195.803Z" fill="#263238"/>
<path d="M494.134 187.094H455.11C452.657 187.094 450.305 187.621 448.571 188.559C446.837 189.496 445.862 190.768 445.862 192.094V202.352C445.862 203.678 446.837 204.95 448.571 205.888C450.305 206.825 452.657 207.352 455.11 207.352H465.319L473.032 216.821L483.925 207.352H494.134C496.587 207.352 498.939 206.825 500.673 205.888C502.408 204.95 503.382 203.678 503.382 202.352V192.024C503.348 190.71 502.359 189.456 500.628 188.534C498.898 187.611 496.565 187.094 494.134 187.094Z" fill="white" stroke="#263238" stroke-linecap="round" stroke-linejoin="round"/>
<path d="M469.555 194.713H480.504V196.023H469.555V194.713ZM469.555 197.823H480.504V199.113H469.555V197.823Z" fill="#263238"/>
<path d="M206.204 175.216H167.253C164.8 175.216 162.448 175.742 160.714 176.68C158.98 177.618 158.005 178.889 158.005 180.215V190.474C158.005 191.8 158.98 193.071 160.714 194.009C162.448 194.947 164.8 195.473 167.253 195.473H177.462L185.175 204.942L196.068 195.473H206.278C208.73 195.473 211.082 194.947 212.817 194.009C214.551 193.071 215.525 191.8 215.525 190.474V180.175C215.515 179.519 215.267 178.87 214.793 178.265C214.319 177.66 213.63 177.112 212.764 176.652C211.899 176.191 210.874 175.827 209.748 175.581C208.622 175.335 207.418 175.21 206.204 175.216Z" fill="white" stroke="#263238" stroke-linecap="round" stroke-linejoin="round"/>
<path d="M177.517 179.475H183.195V180.765H180.476V190.214H183.195V191.504H177.517V179.475Z" fill="#263238"/>
<path d="M190.556 191.504V190.214H193.238V180.765H190.556V179.475H196.197V191.474L190.556 191.504Z" fill="#263238"/>
<path d="M322.204 174.166H283.18C280.727 174.166 278.375 174.693 276.641 175.63C274.906 176.568 273.932 177.839 273.932 179.165V189.424C273.932 190.75 274.906 192.022 276.641 192.959C278.375 193.897 280.727 194.424 283.18 194.424H293.389L301.12 203.892L312.014 194.424H322.204C324.657 194.424 327.009 193.897 328.743 192.959C330.478 192.022 331.452 190.75 331.452 189.424V179.125C331.432 177.806 330.449 176.545 328.717 175.616C326.985 174.687 324.644 174.166 322.204 174.166Z" fill="white" stroke="#263238" stroke-linecap="round" stroke-linejoin="round"/>
<path d="M294.758 184.404C295.701 184.564 296.163 184.914 296.163 185.714V188.154C296.117 188.291 296.133 188.432 296.21 188.564C296.287 188.697 296.422 188.818 296.604 188.916C296.785 189.014 297.009 189.087 297.254 189.129C297.5 189.17 297.76 189.179 298.013 189.154H298.512V190.444H297.31C296.775 190.487 296.229 190.463 295.714 190.374C295.199 190.285 294.728 190.133 294.338 189.93C293.949 189.727 293.651 189.479 293.467 189.204C293.283 188.929 293.218 188.635 293.278 188.344V185.704C293.278 185.274 292.871 185.084 292.206 185.084H291.429V183.775H292.206C292.871 183.775 293.278 183.585 293.278 183.155V180.515C293.218 180.224 293.283 179.93 293.467 179.655C293.651 179.38 293.949 179.132 294.338 178.929C294.728 178.726 295.199 178.574 295.714 178.485C296.229 178.396 296.775 178.372 297.31 178.415H298.512V179.705H298.013C297.76 179.68 297.5 179.689 297.254 179.73C297.009 179.772 296.785 179.845 296.604 179.943C296.422 180.041 296.287 180.162 296.21 180.295C296.133 180.427 296.117 180.568 296.163 180.705V183.145C296.163 183.885 295.701 184.234 294.758 184.404Z" fill="#263238"/>
<path d="M312.883 183.745V185.024H312.069C311.422 185.024 311.015 185.214 311.015 185.644V188.284C311.075 188.576 311.01 188.871 310.826 189.147C310.641 189.423 310.341 189.672 309.949 189.875C309.557 190.078 309.084 190.229 308.567 190.318C308.049 190.406 307.501 190.429 306.964 190.384H305.762V189.124H306.262C306.514 189.146 306.772 189.136 307.016 189.094C307.259 189.051 307.48 188.978 307.661 188.881C307.842 188.783 307.977 188.663 308.055 188.532C308.134 188.4 308.153 188.26 308.111 188.124V185.684C308.111 184.884 308.536 184.534 309.48 184.374C308.536 184.204 308.111 183.854 308.111 183.055V180.615C308.153 180.479 308.134 180.339 308.055 180.207C307.977 180.076 307.842 179.956 307.661 179.858C307.48 179.76 307.259 179.687 307.016 179.645C306.772 179.603 306.514 179.593 306.262 179.615H305.762V178.325H306.964C307.501 178.28 308.049 178.303 308.567 178.391C309.084 178.479 309.557 178.631 309.949 178.834C310.341 179.037 310.641 179.286 310.826 179.562C311.01 179.838 311.075 180.133 311.015 180.425V183.065C311.015 183.495 311.422 183.685 312.069 183.685L312.883 183.745Z" fill="#263238"/>
<path d="M436.985 172.086H397.96C395.507 172.086 393.155 172.613 391.421 173.55C389.687 174.488 388.712 175.759 388.712 177.085V187.344C388.712 188.67 389.687 189.942 391.421 190.879C393.155 191.817 395.507 192.344 397.96 192.344H408.151L415.882 201.812L426.775 192.344H436.985C439.437 192.344 441.789 191.817 443.524 190.879C445.258 189.942 446.232 188.67 446.232 187.344V177.025C446.203 175.71 445.216 174.454 443.485 173.529C441.754 172.604 439.418 172.086 436.985 172.086Z" fill="white" stroke="#263238" stroke-linecap="round" stroke-linejoin="round"/>
<path d="M415.919 179.685C415.892 179.538 415.923 179.389 416.009 179.249C416.095 179.109 416.234 178.98 416.418 178.87C416.602 178.761 416.826 178.673 417.076 178.613C417.326 178.553 417.597 178.522 417.87 178.522C418.144 178.522 418.414 178.553 418.664 178.613C418.914 178.673 419.138 178.761 419.322 178.87C419.506 178.98 419.645 179.109 419.731 179.249C419.817 179.389 419.848 179.538 419.821 179.685C419.848 179.832 419.817 179.981 419.731 180.121C419.645 180.262 419.506 180.391 419.322 180.5C419.138 180.61 418.914 180.697 418.664 180.757C418.414 180.817 418.144 180.848 417.87 180.848C417.597 180.848 417.326 180.817 417.076 180.757C416.826 180.697 416.602 180.61 416.418 180.5C416.234 180.391 416.095 180.262 416.009 180.121C415.923 179.981 415.892 179.832 415.919 179.685ZM419.821 184.575C419.771 184.96 419.582 185.337 419.267 185.684L418.046 187.494H416.196L417.158 185.494C416.815 185.416 416.524 185.283 416.322 185.114C416.121 184.944 416.019 184.746 416.03 184.545C416.03 184.267 416.233 184.002 416.596 183.806C416.958 183.61 417.45 183.5 417.963 183.5C418.475 183.5 418.967 183.61 419.329 183.806C419.692 184.002 419.895 184.267 419.895 184.545L419.821 184.575Z" fill="#263238"/>
<path d="M284.437 351.505H323.444C325.896 351.505 328.248 350.978 329.983 350.04C331.717 349.103 332.691 347.831 332.691 346.505V336.286C332.691 334.96 331.717 333.689 329.983 332.751C328.248 331.814 325.896 331.287 323.444 331.287H313.253L310.275 321.818L294.628 331.287H284.437C281.985 331.287 279.633 331.814 277.898 332.751C276.164 333.689 275.19 334.96 275.19 336.286V346.545C275.209 347.864 276.192 349.126 277.924 350.054C279.657 350.983 281.998 351.505 284.437 351.505Z" fill="white" stroke="#263238" stroke-linecap="round" stroke-linejoin="round"/>
<path d="M298.142 339.306L289.949 341.006L298.142 342.656V344.006L287.193 341.706V340.316L298.142 338.016V339.306Z" fill="#263238"/>
<path d="M306.798 334.637H309.443L301.601 346.745H298.956L306.798 334.637Z" fill="#263238"/>
<path d="M320.965 340.266V341.656L310.016 343.956V342.616L318.209 340.966L310.016 339.306V338.006L320.965 340.266Z" fill="#263238"/>
<path d="M36.3813 276.764H75.3875C77.8241 276.764 80.1624 276.244 81.894 275.317C83.6256 274.39 84.6107 273.131 84.635 271.814V261.545C84.635 260.219 83.6607 258.948 81.9265 258.01C80.1922 257.073 77.8401 256.546 75.3875 256.546H65.1967L67.4161 247.077L46.5721 256.546H36.3813C33.9287 256.546 31.5766 257.073 29.8423 258.01C28.1081 258.948 27.1338 260.219 27.1338 261.545V271.814C27.1582 273.131 28.1432 274.39 29.8748 275.317C31.6064 276.244 33.9447 276.764 36.3813 276.764Z" fill="white" stroke="#263238" stroke-linecap="round" stroke-linejoin="round"/>
<path d="M47.9404 270.264C47.9404 269.999 48.1353 269.745 48.4823 269.557C48.8292 269.37 49.2998 269.264 49.7904 269.264C50.2811 269.264 50.7516 269.37 51.0986 269.557C51.4455 269.745 51.6404 269.999 51.6404 270.264C51.6404 270.53 51.4455 270.784 51.0986 270.971C50.7516 271.159 50.2811 271.264 49.7904 271.264C49.2998 271.264 48.8292 271.159 48.4823 270.971C48.1353 270.784 47.9404 270.53 47.9404 270.264ZM48.1069 262.175H51.6219L51.0299 268.175H48.6804L48.1069 262.175Z" fill="#263238"/>
<path d="M54.6914 264.475H65.6405V265.765H54.6914V264.475ZM54.6914 267.585H65.6405V268.875H54.6914V267.585Z" fill="#263238"/>
<path d="M613.083 265.135C613.075 269.109 612.456 273.075 611.234 276.994C605.87 294.301 589.04 306.92 569.139 306.92C567.361 306.921 565.588 306.82 563.849 306.62C542.118 304.13 525.269 286.512 525.269 265.135C525.269 242.058 544.91 233.889 569.139 233.889C593.367 233.889 613.083 242.018 613.083 265.135Z" fill="white"/>
<mask id="mask0_184_450" style="mask-type:luminance" maskUnits="userSpaceOnUse" x="525" y="233" width="89" height="74">
<path d="M613.083 265.135C613.075 269.109 612.456 273.075 611.234 276.994C605.87 294.301 589.04 306.92 569.139 306.92C567.361 306.921 565.588 306.82 563.849 306.62C542.118 304.13 525.269 286.512 525.269 265.135C525.269 242.058 544.91 233.889 569.139 233.889C593.367 233.889 613.083 242.018 613.083 265.135Z" fill="white"/>
</mask>
<g mask="url(#mask0_184_450)">
<path d="M597.232 265.395C598.86 277.773 594.939 290.212 588.336 302.1C604.871 294.761 612.472 283.223 619.353 272.274C624.346 264.325 629.395 256.126 628.489 247.747C627.583 239.368 619.242 230.639 604.741 227.749C597.471 226.331 589.492 226.399 582.307 227.939C570.119 230.589 576.758 232.729 581.918 237.468C590.89 246.025 596.127 255.577 597.232 265.395Z" fill="url(#paint1_linear_184_450)"/>
<path opacity="0.5" d="M597.232 265.395C598.86 277.773 594.939 290.212 588.336 302.1C604.871 294.761 612.472 283.223 619.353 272.274C624.346 264.325 629.395 256.126 628.489 247.747C627.583 239.368 619.242 230.639 604.741 227.749C597.471 226.331 589.492 226.399 582.307 227.939C570.119 230.589 576.758 232.729 581.918 237.468C590.89 246.025 596.127 255.577 597.232 265.395Z" fill="white"/>
</g>
<path d="M613.083 265.135C613.075 269.109 612.456 273.075 611.234 276.994C605.87 294.301 589.04 306.92 569.139 306.92C567.361 306.921 565.588 306.82 563.849 306.62C542.118 304.13 525.269 286.512 525.269 265.135C525.269 242.058 544.91 233.889 569.139 233.889C593.367 233.889 613.083 242.018 613.083 265.135Z" stroke="#263238" stroke-miterlimit="10"/>
<path d="M592.831 286.362C589.914 291.707 585.011 296.674 578.423 300.961Z" fill="white"/>
<path d="M592.831 286.362C589.914 291.707 585.011 296.674 578.423 300.961" stroke="#263238" stroke-miterlimit="10"/>
<path d="M594.218 283.463C593.996 284.023 593.737 284.583 593.46 285.143" stroke="#263238" stroke-miterlimit="10"/>
<path d="M594.107 265.075C596.419 270.414 596.715 275.951 594.976 281.353Z" fill="white"/>
<path d="M594.107 265.075C596.419 270.414 596.715 275.951 594.976 281.353" stroke="#263238" stroke-miterlimit="10"/>
<path d="M525.361 265.135C525.361 265.135 575.298 254.475 613.139 265.135" stroke="#263238" stroke-miterlimit="10"/>
<path d="M569.25 233.889C569.25 233.889 574.244 243.887 574.799 260.156Z" fill="white"/>
<path d="M569.25 233.889C569.25 233.889 574.244 243.887 574.799 260.156" stroke="#263238" stroke-miterlimit="10"/>
<path d="M576.222 246.017C576.851 249.127 575.853 251.767 573.985 251.927C572.117 252.087 570.082 249.697 569.453 246.597C568.824 243.498 569.805 240.838 571.673 240.678C573.541 240.518 575.575 242.948 576.222 246.017Z" fill="#BFBFBF" stroke="#263238" stroke-linecap="round" stroke-linejoin="round"/>
<path d="M524.855 220.78H98.2285V317.919H524.855V220.78Z" fill="url(#paint2_linear_184_450)" stroke="#263238" stroke-linecap="round" stroke-linejoin="round"/>
<path d="M147.277 226.66H107.143V238.668H147.277V226.66Z" fill="white" stroke="#263238" stroke-miterlimit="10"/>
<path d="M514.978 285.212H451.762V297.221H514.978V285.212Z" fill="white" stroke="#263238" stroke-miterlimit="10"/>
<path d="M514.979 241.658H475.954V253.666H514.979V241.658Z" fill="white" stroke="#263238" stroke-miterlimit="10"/>
<path d="M147.277 270.404H107.143V282.413H147.277V270.404Z" fill="white" stroke="#263238" stroke-miterlimit="10"/>
<path d="M139.639 255.936H107.143V267.945H139.639V255.936Z" fill="white" stroke="#263238" stroke-miterlimit="10"/>
<path d="M129.356 241.298H107.143V253.306H129.356V241.298Z" fill="white" stroke="#263238" stroke-miterlimit="10"/>
<path d="M157.727 241.298H135.515V253.306H157.727V241.298Z" fill="white" stroke="#263238" stroke-miterlimit="10"/>
<path d="M186.08 241.298H163.868V253.306H186.08V241.298Z" fill="white" stroke="#263238" stroke-miterlimit="10"/>
<path d="M214.433 241.298H192.221V253.306H214.433V241.298Z" fill="white" stroke="#263238" stroke-miterlimit="10"/>
<path d="M242.805 241.298H220.592V253.306H242.805V241.298Z" fill="white" stroke="#263238" stroke-miterlimit="10"/>
<path d="M271.157 241.298H248.945V253.306H271.157V241.298Z" fill="white" stroke="#263238" stroke-miterlimit="10"/>
<path d="M299.511 241.298H277.298V253.306H299.511V241.298Z" fill="white" stroke="#263238" stroke-miterlimit="10"/>
<path d="M327.882 241.298H305.669V253.306H327.882V241.298Z" fill="white" stroke="#263238" stroke-miterlimit="10"/>
<path d="M356.235 241.298H334.022V253.306H356.235V241.298Z" fill="white" stroke="#263238" stroke-miterlimit="10"/>
<path d="M384.588 241.298H362.375V253.306H384.588V241.298Z" fill="white" stroke="#263238" stroke-miterlimit="10"/>
<path d="M412.96 241.298H390.747V253.306H412.96V241.298Z" fill="white" stroke="#263238" stroke-miterlimit="10"/>
<path d="M441.313 241.298H419.1V253.306H441.313V241.298Z" fill="white" stroke="#263238" stroke-miterlimit="10"/>
<path d="M469.684 241.298H447.471V253.306H469.684V241.298Z" fill="white" stroke="#263238" stroke-miterlimit="10"/>
<path d="M129.356 300.031H107.143V312.039H129.356V300.031Z" fill="white" stroke="#263238" stroke-miterlimit="10"/>
<path d="M157.727 300.031H135.515V312.039H157.727V300.031Z" fill="white" stroke="#263238" stroke-miterlimit="10"/>
<path d="M186.08 300.031H163.868V312.039H186.08V300.031Z" fill="white" stroke="#263238" stroke-miterlimit="10"/>
<path d="M219.335 300.031H192.221V312.039H219.335V300.031Z" fill="white" stroke="#263238" stroke-miterlimit="10"/>
<path d="M361.136 300.031H225.475V312.039H361.136V300.031Z" fill="white" stroke="#263238" stroke-miterlimit="10"/>
<path d="M428.958 300.031H406.745V312.039H428.958V300.031Z" fill="white" stroke="#263238" stroke-miterlimit="10"/>
<path d="M457.311 300.031H435.098V312.039H457.311V300.031Z" fill="white" stroke="#263238" stroke-miterlimit="10"/>
<path d="M485.719 300.031H463.506V312.039H485.719V300.031Z" fill="white" stroke="#263238" stroke-miterlimit="10"/>
<path d="M401.178 300.031H366.685V312.039H401.178V300.031Z" fill="white" stroke="#263238" stroke-miterlimit="10"/>
<path d="M514.978 300.031H492.766V312.039H514.978V300.031Z" fill="white" stroke="#263238" stroke-miterlimit="10"/>
<path d="M168.158 255.936H145.946V267.945H168.158V255.936Z" fill="white" stroke="#263238" stroke-miterlimit="10"/>
<path d="M196.511 255.936H174.299V267.945H196.511V255.936Z" fill="white" stroke="#263238" stroke-miterlimit="10"/>
<path d="M224.883 255.936H202.67V267.945H224.883V255.936Z" fill="white" stroke="#263238" stroke-miterlimit="10"/>
<path d="M253.236 255.936H231.023V267.945H253.236V255.936Z" fill="white" stroke="#263238" stroke-miterlimit="10"/>
<path d="M281.607 255.936H259.395V267.945H281.607V255.936Z" fill="white" stroke="#263238" stroke-miterlimit="10"/>
<path d="M309.96 255.936H287.748V267.945H309.96V255.936Z" fill="white" stroke="#263238" stroke-miterlimit="10"/>
<path d="M338.314 255.936H316.101V267.945H338.314V255.936Z" fill="white" stroke="#263238" stroke-miterlimit="10"/>
<path d="M366.685 255.936H344.472V267.945H366.685V255.936Z" fill="white" stroke="#263238" stroke-miterlimit="10"/>
<path d="M395.038 255.936H372.825V267.945H395.038V255.936Z" fill="white" stroke="#263238" stroke-miterlimit="10"/>
<path d="M423.39 255.936H401.178V267.945H423.39V255.936Z" fill="white" stroke="#263238" stroke-miterlimit="10"/>
<path d="M451.762 255.936H429.55V267.945H451.762V255.936Z" fill="white" stroke="#263238" stroke-miterlimit="10"/>
<path d="M480.115 255.936H457.902V267.945H480.115V255.936Z" fill="white" stroke="#263238" stroke-miterlimit="10"/>
<path d="M514.978 255.936V282.593H492.766V267.955H486.255V255.936H514.978Z" fill="white" stroke="#263238" stroke-miterlimit="10"/>
<path d="M174.669 270.574H152.457V282.583H174.669V270.574Z" fill="white" stroke="#263238" stroke-miterlimit="10"/>
<path d="M203.022 270.574H180.809V282.583H203.022V270.574Z" fill="white" stroke="#263238" stroke-miterlimit="10"/>
<path d="M231.375 270.574H209.162V282.583H231.375V270.574Z" fill="white" stroke="#263238" stroke-miterlimit="10"/>
<path d="M259.746 270.574H237.533V282.583H259.746V270.574Z" fill="white" stroke="#263238" stroke-miterlimit="10"/>
<path d="M288.099 270.574H265.887V282.583H288.099V270.574Z" fill="white" stroke="#263238" stroke-miterlimit="10"/>
<path d="M316.47 270.574H294.258V282.583H316.47V270.574Z" fill="white" stroke="#263238" stroke-miterlimit="10"/>
<path d="M344.823 270.574H322.611V282.583H344.823V270.574Z" fill="white" stroke="#263238" stroke-miterlimit="10"/>
<path d="M373.176 270.574H350.964V282.583H373.176V270.574Z" fill="white" stroke="#263238" stroke-miterlimit="10"/>
<path d="M401.548 270.574H379.335V282.583H401.548V270.574Z" fill="white" stroke="#263238" stroke-miterlimit="10"/>
<path d="M429.901 270.574H407.688V282.583H429.901V270.574Z" fill="white" stroke="#263238" stroke-miterlimit="10"/>
<path d="M458.254 270.574H436.041V282.583H458.254V270.574Z" fill="white" stroke="#263238" stroke-miterlimit="10"/>
<path d="M486.626 270.574H464.413V282.583H486.626V270.574Z" fill="white" stroke="#263238" stroke-miterlimit="10"/>
<path d="M162.61 285.212H140.397V297.221H162.61V285.212Z" fill="white" stroke="#263238" stroke-miterlimit="10"/>
<path d="M190.963 285.212H168.75V297.221H190.963V285.212Z" fill="white" stroke="#263238" stroke-miterlimit="10"/>
<path d="M219.334 285.212H197.122V297.221H219.334V285.212Z" fill="white" stroke="#263238" stroke-miterlimit="10"/>
<path d="M247.687 285.212H225.475V297.221H247.687V285.212Z" fill="white" stroke="#263238" stroke-miterlimit="10"/>
<path d="M276.04 285.212H253.828V297.221H276.04V285.212Z" fill="white" stroke="#263238" stroke-miterlimit="10"/>
<path d="M304.412 285.212H282.199V297.221H304.412V285.212Z" fill="white" stroke="#263238" stroke-miterlimit="10"/>
<path d="M332.765 285.212H310.552V297.221H332.765V285.212Z" fill="white" stroke="#263238" stroke-miterlimit="10"/>
<path d="M361.136 285.212H338.923V297.221H361.136V285.212Z" fill="white" stroke="#263238" stroke-miterlimit="10"/>
<path d="M389.489 285.212H367.277V297.221H389.489V285.212Z" fill="white" stroke="#263238" stroke-miterlimit="10"/>
<path d="M417.842 285.212H395.629V297.221H417.842V285.212Z" fill="white" stroke="#263238" stroke-miterlimit="10"/>
<path d="M446.214 285.212H424.001V297.221H446.214V285.212Z" fill="white" stroke="#263238" stroke-miterlimit="10"/>
<path d="M174.669 227.379H152.457V239.388H174.669V227.379Z" fill="white" stroke="#263238" stroke-miterlimit="10"/>
<path d="M203.022 227.379H180.809V239.388H203.022V227.379Z" fill="white" stroke="#263238" stroke-miterlimit="10"/>
<path d="M231.375 227.379H209.162V239.388H231.375V227.379Z" fill="white" stroke="#263238" stroke-miterlimit="10"/>
<path d="M259.746 227.379H237.533V239.388H259.746V227.379Z" fill="white" stroke="#263238" stroke-miterlimit="10"/>
<path d="M288.099 227.379H265.887V239.388H288.099V227.379Z" fill="white" stroke="#263238" stroke-miterlimit="10"/>
<path d="M316.47 227.379H294.258V239.388H316.47V227.379Z" fill="white" stroke="#263238" stroke-miterlimit="10"/>
<path d="M344.823 227.379H322.611V239.388H344.823V227.379Z" fill="white" stroke="#263238" stroke-miterlimit="10"/>
<path d="M373.176 227.379H350.964V239.388H373.176V227.379Z" fill="white" stroke="#263238" stroke-miterlimit="10"/>
<path d="M401.548 227.379H379.335V239.388H401.548V227.379Z" fill="white" stroke="#263238" stroke-miterlimit="10"/>
<path d="M429.901 227.379H407.688V239.388H429.901V227.379Z" fill="white" stroke="#263238" stroke-miterlimit="10"/>
<path d="M458.254 227.379H436.041V239.388H458.254V227.379Z" fill="white" stroke="#263238" stroke-miterlimit="10"/>
<path d="M486.626 227.379H464.413V239.388H486.626V227.379Z" fill="white" stroke="#263238" stroke-miterlimit="10"/>
<path d="M514.978 227.379H492.766V239.388H514.978V227.379Z" fill="white" stroke="#263238" stroke-miterlimit="10"/>
<path d="M134.053 285.212H107.143V297.221H134.053V285.212Z" fill="white" stroke="#263238" stroke-miterlimit="10"/>
<path d="M98.2285 221.4L107.143 219.8H519.066L524.929 221.38L98.2285 221.4Z" fill="#263238"/>
<path opacity="0.2" d="M402.75 388L394.076 359.753C392.161 355.544 388.091 351.711 382.332 348.695C365.076 339.696 342.271 330.457 341.291 318.698C339.793 300.701 334.596 301.21 335.151 296.761C337.404 294.636 339.387 292.432 341.088 290.162C342.161 288.417 343.002 286.632 343.603 284.822C343.955 283.934 344.91 283.149 346.279 282.621C347.648 282.094 349.332 281.863 351.001 281.973C353.344 282.14 355.535 282.695 357.271 283.563C360.323 285.322 362.005 287.65 361.969 290.062C361.915 292.448 361.294 294.821 360.119 297.121C363.023 301.098 364.89 305.274 365.668 309.529C367.647 306.23 369.145 302.9 371.124 299.611C371.531 299.491 371.382 299.231 371.771 299.111C368.978 295.871 371.346 296.051 365.815 288.922C356.568 276.923 346.137 265.355 338.72 250.277C338.118 248.878 338.175 247.42 338.887 246.037C341.568 241.728 349.78 242.717 353.368 245.227C354.307 245.889 355.055 246.624 355.588 247.407C360.459 253.829 366.382 260.003 373.288 265.855L393.429 282.453C393.429 282.453 400.438 279.343 401.511 277.953C402.565 276.553 403.083 265.285 403.083 265.285C403.083 265.285 401.493 267.394 397.96 267.285C395.408 267.185 390.229 267.984 386.549 265.745C385.12 264.839 384.307 263.697 384.247 262.507C384.186 261.317 384.881 260.152 386.216 259.205L395.334 252.546C397.331 251.695 399.724 251.157 402.249 250.993C404.775 250.829 407.335 251.045 409.649 251.616C415.536 253.217 420.963 255.272 425.758 257.716C430.572 257.642 435.358 258.141 439.777 259.175C446.232 260.855 453.001 265.675 453.001 265.675C453.001 265.675 460.529 265.925 463.913 267.255C464.764 267.584 476.25 277.253 472.107 284.782C469.647 289.272 468.13 295.781 467.021 297.541L461.38 341.626L472.754 370.622L448.433 377.951C439.549 380.63 430.247 382.881 420.635 384.68L402.75 388Z" fill="black"/>
<path d="M471.811 336.486L472.033 292.282C472.921 290.502 473.642 283.942 475.528 279.373C478.747 271.714 466.096 262.475 465.208 262.175C461.657 260.985 454.111 261.005 454.111 261.005C454.111 261.005 446.713 256.436 440.11 255.006C435.579 254.118 430.744 253.777 425.943 254.006C420.859 251.736 415.189 249.88 409.113 248.497C406.734 248.011 404.154 247.888 401.655 248.142C399.156 248.396 396.835 249.017 394.945 249.937L386.678 256.936C385.459 257.928 384.906 259.117 385.111 260.303C385.316 261.489 386.268 262.602 387.806 263.455C391.764 265.565 396.832 264.575 399.384 264.575C402.917 264.575 404.248 262.415 404.248 262.415C404.248 262.415 405.118 273.674 404.248 275.104C403.342 276.533 396.721 279.883 396.721 279.883L374.527 264.055C366.904 258.468 360.237 252.517 354.608 246.277C353.969 245.518 353.128 244.814 352.111 244.187C348.227 241.808 339.923 241.118 337.759 245.507C337.227 246.914 337.347 248.371 338.11 249.747C347.358 264.525 359.157 275.694 369.903 287.332C376.284 294.241 373.916 294.161 377.098 297.281C376.728 297.421 376.913 297.681 376.506 297.811C374.952 301.17 373.861 304.54 372.289 307.9C370.986 303.682 368.602 299.583 365.205 295.721C366.103 293.381 366.432 290.988 366.186 288.602C365.908 286.191 363.92 283.931 360.637 282.293C358.798 281.489 356.542 281.014 354.182 280.933C352.489 280.873 350.817 281.162 349.5 281.74C348.183 282.318 347.319 283.144 347.08 284.053C346.709 285.878 346.091 287.686 345.231 289.462C343.814 291.788 342.108 294.059 340.126 296.261C340.126 300.721 345.231 299.991 348.948 317.928C351.833 331.927 385.125 341.136 403.25 351.224L422.559 384.08C445.162 379.138 466.818 373.013 487.217 365.793L471.811 336.486Z" fill="white"/>
<mask id="mask1_184_450" style="mask-type:luminance" maskUnits="userSpaceOnUse" x="337" y="242" width="151" height="143">
<path d="M471.811 336.486L472.033 292.282C472.921 290.502 473.642 283.942 475.528 279.373C478.747 271.714 466.096 262.475 465.208 262.175C461.657 260.985 454.111 261.005 454.111 261.005C454.111 261.005 446.713 256.436 440.11 255.006C435.579 254.118 430.744 253.777 425.943 254.006C420.859 251.736 415.189 249.88 409.113 248.497C406.734 248.011 404.154 247.888 401.655 248.142C399.156 248.396 396.835 249.017 394.945 249.937L386.678 256.936C385.459 257.928 384.906 259.117 385.111 260.303C385.316 261.489 386.268 262.602 387.806 263.455C391.764 265.565 396.832 264.575 399.384 264.575C402.917 264.575 404.248 262.415 404.248 262.415C404.248 262.415 405.118 273.674 404.248 275.104C403.342 276.533 396.721 279.883 396.721 279.883L374.527 264.055C366.904 258.468 360.237 252.517 354.608 246.277C353.969 245.518 353.128 244.814 352.111 244.187C348.227 241.808 339.923 241.118 337.759 245.507C337.227 246.914 337.347 248.371 338.11 249.747C347.358 264.525 359.157 275.694 369.903 287.332C376.284 294.241 373.916 294.161 377.098 297.281C376.728 297.421 376.913 297.681 376.506 297.811C374.952 301.17 373.861 304.54 372.289 307.9C370.986 303.682 368.602 299.583 365.205 295.721C366.103 293.381 366.432 290.988 366.186 288.602C365.908 286.191 363.92 283.931 360.637 282.293C358.798 281.489 356.542 281.014 354.182 280.933C352.489 280.873 350.817 281.162 349.5 281.74C348.183 282.318 347.319 283.144 347.08 284.053C346.709 285.878 346.091 287.686 345.231 289.462C343.814 291.788 342.108 294.059 340.126 296.261C340.126 300.721 345.231 299.991 348.948 317.928C351.833 331.927 385.125 341.136 403.25 351.224L422.559 384.08C445.162 379.138 466.818 373.013 487.217 365.793L471.811 336.486Z" fill="white"/>
</mask>
<g mask="url(#mask1_184_450)">
<path d="M462.341 276.423C463.14 275.082 464.605 273.886 466.577 272.964C467.59 272.522 468.863 272.292 470.163 272.316C471.464 272.34 472.705 272.616 473.66 273.094C472.279 270.807 470.812 268.531 469.259 266.265C468.331 264.489 466.558 262.875 464.117 261.585C461.491 260.425 457.163 260.185 454.869 261.585C456.475 266.812 456.649 272.139 455.387 277.393C454.703 280.233 453.815 283.493 457.348 285.622C458.328 286.052 460.03 285.282 459.401 284.692C459.105 284.413 458.069 284.393 457.551 284.413C458.737 281.683 460.34 279.01 462.341 276.423Z" fill="url(#paint3_linear_184_450)"/>
<path d="M462.341 276.423C463.14 275.082 464.605 273.886 466.577 272.964C467.59 272.522 468.863 272.292 470.163 272.316C471.464 272.34 472.705 272.616 473.66 273.094C472.279 270.807 470.812 268.531 469.259 266.265C468.331 264.489 466.558 262.875 464.117 261.585C461.491 260.425 457.163 260.185 454.869 261.585C456.475 266.812 456.649 272.139 455.387 277.393C454.703 280.233 453.815 283.493 457.348 285.622C458.328 286.052 460.03 285.282 459.401 284.692C459.105 284.413 458.069 284.393 457.551 284.413C458.737 281.683 460.34 279.01 462.341 276.423Z" fill="url(#paint4_linear_184_450)"/>
<path opacity="0.5" d="M462.341 276.423C463.14 275.082 464.605 273.886 466.577 272.964C467.59 272.522 468.863 272.292 470.163 272.316C471.464 272.34 472.705 272.616 473.66 273.094C472.279 270.807 470.812 268.531 469.259 266.265C468.331 264.489 466.558 262.875 464.117 261.585C461.491 260.425 457.163 260.185 454.869 261.585C456.475 266.812 456.649 272.139 455.387 277.393C454.703 280.233 453.815 283.493 457.348 285.622C458.328 286.052 460.03 285.282 459.401 284.692C459.105 284.413 458.069 284.393 457.551 284.413C458.737 281.683 460.34 279.01 462.341 276.423Z" fill="white"/>
<path d="M432.823 271.684C432.794 273.61 433.128 275.534 433.822 277.423C434.182 278.368 434.891 279.263 435.909 280.055C436.926 280.848 438.229 281.52 439.74 282.033C437.891 278.313 438.89 274.364 439.888 270.554L441.738 263.555C441.829 262.736 442.279 261.941 443.051 261.235C443.447 260.888 444.048 260.625 444.757 260.486C445.466 260.348 446.24 260.344 446.954 260.475C445.104 261.055 442.755 260.275 441.645 259.295C440.814 258.24 439.869 257.212 438.816 256.216C436.337 254.496 431.048 254.116 427.386 254.576C428.477 260.325 432.398 265.785 432.823 271.684Z" fill="url(#paint5_linear_184_450)"/>
<path d="M432.823 271.684C432.794 273.61 433.128 275.534 433.822 277.423C434.182 278.368 434.891 279.263 435.909 280.055C436.926 280.848 438.229 281.52 439.74 282.033C437.891 278.313 438.89 274.364 439.888 270.554L441.738 263.555C441.829 262.736 442.279 261.941 443.051 261.235C443.447 260.888 444.048 260.625 444.757 260.486C445.466 260.348 446.24 260.344 446.954 260.475C445.104 261.055 442.755 260.275 441.645 259.295C440.814 258.24 439.869 257.212 438.816 256.216C436.337 254.496 431.048 254.116 427.386 254.576C428.477 260.325 432.398 265.785 432.823 271.684Z" fill="url(#paint6_linear_184_450)"/>
<g opacity="0.5">
<path d="M432.823 271.684C432.794 273.61 433.128 275.534 433.822 277.423C434.182 278.368 434.891 279.263 435.909 280.055C436.926 280.848 438.229 281.52 439.74 282.033C437.891 278.313 438.89 274.364 439.888 270.554L441.738 263.555C441.829 262.736 442.279 261.941 443.051 261.235C443.447 260.888 444.048 260.625 444.757 260.486C445.466 260.348 446.24 260.344 446.954 260.475C445.104 261.055 442.755 260.275 441.645 259.295C440.814 258.24 439.869 257.212 438.816 256.216C436.337 254.496 431.048 254.116 427.386 254.576C428.477 260.325 432.398 265.785 432.823 271.684Z" fill="white"/>
</g>
<path d="M402.639 256.266C401.558 255.709 400.866 254.967 400.679 254.166C400.581 253.772 400.34 253.392 399.968 253.049C399.597 252.705 399.103 252.405 398.515 252.166C392.837 254.116 395.944 259.825 390.192 261.715C389.082 262.085 387.658 262.295 387.048 262.915C386.808 263.207 386.738 263.532 386.847 263.846C386.956 264.16 387.239 264.449 387.658 264.675C388.521 265.117 389.623 265.397 390.802 265.475C393.106 265.647 395.454 265.474 397.588 264.973C399.721 264.472 401.559 263.663 402.898 262.635C405.155 260.955 406.708 258.256 405.598 256.266C405.153 256.412 404.641 256.49 404.119 256.49C403.597 256.49 403.085 256.412 402.639 256.266Z" fill="url(#paint7_linear_184_450)"/>
<path d="M343.585 293.652C343.585 293.862 343.418 294.132 343.733 294.272C344.047 294.412 344.861 294.152 345.231 293.872C346.458 292.967 348.182 292.293 350.157 291.947C352.132 291.601 354.258 291.599 356.235 291.942C357.733 291.942 358.251 290.692 357.271 290.082C356.712 289.812 356.055 289.608 355.341 289.484C354.627 289.36 353.873 289.318 353.128 289.362C351.634 289.455 350.122 289.32 348.763 288.972C348.009 288.708 347.426 288.323 347.095 287.872C346.763 287.42 346.7 286.924 346.914 286.452C345.97 288.862 344.805 291.252 343.585 293.652Z" fill="url(#paint8_linear_184_450)"/>
<g opacity="0.5">
<path d="M402.639 256.266C401.558 255.709 400.866 254.967 400.679 254.166C400.581 253.772 400.34 253.392 399.968 253.049C399.597 252.705 399.103 252.405 398.515 252.166C392.837 254.116 395.944 259.825 390.192 261.715C389.082 262.085 387.658 262.295 387.048 262.915C386.808 263.207 386.738 263.532 386.847 263.846C386.956 264.16 387.239 264.449 387.658 264.675C388.521 265.117 389.623 265.397 390.802 265.475C393.106 265.647 395.454 265.474 397.588 264.973C399.721 264.472 401.559 263.663 402.898 262.635C405.155 260.955 406.708 258.256 405.598 256.266C405.153 256.412 404.641 256.49 404.119 256.49C403.597 256.49 403.085 256.412 402.639 256.266Z" fill="white"/>
<path d="M343.585 293.652C343.585 293.862 343.418 294.132 343.733 294.272C344.047 294.412 344.861 294.152 345.231 293.872C346.458 292.967 348.182 292.293 350.157 291.947C352.132 291.601 354.258 291.599 356.235 291.942C357.733 291.942 358.251 290.692 357.271 290.082C356.712 289.812 356.055 289.608 355.341 289.484C354.627 289.36 353.873 289.318 353.128 289.362C351.634 289.455 350.122 289.32 348.763 288.972C348.009 288.708 347.426 288.323 347.095 287.872C346.763 287.42 346.7 286.924 346.914 286.452C345.97 288.862 344.805 291.252 343.585 293.652Z" fill="white"/>
</g>
<path d="M418.896 255.506C415.66 255.276 412.238 255.226 409.408 254.336C405.894 253.216 403.472 250.836 399.384 250.736C395.685 250.646 393.04 252.446 390.987 254.066C391.008 252.839 391.715 251.645 393.016 250.64C394.316 249.635 396.15 248.867 398.274 248.437C402.59 247.624 407.314 247.724 411.498 248.717C415.629 249.718 419.487 251.02 422.965 252.586C424.467 253.125 425.781 253.801 426.849 254.586C431.418 258.515 421.745 255.716 418.896 255.506Z" fill="url(#paint9_linear_184_450)"/>
<path opacity="0.5" d="M418.896 255.506C415.66 255.276 412.238 255.226 409.408 254.336C405.894 253.216 403.472 250.836 399.384 250.736C395.685 250.646 393.04 252.446 390.987 254.066C391.008 252.839 391.715 251.645 393.016 250.64C394.316 249.635 396.15 248.867 398.274 248.437C402.59 247.624 407.314 247.724 411.498 248.717C415.629 249.718 419.487 251.02 422.965 252.586C424.467 253.125 425.781 253.801 426.849 254.586C431.418 258.515 421.745 255.716 418.896 255.506Z" fill="white"/>
<path d="M361.043 312.289C361.263 312.072 361.461 311.848 361.635 311.619C361.439 311.694 361.281 311.795 361.178 311.912C361.074 312.03 361.028 312.159 361.043 312.289Z" fill="url(#paint10_linear_184_450)"/>
<path d="M366.537 296.801C366.167 294.341 366.814 291.862 366.629 289.392C366.444 286.922 365.242 284.323 361.913 282.623C357.141 280.193 344.065 281.433 348.449 286.052C349.089 286.683 350.126 287.168 351.372 287.419C352.618 287.67 353.989 287.672 355.236 287.422C355.832 287.271 356.365 287.056 356.805 286.791C357.245 286.527 357.583 286.217 357.798 285.881C358.014 285.544 358.102 285.188 358.059 284.833C358.017 284.478 357.843 284.131 357.548 283.813C360.119 286.014 361.388 288.586 361.186 291.187C360.985 293.788 359.322 296.294 356.42 298.371C359.743 300.007 362.033 302.165 362.968 304.542C363.904 306.918 363.438 309.394 361.636 311.619C362.085 311.453 362.617 311.364 363.161 311.364C363.706 311.364 364.238 311.453 364.687 311.619C365.824 312.248 366.634 313.027 367.036 313.879C367.683 314.689 368.886 315.529 370.513 315.469C372.733 312.519 372.011 309.17 370.513 306.09C369.015 303.01 366.999 300.011 366.537 296.801Z" fill="url(#paint11_linear_184_450)"/>
<path d="M414.384 250.437C411.84 249.37 408.824 248.68 405.636 248.437L414.384 250.437Z" fill="url(#paint12_linear_184_450)"/>
<path d="M436.134 281.723C435.431 280.023 433.97 278.443 433.1 276.723C431.084 272.814 432.361 268.634 431.436 264.605C430.176 259.342 425.264 254.535 417.694 251.156L414.383 250.396C417.589 251.709 419.924 253.547 421.042 255.636C423.612 260.415 424.408 265.395 425.554 270.334C427.292 277.968 429.855 285.54 433.23 293.011C435.431 289.332 437.669 285.472 436.134 281.723Z" fill="url(#paint13_linear_184_450)"/>
<path d="M400.919 263.945C403.137 262.892 404.532 261.423 404.822 259.835C405.078 258.43 405.01 257.012 404.618 255.616C404.426 255.939 404.024 256.213 403.487 256.388C402.95 256.562 402.313 256.626 401.696 256.566C400.176 256.247 398.93 255.634 398.2 254.846L397.534 256.096L397.257 255.416L396.369 256.026C397.682 258.026 398.959 260.355 396.924 262.185C395.828 263.031 394.409 263.74 392.763 264.265C394.014 264.678 395.473 264.87 396.936 264.812C398.398 264.755 399.791 264.452 400.919 263.945Z" fill="url(#paint14_linear_184_450)"/>
<path d="M404.507 255.116L404.618 255.616C404.681 255.447 404.642 255.272 404.507 255.116Z" fill="url(#paint15_linear_184_450)"/>
<path d="M394.834 275.353C388.361 268.464 381.888 261.575 374.73 254.876C370.738 250.902 366.003 247.159 360.6 243.707C358.122 242.217 351.056 238.758 347.154 241.037C344.546 242.557 347.968 245.317 344.768 246.967C345.508 246.967 349.114 246.777 349.503 247.037C357.669 252.527 362.056 259.38 361.913 266.424C364.521 265.315 368.109 266.854 370.143 268.274C382.697 276.979 394.426 286.023 405.284 295.371C403.176 291.241 403.12 286.852 400.864 282.752C399.269 280.193 397.251 277.717 394.834 275.353Z" fill="url(#paint16_linear_184_450)"/>
<path d="M470.183 292.141C473.491 287.729 475.447 283.055 475.972 278.303C476.327 273.911 474.309 269.558 470.165 265.775C469.092 264.845 464.616 261.005 462.231 261.315C457.884 261.875 463.581 265.955 464.579 266.974C468.278 270.824 472.181 274.894 471.977 279.243C471.793 282.593 469.185 285.742 467.095 288.892C465.514 291.082 464.632 293.401 464.487 295.751C464.173 296.011 463.877 296.281 463.525 296.521C460.765 298.649 456.614 300.132 451.91 300.67C453.76 297.671 455.48 294.671 457.274 291.672C457.921 290.602 458.143 289.142 456.996 288.402C457.379 288 457.576 287.554 457.57 287.102C457.316 286.289 456.782 285.509 455.998 284.802C453.519 281.923 454.352 278.573 454.962 275.413C455.702 271.514 455.979 267.504 453.871 263.755C451.762 260.005 446.861 256.526 439.981 255.286L441.83 256.286L439.5 255.366L443.828 260.245L442.237 261.475C444.623 260.795 447.675 261.775 448.766 263.105C449.622 264.493 449.806 265.977 449.302 267.414C447.909 275.515 448.643 283.682 451.485 291.672C451.391 293.537 450.478 295.364 448.822 297.001C447.924 297.885 446.575 298.611 444.935 299.091C443.295 299.572 441.434 299.787 439.574 299.711C439.982 298.731 439.863 297.708 439.231 296.764C438.598 295.819 437.479 294.993 436.005 294.381C432.305 297.181 434.488 301.53 435.043 304.72C435.904 309.551 437.344 314.347 439.352 319.078C439.935 314.984 441.521 310.949 444.068 307.08C446.066 311.026 448.076 314.975 450.098 318.928C450 317.818 450.393 316.711 451.244 315.699C451.693 315.201 452.446 314.801 453.376 314.568C454.306 314.335 455.356 314.282 456.349 314.419C457.085 314.635 457.735 314.929 458.258 315.283C458.782 315.636 459.171 316.043 459.401 316.479C464.637 323.321 465.926 330.86 463.1 338.106C465.578 338.856 468.87 337.956 470.257 336.616C471.402 335.202 471.854 333.653 471.571 332.117C471.065 318.805 470.603 305.48 470.183 292.141Z" fill="url(#paint17_linear_184_450)"/>
<path d="M407.485 296.371C406.301 297.491 411.184 301.95 411.942 303.01C416.011 308.39 420.086 313.772 424.167 319.158C422.812 312.061 419.624 305.101 414.698 298.481C413.866 297.371 409.834 294.141 407.485 296.371Z" fill="url(#paint18_linear_184_450)"/>
<path d="M413.81 267.855C413.107 268.424 412.127 269.124 410.925 268.924C409.723 268.724 409.593 267.925 409.612 267.295C409.735 263.555 409.852 259.812 409.963 256.066C404.415 258.236 405.081 261.065 404.692 264.305C404.47 266.175 405.469 275.104 403.102 276.194C408.642 273.637 413.301 270.57 416.862 267.135C415.9 266.705 414.495 267.285 413.81 267.855Z" fill="url(#paint19_linear_184_450)"/>
<g opacity="0.5">
<path d="M361.043 312.289C361.263 312.072 361.461 311.848 361.635 311.619C361.439 311.694 361.281 311.795 361.178 311.912C361.074 312.03 361.028 312.159 361.043 312.289Z" fill="white"/>
<path d="M366.537 296.801C366.167 294.341 366.814 291.862 366.629 289.392C366.444 286.922 365.242 284.323 361.913 282.623C357.141 280.193 344.065 281.433 348.449 286.052C349.089 286.683 350.126 287.168 351.372 287.419C352.618 287.67 353.989 287.672 355.236 287.422C355.832 287.271 356.365 287.056 356.805 286.791C357.245 286.527 357.583 286.217 357.798 285.881C358.014 285.544 358.102 285.188 358.059 284.833C358.017 284.478 357.843 284.131 357.548 283.813C360.119 286.014 361.388 288.586 361.186 291.187C360.985 293.788 359.322 296.294 356.42 298.371C359.743 300.007 362.033 302.165 362.968 304.542C363.904 306.918 363.438 309.394 361.636 311.619C362.085 311.453 362.617 311.364 363.161 311.364C363.706 311.364 364.238 311.453 364.687 311.619C365.824 312.248 366.634 313.027 367.036 313.879C367.683 314.689 368.886 315.529 370.513 315.469C372.733 312.519 372.011 309.17 370.513 306.09C369.015 303.01 366.999 300.011 366.537 296.801Z" fill="white"/>
<path d="M414.383 250.437C411.839 249.37 408.824 248.68 405.635 248.437L414.383 250.437Z" fill="white"/>
<path d="M436.134 281.723C435.431 280.023 433.97 278.443 433.1 276.723C431.084 272.814 432.361 268.634 431.436 264.605C430.176 259.342 425.264 254.535 417.694 251.156L414.383 250.396C417.589 251.709 419.924 253.547 421.042 255.636C423.612 260.415 424.408 265.395 425.554 270.334C427.292 277.968 429.855 285.54 433.23 293.011C435.431 289.332 437.669 285.472 436.134 281.723Z" fill="white"/>
<path d="M400.919 263.945C403.137 262.892 404.532 261.423 404.822 259.835C405.078 258.43 405.01 257.012 404.618 255.616C404.426 255.939 404.024 256.213 403.487 256.388C402.95 256.562 402.313 256.626 401.696 256.566C400.176 256.247 398.93 255.634 398.2 254.846L397.534 256.096L397.257 255.416L396.369 256.026C397.682 258.026 398.959 260.355 396.924 262.185C395.828 263.031 394.409 263.74 392.763 264.265C394.014 264.678 395.473 264.87 396.936 264.812C398.398 264.755 399.791 264.452 400.919 263.945Z" fill="white"/>
<path d="M404.507 255.116L404.618 255.616C404.681 255.447 404.642 255.272 404.507 255.116Z" fill="white"/>
<path d="M394.834 275.353C388.361 268.464 381.888 261.575 374.73 254.876C370.738 250.902 366.003 247.159 360.6 243.707C358.122 242.217 351.056 238.758 347.154 241.037C344.546 242.557 347.968 245.317 344.768 246.967C345.508 246.967 349.114 246.777 349.503 247.037C357.669 252.527 362.056 259.38 361.913 266.424C364.521 265.315 368.109 266.854 370.143 268.274C382.697 276.979 394.426 286.023 405.284 295.371C403.176 291.241 403.12 286.852 400.864 282.752C399.269 280.193 397.251 277.717 394.834 275.353Z" fill="white"/>
<path d="M470.183 292.141C473.491 287.729 475.447 283.055 475.972 278.303C476.327 273.911 474.309 269.558 470.165 265.775C469.092 264.845 464.616 261.005 462.231 261.315C457.884 261.875 463.581 265.955 464.579 266.974C468.278 270.824 472.181 274.894 471.977 279.243C471.793 282.593 469.185 285.742 467.095 288.892C465.514 291.082 464.632 293.401 464.487 295.751C464.173 296.011 463.877 296.281 463.525 296.521C460.765 298.649 456.614 300.132 451.91 300.67C453.76 297.671 455.48 294.671 457.274 291.672C457.921 290.602 458.143 289.142 456.996 288.402C457.379 288 457.576 287.554 457.57 287.102C457.316 286.289 456.782 285.509 455.998 284.802C453.519 281.923 454.352 278.573 454.962 275.413C455.702 271.514 455.979 267.504 453.871 263.755C451.762 260.005 446.861 256.526 439.981 255.286L441.83 256.286L439.5 255.366L443.828 260.245L442.237 261.475C444.623 260.795 447.675 261.775 448.766 263.105C449.622 264.493 449.806 265.977 449.302 267.414C447.909 275.515 448.643 283.682 451.485 291.672C451.391 293.537 450.478 295.364 448.822 297.001C447.924 297.885 446.575 298.611 444.935 299.091C443.295 299.572 441.434 299.787 439.574 299.711C439.982 298.731 439.863 297.708 439.231 296.764C438.598 295.819 437.479 294.993 436.005 294.381C432.305 297.181 434.488 301.53 435.043 304.72C435.904 309.551 437.344 314.347 439.352 319.078C439.935 314.984 441.521 310.949 444.068 307.08C446.066 311.026 448.076 314.975 450.098 318.928C450 317.818 450.393 316.711 451.244 315.699C451.693 315.201 452.446 314.801 453.376 314.568C454.306 314.335 455.356 314.282 456.349 314.419C457.085 314.635 457.735 314.929 458.258 315.283C458.782 315.636 459.171 316.043 459.401 316.479C464.637 323.321 465.926 330.86 463.1 338.106C465.578 338.856 468.87 337.956 470.257 336.616C471.402 335.202 471.854 333.653 471.571 332.117C471.065 318.805 470.603 305.48 470.183 292.141Z" fill="white"/>
<path d="M407.485 296.371C406.301 297.491 411.184 301.95 411.942 303.01C416.011 308.39 420.086 313.772 424.167 319.158C422.812 312.061 419.624 305.101 414.698 298.481C413.866 297.371 409.834 294.141 407.485 296.371Z" fill="white"/>
<path d="M413.81 267.855C413.107 268.424 412.127 269.124 410.925 268.924C409.723 268.724 409.593 267.925 409.612 267.295C409.735 263.555 409.852 259.812 409.963 256.066C404.415 258.236 405.081 261.065 404.692 264.305C404.47 266.175 405.469 275.104 403.102 276.194C408.642 273.637 413.301 270.57 416.862 267.135C415.9 266.705 414.495 267.285 413.81 267.855Z" fill="white"/>
</g>
</g>
<path d="M345.859 293.101C343.714 294.02 341.88 295.133 340.44 296.391L345.859 293.101Z" fill="white"/>
<path d="M422.688 384.091L403.379 351.234C385.254 341.146 351.963 331.917 349.077 317.938C345.378 300.001 340.255 300.731 340.255 296.271C342.238 294.069 343.943 291.798 345.36 289.472C346.221 287.696 346.839 285.888 347.209 284.063C347.448 283.154 348.313 282.328 349.629 281.75C350.946 281.172 352.619 280.883 354.312 280.943C356.672 281.024 358.927 281.499 360.766 282.303C364.05 283.941 366.037 286.201 366.315 288.612C366.562 290.998 366.232 293.391 365.335 295.731C368.732 299.593 371.116 303.692 372.418 307.91C373.99 304.55 375.082 301.18 376.635 297.821C377.042 297.691 376.857 297.431 377.227 297.291C374.046 294.171 376.413 294.291 370.032 287.342C359.287 275.704 347.505 264.535 338.239 249.757C337.477 248.381 337.356 246.924 337.888 245.517C340.052 241.128 348.356 241.818 352.24 244.197C353.258 244.824 354.099 245.528 354.737 246.287C360.366 252.527 367.033 258.478 374.656 264.065L396.85 279.893C396.85 279.893 403.472 276.543 404.378 275.114C405.247 273.684 404.378 262.425 404.378 262.425C404.378 262.425 403.046 264.585 399.514 264.585C396.961 264.585 391.894 265.585 387.936 263.465C386.397 262.612 385.446 261.5 385.24 260.313C385.035 259.127 385.588 257.938 386.807 256.946L395.075 249.947C396.964 249.027 399.286 248.406 401.785 248.152C404.284 247.898 406.864 248.021 409.242 248.507C415.318 249.89 420.988 251.746 426.073 254.016C430.873 253.787 435.709 254.128 440.24 255.016C446.898 256.466 454.241 261.015 454.241 261.015C454.241 261.015 461.768 261.015 465.338 262.185C466.225 262.485 478.876 271.724 475.658 279.383C473.808 283.953 473.05 290.512 472.162 292.292L471.94 336.496L487.217 365.793" stroke="#263238" stroke-miterlimit="10"/>
<path d="M428.033 255.606C431.29 262.127 432.981 268.848 433.064 275.603C432.959 276.735 433.183 277.869 433.73 278.963C434.018 279.507 434.559 280.003 435.3 280.404C436.041 280.804 436.958 281.096 437.965 281.253" stroke="#263238" stroke-miterlimit="10"/>
<path d="M454.13 262.175C459.68 268.434 454 282.423 454.407 283.403C454.58 283.9 454.948 284.372 455.487 284.786C456.027 285.2 456.725 285.547 457.534 285.802" stroke="#263238" stroke-miterlimit="10"/>
<path d="M406.45 254.756C405.802 256.756 405.266 259.046 404.6 261.036C402.444 260.036 400.68 258.813 399.409 257.44C398.139 256.066 397.389 254.569 397.202 253.036" stroke="#263238" stroke-miterlimit="10"/>
<path d="M371.013 308.1L367 309.01" stroke="#263238" stroke-miterlimit="10"/>
<path d="M372.03 309.83C371.392 311.499 371.392 313.221 372.03 314.89" stroke="#263238" stroke-miterlimit="10"/>
<path d="M395.408 291.152C396.887 292.582 398.348 294.022 399.828 295.462" stroke="#263238" stroke-miterlimit="10"/>
<path d="M403.99 275.374L408.392 272.014" stroke="#263238" stroke-miterlimit="10"/>
<path d="M465.819 291.152L464.487 293.782" stroke="#263238" stroke-miterlimit="10"/>
<path d="M455.055 283.943C456.288 281.703 457.589 279.463 458.957 277.223" stroke="#263238" stroke-miterlimit="10"/>
<path d="M468.075 272.014C469.246 271.685 470.61 271.619 471.871 271.831C473.131 272.042 474.186 272.514 474.807 273.144" stroke="#263238" stroke-miterlimit="10"/>
<path d="M441.498 260.545C443.032 260.313 444.65 260.292 446.204 260.485C447.758 260.677 449.198 261.076 450.394 261.645" stroke="#263238" stroke-miterlimit="10"/>
<path d="M359.121 267.215C360.556 266.364 362.343 265.709 364.335 265.302C366.328 264.895 368.47 264.749 370.588 264.875" stroke="#263238" stroke-miterlimit="10"/>
<path d="M342.419 248.357C343.741 247.841 345.239 247.471 346.826 247.269C348.413 247.066 350.058 247.035 351.667 247.177" stroke="#263238" stroke-miterlimit="10"/>
<path d="M345.859 293.101C343.714 294.02 341.88 295.133 340.44 296.391" stroke="#263238" stroke-miterlimit="10"/>
<path d="M347.635 288.562C350.557 287.432 355.218 289.952 357.9 288.662C358.375 288.373 358.707 288.023 358.865 287.645C359.024 287.268 359.003 286.875 358.806 286.502C358.41 285.759 358.229 284.986 358.269 284.212" stroke="#263238" stroke-miterlimit="10"/>
<path d="M430.105 281.623C433.664 285.617 434.388 290.178 432.14 294.441" stroke="#263238" stroke-miterlimit="10"/>
<path d="M451.597 287.792C452.17 289.686 451.517 291.629 449.747 293.292" stroke="#263238" stroke-miterlimit="10"/>
<path opacity="0.2" d="M272.767 302.8C272.934 303.493 272.877 304.197 272.6 304.88C271.398 307.88 267.921 316.659 266.645 321.458C265.128 327.317 247.613 345.455 247.613 345.455C247.613 345.455 231.486 356.294 223.274 361.933C219.242 364.703 212.861 375.931 207.442 386.59C200.599 385.47 193.817 384.264 187.097 382.971C181.549 381.901 176 380.771 170.452 379.601C160.554 377.378 150.907 374.84 141.563 372.002C144.633 366.003 146.686 361.333 146.649 361.063C146.556 360.433 153.233 353.484 153.233 353.484L147.407 312.009L143.967 305.7C142.179 302.442 141.044 299.09 140.582 295.701C139.859 290.556 140.664 285.381 142.968 280.373L153.011 272.314L157.709 272.124L172.246 261.125C172.246 261.125 180.106 259.845 182.122 263.045C184.138 266.245 175.575 272.224 175.575 272.224L172.634 282.093L179.625 291.332L183.324 292.051C183.324 292.051 184.545 275.783 183.713 272.534L191.296 257.746C193.57 255.324 195.583 252.834 197.325 250.286C198.731 247.797 206.998 245.287 211.751 249.697C212.558 250.496 213.041 251.38 213.169 252.288C213.297 253.197 213.066 254.109 212.491 254.966C210.549 258.016 208.94 260.415 208.94 260.415C208.94 260.415 207.091 272.994 206.628 273.344C206.166 273.694 210.05 292.071 210.05 292.071L213.083 292.801L214.156 275.253L220.463 258.765C220.463 258.765 219.945 250.836 230.283 251.766C231.878 251.734 233.455 251.96 234.81 252.416C236.165 252.873 237.236 253.538 237.885 254.326C240.641 257.176 238.014 276.153 238.014 276.153L240.567 295.771L244.654 310.899L249.463 300.53C249.463 300.53 249.74 285.672 267.089 284.402C267.089 284.402 272.249 283.902 273.303 285.842C274.357 287.782 270.732 291.742 271.25 295.541C271.712 298.241 272.415 301.25 272.767 302.8Z" fill="black"/>
<path d="M267.496 284.432C266.7 282.433 261.503 282.743 261.503 282.743C244.025 283.303 241.677 298.111 241.677 298.111L235.407 308.25L233.557 292.991L233.742 273.324C233.742 273.324 239.032 254.506 236.683 251.556C236.146 250.743 235.17 250.035 233.881 249.525C232.591 249.015 231.048 248.727 229.451 248.697C219.279 247.317 218.687 255.246 218.687 255.246L210.105 271.424L206.573 288.872L203.651 288.032C203.651 288.032 202.264 269.514 202.855 269.204C203.447 268.894 206.961 256.416 206.961 256.416C206.961 256.416 208.903 254.086 211.271 251.126C211.965 250.295 212.323 249.394 212.323 248.482C212.323 247.57 211.965 246.668 211.271 245.837C207.146 241.298 198.565 243.417 196.789 245.837C194.704 248.305 192.358 250.705 189.761 253.026L179.958 267.514C180.328 270.794 176.851 286.972 176.851 286.972L173.319 286.102L167.641 276.603L171.969 266.875C171.969 266.875 181.346 261.275 179.774 257.996C178.201 254.716 170.193 255.676 170.193 255.676L154.084 266.015H149.368L138.271 273.624C133.272 281.78 132.39 290.509 135.718 298.911L138.271 305.34V346.895C138.271 346.895 130.651 353.554 130.651 354.184C130.651 354.474 127.506 359.723 123.123 366.273C142.302 372.372 158.819 377.091 170.526 379.581C176.074 380.761 181.623 381.881 187.172 382.951C194.2 372.282 202.411 360.873 206.943 358.204C215.931 352.924 233.539 342.765 233.539 342.765C233.539 342.765 253.532 325.398 255.881 319.628C257.73 314.889 262.502 306.28 264.13 303.33C264.509 302.661 264.659 301.959 264.573 301.26C264.444 299.701 264.167 296.671 264.167 294.001C264.093 290.212 268.272 286.402 267.496 284.432Z" fill="white"/>
<mask id="mask2_184_450" style="mask-type:luminance" maskUnits="userSpaceOnUse" x="123" y="243" width="145" height="140">
<path d="M267.496 284.432C266.7 282.433 261.503 282.743 261.503 282.743C244.025 283.303 241.677 298.111 241.677 298.111L235.407 308.25L233.557 292.991L233.742 273.324C233.742 273.324 239.032 254.506 236.683 251.556C236.146 250.743 235.17 250.035 233.881 249.525C232.591 249.015 231.048 248.727 229.451 248.697C219.279 247.317 218.687 255.246 218.687 255.246L210.105 271.424L206.573 288.872L203.651 288.032C203.651 288.032 202.264 269.514 202.855 269.204C203.447 268.894 206.961 256.416 206.961 256.416C206.961 256.416 208.903 254.086 211.271 251.126C211.965 250.295 212.323 249.394 212.323 248.482C212.323 247.57 211.965 246.668 211.271 245.837C207.146 241.298 198.565 243.417 196.789 245.837C194.704 248.305 192.358 250.705 189.761 253.026L179.958 267.514C180.328 270.794 176.851 286.972 176.851 286.972L173.319 286.102L167.641 276.603L171.969 266.875C171.969 266.875 181.346 261.275 179.774 257.996C178.201 254.716 170.193 255.676 170.193 255.676L154.084 266.015H149.368L138.271 273.624C133.272 281.78 132.39 290.509 135.718 298.911L138.271 305.34V346.895C138.271 346.895 130.651 353.554 130.651 354.184C130.651 354.474 127.506 359.723 123.123 366.273C142.302 372.372 158.819 377.091 170.526 379.581C176.074 380.761 181.623 381.881 187.172 382.951C194.2 372.282 202.411 360.873 206.943 358.204C215.931 352.924 233.539 342.765 233.539 342.765C233.539 342.765 253.532 325.398 255.881 319.628C257.73 314.889 262.502 306.28 264.13 303.33C264.509 302.661 264.659 301.959 264.573 301.26C264.444 299.701 264.167 296.671 264.167 294.001C264.093 290.212 268.272 286.402 267.496 284.432Z" fill="white"/>
</mask>
<g mask="url(#mask2_184_450)">
<path d="M147.463 280.253C150.459 278.253 156.6 277.463 160.077 279.253C161.872 280.377 162.977 281.774 163.239 283.252C163.49 284.734 164.453 286.154 166.032 287.372C167.882 288.502 171.377 288.942 173.245 287.862C173.504 290.051 173.745 292.241 174.004 294.431C178.326 290.351 180.524 285.714 180.366 281.013C180.366 278.743 179.645 276.433 180.625 274.213C181.605 271.994 184.768 269.854 188.985 269.744C193.645 269.634 197.326 272.084 198.232 274.563C199.138 277.043 198.084 279.563 197.807 282.102C197.37 285.961 198.744 289.817 201.802 293.311L204.742 290.091C205.63 292.251 206.592 294.401 207.387 296.551C208.152 291.811 208.916 287.075 209.681 282.342C209.744 280.998 210.29 279.674 211.29 278.443C211.814 277.834 212.654 277.321 213.708 276.966C214.762 276.611 215.985 276.429 217.227 276.443C220.556 276.623 222.479 278.543 223.589 280.243C231.93 292.991 228.49 306.979 224.958 320.358C227.269 320.588 229.23 319.358 229.803 318.088C230.065 316.828 230.479 315.579 231.042 314.349C231.912 313.159 234.575 312.189 236.591 312.869C239.513 313.869 237.479 316.928 240.53 317.778C241.497 313.8 244.387 310.031 248.909 306.849C250.962 305.41 254.032 303.98 257.287 304.44C258.47 304.663 259.51 305.063 260.287 305.594C261.063 306.126 261.543 306.766 261.67 307.439C262.022 308.779 265.61 303.24 264.981 304.55C266.387 296.841 263.575 296.031 264.981 288.312C265.24 286.922 269.401 284.512 267.626 283.492C265.85 282.472 260.912 281.093 258.674 281.653C256.436 282.212 249.186 284.172 247.743 285.242C238.644 292.031 239.273 301.85 236.443 310.089C234.02 297.531 231.634 284.762 235.888 272.354C238.237 265.504 242.565 258.355 238.477 251.766C236.628 248.766 231.653 245.767 225.864 246.307C221.203 246.767 218.466 249.306 216.487 251.666C210.124 259.565 207.239 268.144 204.502 276.663L214.896 251.016C216.068 248.83 216.433 246.54 215.969 244.277C215.211 242.037 212.381 239.847 208.275 239.378C204.169 238.908 200.137 240.217 197.067 241.737C185.97 247.177 181.975 255.476 178.387 263.295C179.907 261.295 180.638 259.146 180.532 256.985C180.144 254.846 177.629 252.666 173.745 252.196C168.695 251.606 164.127 254.036 161.908 256.546C159.688 259.055 158.616 261.965 155.083 263.995C152.512 262.435 147.685 262.525 144.467 263.685C141.385 264.971 139.043 266.705 137.716 268.684C131.917 275.739 129.457 283.464 130.559 291.161C131.894 289.633 134.068 288.363 136.785 287.526C139.502 286.689 142.629 286.324 145.743 286.482C145.373 284.782 145.022 283.082 144.652 281.373" fill="url(#paint20_linear_184_450)"/>
<path d="M159.651 296.521C159.485 297.781 159.337 299.041 159.17 300.301C159.378 300.05 159.688 299.828 160.078 299.651C160.467 299.474 160.925 299.347 161.418 299.28C161.911 299.213 162.426 299.206 162.924 299.262C163.422 299.318 163.89 299.434 164.294 299.601C164.242 298.776 164.647 297.961 165.459 297.261C166.051 296.501 166.106 295.421 164.737 295.061C163.369 294.701 161.519 295.641 160.65 296.501C160.65 296.191 160.521 295.881 160.447 295.561L159.651 296.521Z" fill="url(#paint21_linear_184_450)"/>
<path d="M186.173 294.261C184.275 295.452 182.998 296.895 182.474 298.441C183.227 297.98 184.155 297.612 185.193 297.361C185.715 297.246 186.29 297.221 186.839 297.289C187.389 297.357 187.886 297.515 188.263 297.741C188.67 298.041 188.818 298.481 189.447 298.651C189.783 298.726 190.158 298.731 190.5 298.665C190.842 298.598 191.126 298.465 191.296 298.291C191.618 297.951 191.777 297.573 191.759 297.191C191.926 296.467 191.851 295.731 191.537 295.021C191.373 294.666 191.041 294.34 190.574 294.076C190.108 293.811 189.521 293.616 188.873 293.511C188.548 293.472 188.211 293.47 187.884 293.506C187.557 293.541 187.247 293.612 186.974 293.716C186.701 293.819 186.471 293.952 186.298 294.106C186.125 294.261 186.013 294.432 185.97 294.611L186.173 294.261Z" fill="url(#paint22_linear_184_450)"/>
<path d="M211.862 297.701C209.84 299.174 208.508 300.889 207.979 302.701C209.327 302.524 210.569 302.162 211.585 301.651C212.609 301.128 213.896 300.78 215.284 300.651C215.621 300.629 215.962 300.642 216.289 300.692C216.615 300.741 216.921 300.825 217.187 300.938C217.453 301.052 217.676 301.192 217.841 301.353C218.007 301.513 218.112 301.689 218.151 301.871C217.987 301.024 218.037 300.17 218.299 299.331C218.561 298.489 218.447 297.624 217.966 296.811C217.703 296.408 217.222 296.057 216.585 295.804C215.949 295.551 215.186 295.407 214.396 295.391C214.01 295.403 213.634 295.464 213.299 295.569C212.964 295.673 212.68 295.819 212.467 295.994C212.255 296.169 212.122 296.368 212.078 296.576C212.034 296.784 212.08 296.994 212.214 297.191L211.862 297.701Z" fill="url(#paint23_linear_184_450)"/>
<path d="M141.193 302.72C139.771 304.167 139.027 305.781 139.029 307.42C139.103 307.045 139.413 306.694 139.908 306.428C140.404 306.162 141.053 305.997 141.748 305.96C143.144 305.898 144.535 306.1 145.688 306.53C146.058 305.78 146.147 304.998 145.946 304.23C145.828 303.851 145.51 303.499 145.032 303.215C144.553 302.931 143.933 302.728 143.246 302.63C141.822 302.51 140.268 303.24 140.657 303.98L140.231 303.41L141.193 302.72Z" fill="url(#paint24_linear_184_450)"/>
<path opacity="0.5" d="M147.463 280.253C150.459 278.253 156.6 277.463 160.077 279.253C161.872 280.377 162.977 281.774 163.239 283.252C163.49 284.734 164.453 286.154 166.032 287.372C167.882 288.502 171.377 288.942 173.245 287.862C173.504 290.051 173.745 292.241 174.004 294.431C178.326 290.351 180.524 285.714 180.366 281.013C180.366 278.743 179.645 276.433 180.625 274.213C181.605 271.994 184.768 269.854 188.985 269.744C193.645 269.634 197.326 272.084 198.232 274.563C199.138 277.043 198.084 279.563 197.807 282.102C197.37 285.961 198.744 289.817 201.802 293.311L204.742 290.091C205.63 292.251 206.592 294.401 207.387 296.551C208.152 291.811 208.916 287.075 209.681 282.342C209.744 280.998 210.29 279.674 211.29 278.443C211.814 277.834 212.654 277.321 213.708 276.966C214.762 276.611 215.985 276.429 217.227 276.443C220.556 276.623 222.479 278.543 223.589 280.243C231.93 292.991 228.49 306.979 224.958 320.358C227.269 320.588 229.23 319.358 229.803 318.088C230.065 316.828 230.479 315.579 231.042 314.349C231.912 313.159 234.575 312.189 236.591 312.869C239.513 313.869 237.479 316.928 240.53 317.778C241.497 313.8 244.387 310.031 248.909 306.849C250.962 305.41 254.032 303.98 257.287 304.44C258.47 304.663 259.51 305.063 260.287 305.594C261.063 306.126 261.543 306.766 261.67 307.439C262.022 308.779 265.61 303.24 264.981 304.55C266.387 296.841 263.575 296.031 264.981 288.312C265.24 286.922 269.401 284.512 267.626 283.492C265.85 282.472 260.912 281.093 258.674 281.653C256.436 282.212 249.186 284.172 247.743 285.242C238.644 292.031 239.273 301.85 236.443 310.089C234.02 297.531 231.634 284.762 235.888 272.354C238.237 265.504 242.565 258.355 238.477 251.766C236.628 248.766 231.653 245.767 225.864 246.307C221.203 246.767 218.466 249.306 216.487 251.666C210.124 259.565 207.239 268.144 204.502 276.663L214.896 251.016C216.068 248.83 216.433 246.54 215.969 244.277C215.211 242.037 212.381 239.847 208.275 239.378C204.169 238.908 200.137 240.217 197.067 241.737C185.97 247.177 181.975 255.476 178.387 263.295C179.907 261.295 180.638 259.146 180.532 256.985C180.144 254.846 177.629 252.666 173.745 252.196C168.695 251.606 164.127 254.036 161.908 256.546C159.688 259.055 158.616 261.965 155.083 263.995C152.512 262.435 147.685 262.525 144.467 263.685C141.385 264.971 139.043 266.705 137.716 268.684C131.917 275.739 129.457 283.464 130.559 291.161C131.894 289.633 134.068 288.363 136.785 287.526C139.502 286.689 142.629 286.324 145.743 286.482C145.373 284.782 145.022 283.082 144.652 281.373" fill="white"/>
<g opacity="0.5">
<path d="M159.651 296.521C159.485 297.781 159.337 299.041 159.17 300.301C159.378 300.05 159.688 299.828 160.078 299.651C160.467 299.474 160.925 299.347 161.418 299.28C161.911 299.213 162.426 299.206 162.924 299.262C163.422 299.318 163.89 299.434 164.294 299.601C164.242 298.776 164.647 297.961 165.459 297.261C166.051 296.501 166.106 295.421 164.737 295.061C163.369 294.701 161.519 295.641 160.65 296.501C160.65 296.191 160.521 295.881 160.447 295.561L159.651 296.521Z" fill="white"/>
<path d="M186.173 294.261C184.275 295.452 182.998 296.895 182.474 298.441C183.227 297.98 184.155 297.612 185.193 297.361C185.715 297.246 186.29 297.221 186.839 297.289C187.389 297.357 187.886 297.515 188.263 297.741C188.67 298.041 188.818 298.481 189.447 298.651C189.783 298.726 190.158 298.731 190.5 298.665C190.842 298.598 191.126 298.465 191.296 298.291C191.618 297.951 191.777 297.573 191.759 297.191C191.926 296.467 191.851 295.731 191.537 295.021C191.373 294.666 191.041 294.34 190.574 294.076C190.108 293.811 189.521 293.616 188.873 293.511C188.548 293.472 188.211 293.47 187.884 293.506C187.557 293.541 187.247 293.612 186.974 293.716C186.701 293.819 186.471 293.952 186.298 294.106C186.125 294.261 186.013 294.432 185.97 294.611L186.173 294.261Z" fill="white"/>
<path d="M211.862 297.701C209.84 299.174 208.508 300.889 207.979 302.701C209.327 302.524 210.569 302.162 211.585 301.651C212.609 301.128 213.896 300.78 215.284 300.651C215.621 300.629 215.962 300.642 216.289 300.692C216.615 300.741 216.921 300.825 217.187 300.938C217.453 301.052 217.676 301.192 217.841 301.353C218.007 301.513 218.112 301.689 218.151 301.871C217.987 301.024 218.037 300.17 218.299 299.331C218.561 298.489 218.447 297.624 217.966 296.811C217.703 296.408 217.222 296.057 216.585 295.804C215.949 295.551 215.186 295.407 214.396 295.391C214.01 295.403 213.634 295.464 213.299 295.569C212.964 295.673 212.68 295.819 212.467 295.994C212.255 296.169 212.122 296.368 212.078 296.576C212.034 296.784 212.08 296.994 212.214 297.191L211.862 297.701Z" fill="white"/>
<path d="M141.193 302.72C139.771 304.167 139.027 305.781 139.029 307.42C139.103 307.045 139.413 306.694 139.908 306.428C140.404 306.162 141.053 305.997 141.748 305.96C143.144 305.898 144.535 306.1 145.688 306.53C146.058 305.78 146.147 304.998 145.946 304.23C145.828 303.851 145.51 303.499 145.032 303.215C144.553 302.931 143.933 302.728 143.246 302.63C141.822 302.51 140.268 303.24 140.657 303.98L140.231 303.41L141.193 302.72Z" fill="white"/>
</g>
</g>
<path d="M123.068 366.293C127.451 359.743 130.595 354.494 130.595 354.204C130.595 353.574 138.215 346.915 138.215 346.915V305.36L135.663 298.931C132.335 290.529 133.216 281.8 138.215 273.644L149.312 266.035H154.029L170.045 255.676C170.045 255.676 178.072 254.676 179.626 257.996C181.179 261.315 171.821 266.875 171.821 266.875L167.493 276.603L173.171 286.102L176.704 286.972C176.704 286.972 180.181 270.794 179.811 267.514L189.613 253.026C192.21 250.705 194.557 248.305 196.641 245.837C198.491 243.417 206.999 241.298 211.123 245.837C211.817 246.668 212.176 247.57 212.176 248.482C212.176 249.394 211.817 250.295 211.123 251.126C208.756 254.126 206.814 256.416 206.814 256.416C206.814 256.416 203.3 268.884 202.708 269.204C202.116 269.524 203.503 288.032 203.503 288.032L206.425 288.872L209.958 271.424L218.54 255.246C218.54 255.246 219.131 247.317 229.304 248.697C230.9 248.727 232.443 249.015 233.733 249.525C235.022 250.035 235.999 250.743 236.535 251.556C238.884 254.506 233.595 273.324 233.595 273.324L233.465 293.011L235.315 308.27L241.584 298.131C241.584 298.131 243.933 283.323 261.411 282.763C261.411 282.763 266.608 282.473 267.404 284.452C268.199 286.432 264 290.232 264 294.041C264 296.711 264.278 299.741 264.407 301.3C264.493 301.999 264.343 302.701 263.963 303.37C262.336 306.37 257.638 314.929 255.715 319.668C253.366 325.438 233.373 342.805 233.373 342.805C233.373 342.805 215.765 352.964 206.777 358.244C202.245 360.913 194.034 372.322 187.005 382.991" stroke="#263238" stroke-miterlimit="10"/>
<path d="M176.501 288.532C177.003 289.524 177.026 290.569 176.566 291.568C176.106 292.566 175.179 293.483 173.874 294.232" fill="white"/>
<path d="M176.501 288.532C177.003 289.524 177.026 290.569 176.566 291.568C176.106 292.566 175.179 293.483 173.874 294.232" stroke="#263238" stroke-miterlimit="10"/>
<path d="M146.612 302.51C149.146 300.391 151.624 297.461 150.94 294.961C149.608 290.052 145.391 284.402 147.241 279.543C148.424 276.443 149.608 273.334 150.81 270.234" fill="white"/>
<path d="M146.612 302.51C149.146 300.391 151.624 297.461 150.94 294.961C149.608 290.052 145.391 284.402 147.241 279.543C148.424 276.443 149.608 273.334 150.81 270.234" stroke="#263238" stroke-miterlimit="10"/>
<path d="M220.352 256.136C223.383 255.704 226.569 255.704 229.6 256.136C229.6 255.666 229.6 255.206 229.692 254.736" stroke="#263238" stroke-miterlimit="10"/>
<path d="M196.068 249.897C196.961 250.225 198.003 250.415 199.081 250.447C200.159 250.478 201.233 250.349 202.185 250.074C203.137 249.799 203.933 249.388 204.484 248.886C205.036 248.385 205.324 247.811 205.315 247.227" stroke="#263238" stroke-miterlimit="10"/>
<path d="M262.909 284.602C260.352 284.958 258.105 285.785 256.556 286.94C255.006 288.096 254.25 289.508 254.42 290.932L258.951 291.672" stroke="#263238" stroke-miterlimit="10"/>
<path d="M203.392 285.822C203.595 287.502 203.207 291.512 203.392 293.192V285.822Z" fill="white"/>
<path d="M203.392 285.822C203.595 287.502 203.207 291.512 203.392 293.192" stroke="#263238" stroke-miterlimit="10"/>
<path d="M206.795 288.152C206.425 290.892 206.049 293.639 205.667 296.392C205.667 296.042 205.667 295.692 205.667 295.342" fill="white"/>
<path d="M206.795 288.152C206.425 290.892 206.049 293.639 205.667 296.392C205.667 296.042 205.667 295.692 205.667 295.342" stroke="#263238" stroke-miterlimit="10"/>
<path d="M235.019 311.319C236.362 314.358 235.749 317.553 233.28 320.378L235.019 311.319Z" fill="white"/>
<path d="M235.019 311.319C236.362 314.358 235.749 317.553 233.28 320.378" stroke="#263238" stroke-miterlimit="10"/>
<path d="M188.134 296.911C184.101 299.301 184.693 305.04 187.542 308.19" stroke="#263238" stroke-miterlimit="10"/>
<path d="M217.929 300.86C217.956 303.544 216.204 306.145 212.991 308.19" stroke="#263238" stroke-miterlimit="10"/>
<path d="M158.763 298.011C158.091 300.447 159.07 302.933 161.52 305.011" stroke="#263238" stroke-miterlimit="10"/>
<path d="M141.6 305.52C141.42 307.422 142.423 309.302 144.449 310.86" stroke="#263238" stroke-miterlimit="10"/>
<path d="M165.125 259.425C166.185 259.16 167.367 259.071 168.52 259.171C169.674 259.27 170.746 259.554 171.599 259.985L173.874 258.355" stroke="#263238" stroke-miterlimit="10"/>
<path d="M184.101 266.765C185.664 266.265 187.503 266.08 189.294 266.243C191.084 266.406 192.711 266.906 193.885 267.655" stroke="#263238" stroke-miterlimit="10"/>
<path d="M213.73 271.764C215.393 271.365 217.198 271.169 219.017 271.19C220.836 271.211 222.624 271.448 224.254 271.884" stroke="#263238" stroke-miterlimit="10"/>
<path d="M147.795 280.153C148.78 279.263 150.217 278.545 151.935 278.084C153.653 277.623 155.58 277.439 157.487 277.553" stroke="#263238" stroke-miterlimit="10"/>
<path d="M135.385 289.712C135.445 289.065 135.912 288.448 136.71 287.964C137.507 287.481 138.586 287.159 139.769 287.052" stroke="#263238" stroke-miterlimit="10"/>
<defs>
<linearGradient id="paint0_linear_184_450" x1="311.365" y1="60.1194" x2="311.365" y2="143.029" gradientUnits="userSpaceOnUse">
<stop stop-color="#FC4A1A"/>
<stop offset="1" stop-color="#F7B733"/>
</linearGradient>
<linearGradient id="paint1_linear_184_450" x1="602.002" y1="226.733" x2="602.002" y2="302.1" gradientUnits="userSpaceOnUse">
<stop stop-color="#FC4A1A"/>
<stop offset="1" stop-color="#F7B733"/>
</linearGradient>
<linearGradient id="paint2_linear_184_450" x1="311.542" y1="220.78" x2="311.542" y2="317.919" gradientUnits="userSpaceOnUse">
<stop stop-color="#FC4A1A"/>
<stop offset="1" stop-color="#F7B733"/>
</linearGradient>
<linearGradient id="paint3_linear_184_450" x1="464.21" y1="260.623" x2="464.21" y2="285.747" gradientUnits="userSpaceOnUse">
<stop stop-color="#FC4A1A"/>
<stop offset="1" stop-color="#F7B733"/>
</linearGradient>
<linearGradient id="paint4_linear_184_450" x1="464.21" y1="260.623" x2="464.21" y2="285.747" gradientUnits="userSpaceOnUse">
<stop stop-color="#FC4A1A"/>
<stop offset="1" stop-color="#F7B733"/>
</linearGradient>
<linearGradient id="paint5_linear_184_450" x1="437.17" y1="254.396" x2="437.17" y2="282.033" gradientUnits="userSpaceOnUse">
<stop stop-color="#FC4A1A"/>
<stop offset="1" stop-color="#F7B733"/>
</linearGradient>
<linearGradient id="paint6_linear_184_450" x1="437.17" y1="254.396" x2="437.17" y2="282.033" gradientUnits="userSpaceOnUse">
<stop stop-color="#FC4A1A"/>
<stop offset="1" stop-color="#F7B733"/>
</linearGradient>
<linearGradient id="paint7_linear_184_450" x1="396.381" y1="252.166" x2="396.381" y2="265.539" gradientUnits="userSpaceOnUse">
<stop stop-color="#FC4A1A"/>
<stop offset="1" stop-color="#F7B733"/>
</linearGradient>
<linearGradient id="paint8_linear_184_450" x1="350.656" y1="286.452" x2="350.656" y2="294.311" gradientUnits="userSpaceOnUse">
<stop stop-color="#FC4A1A"/>
<stop offset="1" stop-color="#F7B733"/>
</linearGradient>
<linearGradient id="paint9_linear_184_450" x1="409.522" y1="247.892" x2="409.522" y2="256.668" gradientUnits="userSpaceOnUse">
<stop stop-color="#FC4A1A"/>
<stop offset="1" stop-color="#F7B733"/>
</linearGradient>
<linearGradient id="paint10_linear_184_450" x1="361.338" y1="311.619" x2="361.338" y2="312.289" gradientUnits="userSpaceOnUse">
<stop stop-color="#FC4A1A"/>
<stop offset="1" stop-color="#F7B733"/>
</linearGradient>
<linearGradient id="paint11_linear_184_450" x1="359.742" y1="281.406" x2="359.742" y2="315.472" gradientUnits="userSpaceOnUse">
<stop stop-color="#FC4A1A"/>
<stop offset="1" stop-color="#F7B733"/>
</linearGradient>
<linearGradient id="paint12_linear_184_450" x1="410.01" y1="248.437" x2="410.01" y2="250.437" gradientUnits="userSpaceOnUse">
<stop stop-color="#FC4A1A"/>
<stop offset="1" stop-color="#F7B733"/>
</linearGradient>
<linearGradient id="paint13_linear_184_450" x1="425.512" y1="250.396" x2="425.512" y2="293.011" gradientUnits="userSpaceOnUse">
<stop stop-color="#FC4A1A"/>
<stop offset="1" stop-color="#F7B733"/>
</linearGradient>
<linearGradient id="paint14_linear_184_450" x1="398.868" y1="254.846" x2="398.868" y2="264.822" gradientUnits="userSpaceOnUse">
<stop stop-color="#FC4A1A"/>
<stop offset="1" stop-color="#F7B733"/>
</linearGradient>
<linearGradient id="paint15_linear_184_450" x1="404.577" y1="255.116" x2="404.577" y2="255.616" gradientUnits="userSpaceOnUse">
<stop stop-color="#FC4A1A"/>
<stop offset="1" stop-color="#F7B733"/>
</linearGradient>
<linearGradient id="paint16_linear_184_450" x1="375.026" y1="240.281" x2="375.026" y2="295.371" gradientUnits="userSpaceOnUse">
<stop stop-color="#FC4A1A"/>
<stop offset="1" stop-color="#F7B733"/>
</linearGradient>
<linearGradient id="paint17_linear_184_450" x1="454.955" y1="255.286" x2="454.955" y2="338.378" gradientUnits="userSpaceOnUse">
<stop stop-color="#FC4A1A"/>
<stop offset="1" stop-color="#F7B733"/>
</linearGradient>
<linearGradient id="paint18_linear_184_450" x1="415.734" y1="295.604" x2="415.734" y2="319.158" gradientUnits="userSpaceOnUse">
<stop stop-color="#FC4A1A"/>
<stop offset="1" stop-color="#F7B733"/>
</linearGradient>
<linearGradient id="paint19_linear_184_450" x1="409.982" y1="256.066" x2="409.982" y2="276.194" gradientUnits="userSpaceOnUse">
<stop stop-color="#FC4A1A"/>
<stop offset="1" stop-color="#F7B733"/>
</linearGradient>
<linearGradient id="paint20_linear_184_450" x1="199.184" y1="239.281" x2="199.184" y2="320.386" gradientUnits="userSpaceOnUse">
<stop stop-color="#FC4A1A"/>
<stop offset="1" stop-color="#F7B733"/>
</linearGradient>
<linearGradient id="paint21_linear_184_450" x1="162.513" y1="294.982" x2="162.513" y2="300.301" gradientUnits="userSpaceOnUse">
<stop stop-color="#FC4A1A"/>
<stop offset="1" stop-color="#F7B733"/>
</linearGradient>
<linearGradient id="paint22_linear_184_450" x1="187.16" y1="293.48" x2="187.16" y2="298.711" gradientUnits="userSpaceOnUse">
<stop stop-color="#FC4A1A"/>
<stop offset="1" stop-color="#F7B733"/>
</linearGradient>
<linearGradient id="paint23_linear_184_450" x1="213.208" y1="295.391" x2="213.208" y2="302.701" gradientUnits="userSpaceOnUse">
<stop stop-color="#FC4A1A"/>
<stop offset="1" stop-color="#F7B733"/>
</linearGradient>
<linearGradient id="paint24_linear_184_450" x1="142.54" y1="302.617" x2="142.54" y2="307.42" gradientUnits="userSpaceOnUse">
<stop stop-color="#FC4A1A"/>
<stop offset="1" stop-color="#F7B733"/>
</linearGradient>
</defs>
</svg>
