<svg width="60" height="60" viewBox="0 0 60 60" fill="none" xmlns="http://www.w3.org/2000/svg">
<path d="M46.7998 7.96802H39.5998C36.9488 7.96802 34.7998 10.1171 34.7998 12.768V19.968C34.7998 22.619 36.9488 24.768 39.5998 24.768H46.7998C49.4508 24.768 51.5998 22.619 51.5998 19.968V12.768C51.5998 10.1171 49.4508 7.96802 46.7998 7.96802Z" stroke="#FC4A1A" stroke-width="3.6" stroke-linecap="round" stroke-linejoin="round"/>
<path d="M20.3999 7.96802H13.1999C10.5489 7.96802 8.3999 10.1171 8.3999 12.768V19.968C8.3999 22.619 10.5489 24.768 13.1999 24.768H20.3999C23.0509 24.768 25.1999 22.619 25.1999 19.968V12.768C25.1999 10.1171 23.0509 7.96802 20.3999 7.96802Z" stroke="#F7B733" stroke-width="3.6" stroke-linecap="round" stroke-linejoin="round"/>
<path d="M46.7998 34.368H39.5998C36.9488 34.368 34.7998 36.517 34.7998 39.168V46.368C34.7998 49.0191 36.9488 51.168 39.5998 51.168H46.7998C49.4508 51.168 51.5998 49.0191 51.5998 46.368V39.168C51.5998 36.517 49.4508 34.368 46.7998 34.368Z" stroke="#F7B733" stroke-width="3.6" stroke-linecap="round" stroke-linejoin="round"/>
<path d="M20.3999 34.368H13.1999C10.5489 34.368 8.3999 36.517 8.3999 39.168V46.368C8.3999 49.0191 10.5489 51.168 13.1999 51.168H20.3999C23.0509 51.168 25.1999 49.0191 25.1999 46.368V39.168C25.1999 36.517 23.0509 34.368 20.3999 34.368Z" stroke="#FC4A1A" stroke-width="3.6" stroke-linecap="round" stroke-linejoin="round"/>
</svg>
